<?xml version="1.0" encoding="UTF-8"?>
<svg version="1.1" xmlns="http://www.w3.org/2000/svg" width="500" height="500">
<path d="M0 0 C22.60043134 -0.06769818 45.2007807 -0.12297084 67.80128765 -0.15543652 C78.29488948 -0.17091098 88.78842387 -0.19201159 99.28198242 -0.22631836 C108.42726318 -0.25620295 117.5724951 -0.27557079 126.71782333 -0.28226548 C131.56103008 -0.28617933 136.40409713 -0.29538949 141.24725914 -0.31719017 C145.80509499 -0.33754043 150.36273346 -0.34383675 154.92061043 -0.33932304 C156.59396817 -0.3401489 158.26733246 -0.34612327 159.94065094 -0.35761642 C162.22501495 -0.37253794 164.50863334 -0.36895523 166.79301453 -0.36076355 C168.71080483 -0.36491162 168.71080483 -0.36491162 170.66733837 -0.36914349 C174.28535393 0.03160733 176.1289757 0.80180314 179 3 C181.12048864 6.18073296 181.24872999 6.93697946 181.24050903 10.57475281 C181.24464152 11.97897381 181.24464152 11.97897381 181.2488575 13.41156292 C181.23806317 14.95520378 181.23806317 14.95520378 181.22705078 16.5300293 C181.22729185 17.63064351 181.22753292 18.73125772 181.2277813 19.86522388 C181.22628613 23.4349705 181.2110439 27.00450939 181.1953125 30.57421875 C181.1923727 32.77526753 181.19033187 34.97631771 181.18920898 37.17736816 C181.17871436 45.3474334 181.15079205 53.51746873 181.125 61.6875 C181.08375 79.940625 181.0425 98.19375 181 117 C116.155 117.495 116.155 117.495 50 118 C50 176.74 50 235.48 50 296 C57.07244141 289.81161377 60.22816977 286.31549069 63 278 C63.1028371 276.04681943 63.14638524 274.09032585 63.15821838 272.13447571 C63.1680072 270.91029938 63.17779602 269.68612305 63.18788147 268.42485046 C63.19378562 267.06619302 63.19959607 265.70753516 63.20532227 264.34887695 C63.21490123 262.9198783 63.22491132 261.49088249 63.23532104 260.06188965 C63.26237424 256.17997781 63.28338156 252.2980538 63.30332303 248.41609979 C63.32518002 244.3601562 63.35257011 240.30425012 63.37937927 236.24833679 C63.42931004 228.56673391 63.47424745 220.88511021 63.51740164 213.20346659 C63.56677072 204.45867773 63.62169007 195.7139265 63.67708123 186.96917403 C63.79090718 168.97948272 63.89701216 150.98975684 64 133 C80.83 133 97.66 133 115 133 C115.06058594 141.30671875 115.12117188 149.6134375 115.18359375 158.171875 C115.22926861 164.12096041 115.27551556 170.07003923 115.32258511 176.01911354 C115.38340006 183.71503667 115.44288935 191.41096234 115.49731445 199.10693359 C115.54505303 205.85671806 115.5975704 212.60645217 115.65294075 219.35617828 C115.67324622 221.9252122 115.69197784 224.49425907 115.70907402 227.06331635 C115.73338155 230.67474524 115.7633972 234.2860866 115.79467773 237.89746094 C115.8004332 238.94835403 115.80618866 239.99924713 115.81211853 241.08198547 C115.87202903 247.20811109 116.20073057 253.2559446 116.76863194 259.35644913 C119.00765845 284.93897926 112.48346713 306.8431524 96.5625 327.1015625 C92.69913739 331.52615684 88.97347642 334.85351492 84 338 C79.20346668 341.98911688 74.71687021 346.11683987 70.65625 350.85546875 C67.1671061 354.89682072 63.38699362 358.47811034 59.4375 362.0625 C53.10926002 367.87868392 47.16031071 373.93434545 41.42944336 380.34008789 C37.30419437 384.89860188 37.30419437 384.89860188 34 386 C33.32631282 387.32979991 32.6610349 388.66386562 32 390 C30.503482 391.58553022 28.95531054 393.1229711 27.375 394.625 C23.12348952 398.77835151 19.40375622 403.11083798 15.75390625 407.79296875 C13.65246895 410.43731635 11.53206796 412.76582239 9 415 C8.34 415 7.68 415 7 415 C7 415.66 7 416.32 7 417 C5.00045254 417.04254356 2.99958364 417.04080783 1 417 C0 416 0 416 -0.1241985 413.63159126 C-0.12381878 412.56875406 -0.12343906 411.50591685 -0.12304783 410.41087246 C-0.12503888 409.18969296 -0.12702993 407.96851346 -0.12908131 406.71032852 C-0.12622772 405.33768281 -0.12328211 403.9650373 -0.12025452 402.59239197 C-0.12069009 401.14784859 -0.12156474 399.70330529 -0.12284368 398.25876242 C-0.12509135 394.27046094 -0.12106367 390.28218606 -0.11606562 386.29388797 C-0.11176518 382.00006856 -0.11320725 377.70625077 -0.1139679 373.41242981 C-0.11449339 365.96684854 -0.11134394 358.52127601 -0.10573006 351.07569695 C-0.09761849 340.31051099 -0.09500019 329.54532927 -0.09374207 318.78014059 C-0.091551 301.31623391 -0.08488946 283.85233188 -0.07543945 266.38842773 C-0.06626673 249.41935245 -0.05918522 232.45027843 -0.05493164 215.48120117 C-0.05466892 214.43601544 -0.05440619 213.39082971 -0.05413551 212.31397169 C-0.05283051 207.07081739 -0.0515668 201.82766309 -0.05032361 196.58450878 C-0.03994931 153.05633505 -0.0215101 109.52816993 0 66 C42.9 65.67 85.8 65.34 130 65 C129.67 60.71 129.34 56.42 129 52 C86.43 51.67 43.86 51.34 0 51 C0 34.17 0 17.34 0 0 Z " fill="#010101" transform="translate(262,48)"/>
<path d="M0 0 C0.71974821 -0.00427212 1.43949642 -0.00854425 2.18105519 -0.01294583 C4.58148003 -0.02115105 6.98013909 0.00626517 9.38040161 0.03364563 C11.10540221 0.03505665 12.83040581 0.03426307 14.55540466 0.03143311 C19.230784 0.02999964 23.90552081 0.05937811 28.58075094 0.09430289 C33.46942982 0.12557797 38.35812373 0.12849804 43.24688721 0.13442993 C52.50102157 0.14996498 61.75486029 0.19098892 71.00886452 0.24117738 C81.54564168 0.29708134 92.08243302 0.32456001 102.61932158 0.34965456 C124.29134806 0.4019051 145.9629693 0.49359266 167.63479614 0.60127258 C167.63479614 17.43127258 167.63479614 34.26127258 167.63479614 51.60127258 C125.39479614 51.93127258 83.15479614 52.26127258 39.63479614 52.60127258 C39.30479614 57.22127258 38.97479614 61.84127258 38.63479614 66.60127258 C81.20479614 66.60127258 123.77479614 66.60127258 167.63479614 66.60127258 C167.65682153 111.17218275 167.67529338 155.74308781 167.68586147 200.31400185 C167.68711225 205.57015916 167.68840657 210.82631646 167.68972778 216.08247375 C167.69012125 217.65215304 167.69012125 217.65215304 167.69052266 219.25354303 C167.69487978 236.22103467 167.70276755 253.18852295 167.71194894 270.15601259 C167.72128432 287.55255811 167.72685151 304.94910186 167.72888464 322.34564978 C167.73026011 333.08935748 167.73461198 343.83305565 167.74271261 354.57676042 C167.74797865 361.93357406 167.74960076 369.29038274 167.74829752 376.64719813 C167.74765392 380.89836294 167.74867415 385.14951104 167.75400162 389.40067291 C167.75883537 393.28600545 167.75913495 397.1713099 167.75569504 401.05664367 C167.75526932 402.46849657 167.75656526 403.88035115 167.75967932 405.29220068 C167.76364304 407.19884478 167.76095262 409.10549936 167.75784397 411.01214504 C167.75841355 412.60640085 167.75841355 412.60640085 167.75899464 414.23286384 C167.63479614 416.60127258 167.63479614 416.60127258 166.63479614 417.60127258 C164.50198364 418.07002258 164.50198364 418.07002258 161.63479614 417.60127258 C159.06571325 415.70448764 156.94281646 413.42300932 154.75979614 411.10127258 C154.13556763 410.4570636 153.51133911 409.81285461 152.86819458 409.14912415 C149.23634044 405.37663306 145.72074257 401.52102745 142.33792114 397.52314758 C139.47118825 394.28821047 136.35546092 391.3029725 133.25979614 388.28877258 C131.22987049 386.21051537 129.33594275 384.11869434 127.447052 381.91792297 C123.79331012 377.72793169 119.94960541 373.771209 116.01370239 369.84736633 C115.31011093 369.14281815 114.60651947 368.43826996 113.88160706 367.71237183 C112.40464966 366.23473892 110.92644872 364.75834802 109.447052 363.28315735 C107.20314529 361.04460777 104.9646291 358.80076786 102.72659302 356.55635071 C101.28094996 355.11136855 99.83499669 353.66669666 98.38870239 352.22236633 C97.73011734 351.56175705 97.07153229 350.90114777 96.39299011 350.22052002 C91.15830932 345.01172299 85.67402304 340.15059425 80.01760864 335.40596008 C64.02731527 321.73951558 52.9408423 302.71046431 50.63479614 281.60127258 C50.50122788 278.41224205 50.49496377 275.23020425 50.50979614 272.03877258 C50.50592896 271.23375305 50.50206177 270.42873352 50.49807739 269.59931946 C50.50525297 265.00336404 50.71786206 260.47958317 51.12332153 255.90180969 C51.96232684 244.38594685 51.87198578 232.8373763 51.95120239 221.29658508 C51.97180842 218.76068308 51.99280576 216.22478423 52.01417542 213.68888855 C52.06343601 207.73241114 52.10879639 201.7759124 52.15219778 195.81939018 C52.21554561 187.16434336 52.28694089 178.50936209 52.35732269 169.85437012 C52.45485753 157.7700366 52.54403766 145.68566745 52.63479614 133.60127258 C69.46479614 133.60127258 86.29479614 133.60127258 103.63479614 133.60127258 C103.63890503 137.97167786 103.64301392 142.34208313 103.64724731 146.84492493 C103.66445394 161.29379833 103.70871999 175.74249557 103.76688671 190.19125938 C103.80148989 198.95051717 103.82688609 207.70961834 103.83035278 216.46894836 C103.8333992 224.10661999 103.85398036 231.74401235 103.89532071 239.38157618 C103.91659128 243.42295322 103.92928216 247.46393385 103.92094994 251.50536728 C103.91337176 255.31575558 103.92938332 259.1253432 103.96285629 262.93558502 C103.97104459 264.32783525 103.97089293 265.72016579 103.96139336 267.11240768 C103.91006524 275.46765812 104.31817403 282.82562414 109.63479614 289.60127258 C113.59479614 293.06627258 113.59479614 293.06627258 117.63479614 296.60127258 C117.63479614 237.86127258 117.63479614 179.12127258 117.63479614 118.60127258 C74.40479614 118.27127258 31.17479614 117.94127258 -13.36520386 117.60127258 C-13.48895386 99.22439758 -13.61270386 80.84752258 -13.74020386 61.91377258 C-13.79482788 56.1121051 -13.8494519 50.31043762 -13.9057312 44.33296204 C-13.93283081 37.24617004 -13.93283081 37.24617004 -13.93786621 33.92810059 C-13.94707744 31.61158333 -13.96817566 29.29509478 -13.99865723 26.97875977 C-14.04253665 23.46871505 -14.04864171 19.96042716 -14.0463562 16.45014954 C-14.06794485 15.41888349 -14.0895335 14.38761744 -14.11177635 13.3251009 C-14.10351137 12.37780204 -14.09524639 11.43050318 -14.08673096 10.45449829 C-14.09226171 9.63318074 -14.09779247 8.81186319 -14.10349083 7.96565723 C-11.9919982 1.20354311 -6.33038768 -0.02270584 0 0 Z " fill="#010101" transform="translate(70.36520385742188,47.39872741699219)"/>
<path d="M0 0 C42.57 0 85.14 0 129 0 C129.02202539 44.57091017 129.04049724 89.14181522 129.05106533 133.71272927 C129.05231611 138.96888658 129.05361042 144.22504388 129.05493164 149.48120117 C129.05532511 151.05088046 129.05532511 151.05088046 129.05572652 152.65227044 C129.06008364 169.61976209 129.06797141 186.58725036 129.0771528 203.55474 C129.08648818 220.95128552 129.09205536 238.34782927 129.09408849 255.7443772 C129.09546396 266.4880849 129.09981583 277.23178307 129.10791647 287.97548784 C129.11318251 295.33230148 129.11480462 302.68911016 129.11350138 310.04592555 C129.11285777 314.29709036 129.11387801 318.54823846 129.11920547 322.79940033 C129.12403923 326.68473286 129.12433881 330.57003732 129.12089889 334.45537109 C129.12047318 335.86722398 129.12176912 337.27907857 129.12488318 338.69092809 C129.1288469 340.59757219 129.12615648 342.50422677 129.12304783 344.41087246 C129.12361741 346.00512827 129.12361741 346.00512827 129.1241985 347.63159126 C129 350 129 350 128 351 C125.8671875 351.46875 125.8671875 351.46875 123 351 C120.43091711 349.10321506 118.30802032 346.82173674 116.125 344.5 C115.50077148 343.85579102 114.87654297 343.21158203 114.23339844 342.54785156 C110.6015443 338.77536048 107.08594643 334.91975487 103.703125 330.921875 C100.83639211 327.68693788 97.72066478 324.70169991 94.625 321.6875 C92.59507435 319.60924278 90.70114661 317.51742176 88.81225586 315.31665039 C85.15851397 311.1266591 81.31480926 307.16993642 77.37890625 303.24609375 C76.67531479 302.54154556 75.97172333 301.83699738 75.24681091 301.11109924 C73.76985352 299.63346633 72.29165258 298.15707543 70.81225586 296.68188477 C68.56834915 294.44333519 66.32983296 292.19949527 64.09179688 289.95507812 C62.64615382 288.51009596 61.20020055 287.06542408 59.75390625 285.62109375 C59.0953212 284.96048447 58.43673615 284.29987518 57.75819397 283.61924744 C52.52351318 278.41045041 47.0392269 273.54932167 41.3828125 268.8046875 C25.39251913 255.138243 14.30604616 236.10919173 12 215 C11.86643174 211.81096946 11.86016763 208.62893167 11.875 205.4375 C11.87113281 204.63248047 11.86726563 203.82746094 11.86328125 202.99804688 C11.87046376 198.3976461 12.08346747 193.86914789 12.48852539 189.28686523 C13.32197911 177.84794549 13.23700085 166.37779121 13.31640625 154.9140625 C13.33701272 152.40058072 13.35801006 149.88710212 13.37937927 147.37362671 C13.42863607 141.47027295 13.47399756 135.56689966 13.51740164 129.66350019 C13.57200293 122.27042521 13.63277799 114.87740298 13.69335938 107.484375 C13.80047391 94.32295271 13.90219156 81.16149458 14 68 C14.33 68 14.66 68 15 68 C15.02342119 83.45607508 15.0410243 98.91214882 15.05181217 114.3682375 C15.05695561 121.54570931 15.06396087 128.72317006 15.07543945 135.90063477 C15.08544619 142.16078057 15.09186761 148.42091836 15.09408849 154.68107194 C15.09538548 157.99187889 15.0989416 161.30265774 15.10573006 164.61345863 C15.11302689 168.32085128 15.1139873 172.02819699 15.11352539 175.7355957 C15.11712067 176.81813629 15.12071594 177.90067688 15.12442017 179.01602173 C15.11653195 184.89673177 14.84838324 190.6653982 14.22429562 196.5141325 C13.84334944 200.73615758 13.89390483 204.95206159 13.9375 209.1875 C13.94201172 210.04408203 13.94652344 210.90066406 13.95117188 211.78320312 C13.96274895 213.85550033 13.98067341 215.92776058 14 218 C14.66 218 15.32 218 16 218 C16.1959375 219.0415625 16.391875 220.083125 16.59375 221.15625 C21.00268964 242.94205116 32.2624953 260.43602581 50 274 C50.99 274.33 51.98 274.66 53 275 C54.4375 276.4609375 54.4375 276.4609375 56 278.375 C60.68241434 283.90423396 65.84695589 288.91535913 71 294 C72.66666667 295.66666667 74.33333333 297.33333333 76 299 C77.68443577 300.67364024 79.36934978 302.34679926 81.0546875 304.01953125 C82.50088274 305.45834458 83.94659145 306.89764481 85.39208984 308.3371582 C86.376212 309.31625767 87.36123062 310.29445695 88.34716797 311.27172852 C93.58364333 316.46358973 98.75029452 321.6691395 103.51806641 327.30151367 C105.10429892 329.11953997 106.777369 330.81137326 108.5 332.5 C111.01634722 334.97110952 113.37716813 337.52249032 115.6875 340.1875 C116.26628906 340.85265625 116.84507812 341.5178125 117.44140625 342.203125 C117.95574219 342.79609375 118.47007812 343.3890625 119 344 C122.30198656 347.78757282 122.68286468 347.93657294 128 349 C128 234.16 128 119.32 128 1 C85.76 1 43.52 1 0 1 C0 0.67 0 0.34 0 0 Z " fill="#767676" transform="translate(109,114)"/>
<path d="M0 0 C0.71974821 -0.00427212 1.43949642 -0.00854425 2.18105519 -0.01294583 C4.58148003 -0.02115105 6.98013909 0.00626517 9.38040161 0.03364563 C11.10540221 0.03505665 12.83040581 0.03426307 14.55540466 0.03143311 C19.230784 0.02999964 23.90552081 0.05937811 28.58075094 0.09430289 C33.46942982 0.12557797 38.35812373 0.12849804 43.24688721 0.13442993 C52.50102157 0.14996498 61.75486029 0.19098892 71.00886452 0.24117738 C81.54564168 0.29708134 92.08243302 0.32456001 102.61932158 0.34965456 C124.29134806 0.4019051 145.9629693 0.49359266 167.63479614 0.60127258 C167.63479614 17.43127258 167.63479614 34.26127258 167.63479614 51.60127258 C158.72479614 51.60127258 149.81479614 51.60127258 140.63479614 51.60127258 C140.63479614 50.94127258 140.63479614 50.28127258 140.63479614 49.60127258 C148.88479614 49.60127258 157.13479614 49.60127258 165.63479614 49.60127258 C165.63479614 33.76127258 165.63479614 17.92127258 165.63479614 1.60127258 C143.29497559 1.61897863 120.95550249 1.65727508 98.61581135 1.73336315 C88.24329078 1.7680281 77.87090332 1.79337065 67.49832153 1.79682922 C58.45840715 1.79986702 49.41872974 1.82033268 40.37890691 1.86179715 C35.59155666 1.88314559 30.80454345 1.89571831 26.01714516 1.88742638 C21.51162142 1.87989788 17.00678124 1.89565975 12.50138283 1.92933273 C10.84740717 1.93758056 9.19336372 1.9372988 7.53939438 1.9278698 C5.28073999 1.91626777 3.02433339 1.93533082 0.76585388 1.96203613 C-0.4979243 1.96480151 -1.76170248 1.96756689 -3.06377697 1.97041607 C-7.29957878 2.77981857 -8.78070255 4.19981167 -11.36520386 7.60127258 C-12.10069151 9.9079618 -12.10069151 9.9079618 -12.00444031 12.34060669 C-12.01972432 13.26271596 -12.03500834 14.18482523 -12.0507555 15.1348772 C-12.04213332 16.13803817 -12.03351114 17.14119913 -12.02462769 18.17475891 C-12.03514255 19.25578982 -12.04565741 20.33682074 -12.0564909 21.45061016 C-12.08485713 24.94514549 -12.07920223 28.43867897 -12.07223511 31.93330383 C-12.08476008 34.09261978 -12.09951691 36.25192398 -12.11654663 38.41120911 C-12.16398884 46.41194891 -12.16822618 54.41289773 -12.17770386 62.41377258 C-12.23957886 80.29564758 -12.30145386 98.17752258 -12.36520386 116.60127258 C31.19479614 116.27127258 74.75479614 115.94127258 119.63479614 115.60127258 C119.63479614 176.32127258 119.63479614 237.04127258 119.63479614 299.60127258 C114.19583822 297.42568941 112.49970338 295.73582451 108.63479614 291.60127258 C108.96479614 290.94127258 109.29479614 290.28127258 109.63479614 289.60127258 C113.59479614 293.06627258 113.59479614 293.06627258 117.63479614 296.60127258 C117.63479614 237.86127258 117.63479614 179.12127258 117.63479614 118.60127258 C74.40479614 118.27127258 31.17479614 117.94127258 -13.36520386 117.60127258 C-13.48895386 99.22439758 -13.61270386 80.84752258 -13.74020386 61.91377258 C-13.79482788 56.1121051 -13.8494519 50.31043762 -13.9057312 44.33296204 C-13.93283081 37.24617004 -13.93283081 37.24617004 -13.93786621 33.92810059 C-13.94707744 31.61158333 -13.96817566 29.29509478 -13.99865723 26.97875977 C-14.04253665 23.46871505 -14.04864171 19.96042716 -14.0463562 16.45014954 C-14.06794485 15.41888349 -14.0895335 14.38761744 -14.11177635 13.3251009 C-14.10351137 12.37780204 -14.09524639 11.43050318 -14.08673096 10.45449829 C-14.09226171 9.63318074 -14.09779247 8.81186319 -14.10349083 7.96565723 C-11.9919982 1.20354311 -6.33038768 -0.02270584 0 0 Z " fill="#303030" transform="translate(70.36520385742188,47.39872741699219)"/>
<path d="M0 0 C0.33 0.66 0.66 1.32 1 2 C-41.9 2 -84.8 2 -129 2 C-128.67 116.51 -128.34 231.02 -128 349 C-122.92021374 348.07704206 -122.92021374 348.07704206 -119.625 344.9375 C-119.03332031 344.30972656 -118.44164062 343.68195313 -117.83203125 343.03515625 C-117.22746094 342.36355469 -116.62289063 341.69195312 -116 341 C-115.38511719 340.31808594 -114.77023437 339.63617188 -114.13671875 338.93359375 C-111.63858532 336.11450099 -109.21148024 333.26746031 -106.875 330.3125 C-104.74864124 327.68999086 -102.39818881 325.368568 -100 323 C-97.03876089 320.06541569 -94.08142467 317.12693372 -91.125 314.1875 C-90.34769531 313.41857422 -89.57039063 312.64964844 -88.76953125 311.85742188 C-85.18867722 308.29161345 -81.70302623 304.7149779 -78.4296875 300.86328125 C-75.53737199 297.49246227 -72.40250674 294.64058485 -69.02197266 291.76855469 C-65.55929038 288.73985746 -62.3983647 285.41587885 -59.1875 282.125 C-54.68062293 277.54595433 -50.20075989 273.19219758 -45.125 269.25 C-38.46207975 264.01628621 -32.60041569 257.48939689 -28.34375 250.140625 C-27.9003125 249.43421875 -27.456875 248.7278125 -27 248 C-26.34 248 -25.68 248 -25 248 C-28.15081447 258.08260631 -37.36662853 267.41370081 -46 273 C-50.79538254 276.99084162 -55.28288812 281.11655785 -59.34375 285.85546875 C-62.8328939 289.89682072 -66.61300638 293.47811034 -70.5625 297.0625 C-76.89073998 302.87868392 -82.83968929 308.93434545 -88.57055664 315.34008789 C-92.69580563 319.89860188 -92.69580563 319.89860188 -96 321 C-96.67368718 322.32979991 -97.3389651 323.66386562 -98 325 C-99.496518 326.58553022 -101.04468946 328.1229711 -102.625 329.625 C-106.87651048 333.77835151 -110.59624378 338.11083798 -114.24609375 342.79296875 C-116.34753105 345.43731635 -118.46793204 347.76582239 -121 350 C-121.66 350 -122.32 350 -123 350 C-123 350.66 -123 351.32 -123 352 C-124.99954746 352.04254356 -127.00041636 352.04080783 -129 352 C-130 351 -130 351 -130.1241985 348.63159126 C-130.12381878 347.56875406 -130.12343906 346.50591685 -130.12304783 345.41087246 C-130.12503888 344.18969296 -130.12702993 342.96851346 -130.12908131 341.71032852 C-130.12622772 340.33768281 -130.12328211 338.9650373 -130.12025452 337.59239197 C-130.12069009 336.14784859 -130.12156474 334.70330529 -130.12284368 333.25876242 C-130.12509135 329.27046094 -130.12106367 325.28218606 -130.11606562 321.29388797 C-130.11176518 317.00006856 -130.11320725 312.70625077 -130.1139679 308.41242981 C-130.11449339 300.96684854 -130.11134394 293.52127601 -130.10573006 286.07569695 C-130.09761849 275.31051099 -130.09500019 264.54532927 -130.09374207 253.78014059 C-130.091551 236.31623391 -130.08488946 218.85233188 -130.07543945 201.38842773 C-130.06626673 184.41935245 -130.05918522 167.45027843 -130.05493164 150.48120117 C-130.05466892 149.43601544 -130.05440619 148.39082971 -130.05413551 147.31397169 C-130.05283051 142.07081739 -130.0515668 136.82766309 -130.05032361 131.58450878 C-130.03994931 88.05633505 -130.0215101 44.52816993 -130 1 C-87.1 0.67 -44.2 0.34 0 0 Z " fill="#3E3E3E" transform="translate(392,113)"/>
<path d="M0 0 C16.83 0 33.66 0 51 0 C51.06058594 8.30671875 51.12117188 16.6134375 51.18359375 25.171875 C51.22926861 31.12096041 51.27551556 37.07003923 51.32258511 43.01911354 C51.38340006 50.71503667 51.44288935 58.41096234 51.49731445 66.10693359 C51.54505303 72.85671806 51.5975704 79.60645217 51.65294075 86.35617828 C51.67324622 88.9252122 51.69197784 91.49425907 51.70907402 94.06331635 C51.73338155 97.67474524 51.7633972 101.2860866 51.79467773 104.89746094 C51.8004332 105.94835403 51.80618866 106.99924713 51.81211853 108.08198547 C51.87202903 114.20811109 52.20073057 120.2559446 52.76863194 126.35644913 C54.1319545 141.9334154 53.30311856 157.89742623 46 172 C45.67 172 45.34 172 45 172 C45 170.35 45 168.7 45 167 C45.66 167 46.32 167 47 167 C47.31376521 165.45859034 47.62594465 163.91685785 47.9375 162.375 C48.11152344 161.51648438 48.28554688 160.65796875 48.46484375 159.7734375 C49.45199496 154.65754435 50.12465812 149.84452688 50.12025452 144.62185669 C50.12162918 143.35989975 50.12300385 142.09794281 50.12442017 140.79774475 C50.12088173 139.41220069 50.11724693 138.02665687 50.11352539 136.64111328 C50.11324311 135.17226666 50.11340205 133.7034199 50.1139679 132.23457336 C50.11425429 128.25777034 50.10838311 124.2809976 50.10139394 120.3042016 C50.09513408 116.14419872 50.09455452 111.9841951 50.09336853 107.82418823 C50.09026298 99.95141184 50.08206004 92.07864936 50.07201904 84.20587909 C50.06083382 75.24097894 50.05534138 66.27607812 50.05032361 57.31117272 C50.03987678 38.87410566 50.02154094 20.43705767 50 2 C33.83 2 17.66 2 1 2 C1.05124023 6.24399658 1.10248047 10.48799316 1.15527344 14.8605957 C1.32175519 28.89807893 1.46582085 42.93572651 1.59840012 56.97356892 C1.67931147 65.48294925 1.76782552 73.99212126 1.87451172 82.5012207 C1.96752667 89.92148868 2.04599761 97.34174693 2.10732102 104.76234692 C2.14026332 108.68816284 2.18027179 112.61360826 2.2377243 116.53914833 C2.2916827 120.2416949 2.32604278 123.9439297 2.34602928 127.64681053 C2.36169058 129.63798678 2.39754366 131.62897299 2.43421936 133.61987305 C2.45590175 142.61806416 0.97515883 150.04140195 -3.6875 157.8125 C-7.11679951 161.05643197 -11.00036035 163.51304458 -15 166 C-13.65832675 162.89156891 -12.32935298 161.25759828 -9.625 159.25 C-4.89403863 155.37652538 -2.89920554 150.69761662 -1 145 C-0.8971629 143.04681943 -0.85361476 141.09032585 -0.84178162 139.13447571 C-0.8319928 137.91029938 -0.82220398 136.68612305 -0.81211853 135.42485046 C-0.80621438 134.06619302 -0.80040393 132.70753516 -0.79467773 131.34887695 C-0.78509877 129.9198783 -0.77508868 128.49088249 -0.76467896 127.06188965 C-0.73762576 123.17997781 -0.71661844 119.2980538 -0.69667697 115.41609979 C-0.67481998 111.3601562 -0.64742989 107.30425012 -0.62062073 103.24833679 C-0.57068996 95.56673391 -0.52575255 87.88511021 -0.48259836 80.20346659 C-0.43322928 71.45867773 -0.37830993 62.7139265 -0.32291877 53.96917403 C-0.20909282 35.97948272 -0.10298784 17.98975684 0 0 Z " fill="#686868" transform="translate(326,181)"/>
<path d="M0 0 C0.33 0 0.66 0 1 0 C1.02342119 15.45607508 1.0410243 30.91214882 1.05181217 46.3682375 C1.05695561 53.54570931 1.06396087 60.72317006 1.07543945 67.90063477 C1.08544619 74.16078057 1.09186761 80.42091836 1.09408849 86.68107194 C1.09538548 89.99187889 1.0989416 93.30265774 1.10573006 96.61345863 C1.11302689 100.32085128 1.1139873 104.02819699 1.11352539 107.7355957 C1.11712067 108.81813629 1.12071594 109.90067688 1.12442017 111.01602173 C1.11653195 116.89673177 0.84838324 122.6653982 0.22429562 128.5141325 C-0.15665056 132.73615758 -0.10609517 136.95206159 -0.0625 141.1875 C-0.05573242 142.47237305 -0.05573242 142.47237305 -0.04882812 143.78320312 C-0.03725105 145.85550033 -0.01932659 147.92776058 0 150 C0.66 150 1.32 150 2 150 C2.1959375 151.0415625 2.391875 152.083125 2.59375 153.15625 C7.00268964 174.94205116 18.2624953 192.43602581 36 206 C36.99 206.33 37.98 206.66 39 207 C40.4375 208.4609375 40.4375 208.4609375 42 210.375 C46.68241434 215.90423396 51.84695589 220.91535913 57 226 C58.66666667 227.66666667 60.33333333 229.33333333 62 231 C63.68443577 232.67364024 65.36934978 234.34679926 67.0546875 236.01953125 C68.50088274 237.45834458 69.94659145 238.89764481 71.39208984 240.3371582 C72.376212 241.31625767 73.36123062 242.29445695 74.34716797 243.27172852 C79.58364333 248.46358973 84.75029452 253.6691395 89.51806641 259.30151367 C91.1043009 261.11954223 92.77736907 262.81136837 94.5 264.5 C97.6273434 267.57124756 100.49496431 270.81385249 103.35546875 274.1328125 C105.47130895 276.53512038 107.7024661 278.77208834 110 281 C109.67 281.66 109.34 282.32 109 283 C94.96365996 269.13887086 94.96365996 269.13887086 89.703125 262.921875 C86.83639211 259.68693788 83.72066478 256.70169991 80.625 253.6875 C78.59507435 251.60924278 76.70114661 249.51742176 74.81225586 247.31665039 C71.15851397 243.1266591 67.31480926 239.16993642 63.37890625 235.24609375 C62.67531479 234.54154556 61.97172333 233.83699738 61.24681091 233.11109924 C59.76985352 231.63346633 58.29165258 230.15707543 56.81225586 228.68188477 C54.56834915 226.44333519 52.32983296 224.19949527 50.09179688 221.95507812 C48.64615382 220.51009596 47.20020055 219.06542408 45.75390625 217.62109375 C45.0953212 216.96048447 44.43673615 216.29987518 43.75819397 215.61924744 C38.52351318 210.41045041 33.0392269 205.54932167 27.3828125 200.8046875 C11.39251913 187.138243 0.30604616 168.10919173 -2 147 C-2.13356826 143.81096946 -2.13983237 140.62893167 -2.125 137.4375 C-2.13080078 136.2299707 -2.13080078 136.2299707 -2.13671875 134.99804688 C-2.12953624 130.3976461 -1.91653253 125.86914789 -1.51147461 121.28686523 C-0.67802089 109.84794549 -0.76299915 98.37779121 -0.68359375 86.9140625 C-0.66298728 84.40058072 -0.64198994 81.88710212 -0.62062073 79.37362671 C-0.57136393 73.47027295 -0.52600244 67.56689966 -0.48259836 61.66350019 C-0.42799707 54.27042521 -0.36722201 46.87740298 -0.30664062 39.484375 C-0.19952609 26.32295271 -0.09780844 13.16149458 0 0 Z " fill="#B6B6B6" transform="translate(123,182)"/>
<path d="M0 0 C0 60.72 0 121.44 0 184 C-5.43895793 181.82441683 -7.13509277 180.13455193 -11 176 C-10.67 175.34 -10.34 174.68 -10 174 C-6.04 177.465 -6.04 177.465 -2 181 C-2 122.26 -2 63.52 -2 3 C-66.35 2.505 -66.35 2.505 -132 2 C-132 1.67 -132 1.34 -132 1 C-117.44712749 0.8686333 -102.89424682 0.73820314 -88.34135628 0.60884857 C-81.58222183 0.54874827 -74.82309024 0.4883564 -68.06396484 0.42724609 C-61.52816244 0.36818558 -54.99235337 0.3099203 -48.45653915 0.25218201 C-45.97618232 0.23013513 -43.49582793 0.20781267 -41.01547623 0.18519592 C-37.51309067 0.15330933 -34.01069735 0.1224472 -30.50830078 0.09179688 C-29.50703156 0.08244614 -28.50576233 0.0730954 -27.47415161 0.0634613 C-18.31515288 -0.0148604 -9.16061271 0 0 0 Z " fill="#3D3D3D" transform="translate(190,163)"/>
<path d="M0 0 C4.32328804 -0.0744013 8.64623255 -0.12871968 12.9699707 -0.16479492 C14.43943782 -0.17984066 15.90886034 -0.20028238 17.37817383 -0.22631836 C19.4957177 -0.26288955 21.61266565 -0.27976801 23.73046875 -0.29296875 C25.63928833 -0.31653442 25.63928833 -0.31653442 27.58666992 -0.34057617 C31.27073713 0.02701368 33.08737346 0.76024883 36 3 C38.12048864 6.18073296 38.24872999 6.93697946 38.24050903 10.57475281 C38.24464152 11.97897381 38.24464152 11.97897381 38.2488575 13.41156292 C38.23806317 14.95520378 38.23806317 14.95520378 38.22705078 16.5300293 C38.22729185 17.63064351 38.22753292 18.73125772 38.2277813 19.86522388 C38.22628613 23.4349705 38.2110439 27.00450939 38.1953125 30.57421875 C38.1923727 32.77526753 38.19033187 34.97631771 38.18920898 37.17736816 C38.17871436 45.3474334 38.15079205 53.51746873 38.125 61.6875 C38.08375 79.940625 38.0425 98.19375 38 117 C-5.56 117.33 -49.12 117.66 -94 118 C-94 117.34 -94 116.68 -94 116 C-51.1 115.67 -8.2 115.34 36 115 C36.020625 101.84125 36.04125 88.6825 36.0625 75.125 C36.071604 71.02852051 36.08070801 66.93204102 36.09008789 62.71142578 C36.10497492 52.47398186 36.08204107 42.23714928 36 32 C35.99124973 30.89388618 35.99124973 30.89388618 35.98232269 29.76542664 C35.94244217 25.33968397 35.85899442 20.91679299 35.74609375 16.4921875 C35.73224136 15.4429007 35.71838898 14.39361389 35.70411682 13.31253052 C35.67212692 12.37263275 35.64013702 11.43273499 35.60717773 10.46435547 C35.58662827 9.66528778 35.5660788 8.86622009 35.54490662 8.04293823 C35.14635593 5.83561901 35.14635593 5.83561901 33.16828918 4.2537384 C30.06689008 2.46046138 27.3906273 2.4593367 23.828125 2.26953125 C23.1457074 2.229384 22.46328979 2.18923676 21.76019287 2.14787292 C19.59061954 2.02319034 17.42060173 1.91759118 15.25 1.8125 C13.77466956 1.73107678 12.29940728 1.64840827 10.82421875 1.56445312 C7.21682325 1.36187157 3.60878203 1.17638571 0 1 C0 0.67 0 0.34 0 0 Z " fill="#575757" transform="translate(405,48)"/>
<path d="M0 0 C0.66 0 1.32 0 2 0 C-1.15081447 10.08260631 -10.36662853 19.41370081 -19 25 C-23.79538254 28.99084162 -28.28288812 33.11655785 -32.34375 37.85546875 C-35.8328939 41.89682072 -39.61300638 45.47811034 -43.5625 49.0625 C-49.89073998 54.87868392 -55.83968929 60.93434545 -61.57055664 67.34008789 C-65.69580563 71.89860188 -65.69580563 71.89860188 -69 73 C-69.67368718 74.32979991 -70.3389651 75.66386562 -71 77 C-72.496518 78.58553022 -74.04468946 80.1229711 -75.625 81.625 C-79.87651048 85.77835151 -83.59624378 90.11083798 -87.24609375 94.79296875 C-89.34753105 97.43731635 -91.46793204 99.76582239 -94 102 C-94.66 102 -95.32 102 -96 102 C-96 102.66 -96 103.32 -96 104 C-97.98 104 -99.96 104 -102 104 C-102.33 103.01 -102.66 102.02 -103 101 C-102.175 101.165 -101.35 101.33 -100.5 101.5 C-95.01702574 100.71671796 -92.54858996 97.02905669 -89 93 C-88.36449219 92.29488281 -87.72898437 91.58976562 -87.07421875 90.86328125 C-84.59120869 88.07188878 -82.1923427 85.24325694 -79.875 82.3125 C-77.74864124 79.68999086 -75.39818881 77.368568 -73 75 C-70.03876089 72.06541569 -67.08142467 69.12693372 -64.125 66.1875 C-63.34769531 65.41857422 -62.57039063 64.64964844 -61.76953125 63.85742188 C-58.18867722 60.29161345 -54.70302623 56.7149779 -51.4296875 52.86328125 C-48.53737199 49.49246227 -45.40250674 46.64058485 -42.02197266 43.76855469 C-38.55929038 40.73985746 -35.3983647 37.41587885 -32.1875 34.125 C-27.68062293 29.54595433 -23.20075989 25.19219758 -18.125 21.25 C-11.46207975 16.01628621 -5.60041569 9.48939689 -1.34375 2.140625 C-0.67859375 1.08101563 -0.67859375 1.08101563 0 0 Z " fill="#B0B0B0" transform="translate(365,361)"/>
<path d="M0 0 C0.33 0 0.66 0 1 0 C1.02342119 15.45607508 1.0410243 30.91214882 1.05181217 46.3682375 C1.05695561 53.54570931 1.06396087 60.72317006 1.07543945 67.90063477 C1.08544619 74.16078057 1.09186761 80.42091836 1.09408849 86.68107194 C1.09538548 89.99187889 1.0989416 93.30265774 1.10573006 96.61345863 C1.11302689 100.32085128 1.1139873 104.02819699 1.11352539 107.7355957 C1.11712067 108.81813629 1.12071594 109.90067688 1.12442017 111.01602173 C1.11653195 116.89673177 0.84838324 122.6653982 0.22429562 128.5141325 C-0.15665056 132.73615758 -0.10609517 136.95206159 -0.0625 141.1875 C-0.05573242 142.47237305 -0.05573242 142.47237305 -0.04882812 143.78320312 C-0.03725105 145.85550033 -0.01932659 147.92776058 0 150 C0.66 150 1.32 150 2 150 C2.26554687 151.14597656 2.53109375 152.29195312 2.8046875 153.47265625 C3.16136742 155.00262536 3.51814337 156.53257209 3.875 158.0625 C4.13603516 159.19075195 4.13603516 159.19075195 4.40234375 160.34179688 C5.47664764 164.93743017 6.66534057 169.47297949 8 174 C7.34 174 6.68 174 6 174 C5.20752336 171.79195441 4.4159987 169.58357503 3.625 167.375 C2.96371094 165.53035156 2.96371094 165.53035156 2.2890625 163.6484375 C1.65097656 161.84246094 1.65097656 161.84246094 1 160 C0.63648437 159.00226563 0.27296875 158.00453125 -0.1015625 156.9765625 C-2.05377747 150.50878942 -2.15609512 144.12813344 -2.125 137.4375 C-2.13080078 136.2299707 -2.13080078 136.2299707 -2.13671875 134.99804688 C-2.12953624 130.3976461 -1.91653253 125.86914789 -1.51147461 121.28686523 C-0.67802089 109.84794549 -0.76299915 98.37779121 -0.68359375 86.9140625 C-0.66298728 84.40058072 -0.64198994 81.88710212 -0.62062073 79.37362671 C-0.57136393 73.47027295 -0.52600244 67.56689966 -0.48259836 61.66350019 C-0.42799707 54.27042521 -0.36722201 46.87740298 -0.30664062 39.484375 C-0.19952609 26.32295271 -0.09780844 13.16149458 0 0 Z " fill="#828282" transform="translate(123,182)"/>
<path d="M0 0 C0.33 0 0.66 0 1 0 C1.22447776 18.32430341 1.42533246 36.64870831 1.59840012 54.97356892 C1.67931147 63.48294925 1.76782552 71.99212126 1.87451172 80.5012207 C1.96752667 87.92148868 2.04599761 95.34174693 2.10732102 102.76234692 C2.14026332 106.68816284 2.18027179 110.61360826 2.2377243 114.53914833 C2.2916827 118.2416949 2.32604278 121.9439297 2.34602928 125.64681053 C2.36169058 127.63798678 2.39754366 129.62897299 2.43421936 131.61987305 C2.45590175 140.61806416 0.97515883 148.04140195 -3.6875 155.8125 C-7.11679951 159.05643197 -11.00036035 161.51304458 -15 164 C-13.65832675 160.89156891 -12.32935298 159.25759828 -9.625 157.25 C-4.89403863 153.37652538 -2.89920554 148.69761662 -1 143 C-0.89727826 141.0721487 -0.85362548 139.14095313 -0.84178162 137.21040344 C-0.8319928 136.00305542 -0.82220398 134.7957074 -0.81211853 133.55177307 C-0.8062144 132.21200601 -0.80040395 130.87223854 -0.79467773 129.5324707 C-0.78509865 128.1231762 -0.77508855 126.71388456 -0.76467896 125.30459595 C-0.73762708 121.47640165 -0.71661905 117.64819502 -0.69667697 113.81995797 C-0.67481917 109.82006851 -0.64742947 105.82021707 -0.62062073 101.82035828 C-0.57069106 94.24500358 -0.52575324 86.66962778 -0.48259836 79.09423178 C-0.43322834 70.47035926 -0.37830934 61.8465249 -0.32291877 53.22268927 C-0.20909451 35.48182827 -0.10225643 17.74093126 0 0 Z " fill="#4A4A4A" transform="translate(326,183)"/>
<path d="M0 0 C-0.33 0.99 -0.66 1.98 -1 3 C-44.23 2.67 -87.46 2.34 -132 2 C-132 1.67 -132 1.34 -132 1 C-117.44712749 0.8686333 -102.89424682 0.73820314 -88.34135628 0.60884857 C-81.58222183 0.54874827 -74.82309024 0.4883564 -68.06396484 0.42724609 C-61.52816244 0.36818558 -54.99235337 0.3099203 -48.45653915 0.25218201 C-45.97618232 0.23013513 -43.49582793 0.20781267 -41.01547623 0.18519592 C-27.3432603 0.06072065 -13.67282256 -0.03506173 0 0 Z " fill="#4C4C4C" transform="translate(190,163)"/>
<path d="M0 0 C0.66 0 1.32 0 2 0 C3.12109375 1.73046875 3.12109375 1.73046875 4.4375 4.1875 C10.23116323 14.13963197 20.83132399 29.277108 32 33 C33.75390625 34.70703125 33.75390625 34.70703125 35.5625 36.8125 C36.16191406 37.49957031 36.76132813 38.18664062 37.37890625 38.89453125 C38.89648749 40.86555845 39.97902958 42.73964261 41 45 C36.03871533 40.82801062 31.23712449 36.50008064 26.47998047 32.09814453 C23.67126748 29.50541885 20.81921201 26.99908925 17.875 24.5625 C10.78787667 18.40945359 4.06001318 10.48911846 0 2 C0 1.34 0 0.68 0 0 Z " fill="#B3B3B3" transform="translate(130,356)"/>
<path d="M0 0 C0.66 0 1.32 0 2 0 C-1.18114097 10.17965109 -10.38442804 19.27053775 -19 25 C-20.98964564 26.71431609 -22.94877557 28.46471882 -24.875 30.25 C-26.32519531 31.58804687 -26.32519531 31.58804687 -27.8046875 32.953125 C-28.52914063 33.62859375 -29.25359375 34.3040625 -30 35 C-30.66 34.67 -31.32 34.34 -32 34 C-27.77887134 29.5611627 -23.46272395 25.51420342 -18.625 21.75 C-11.81516945 16.28696045 -5.73770086 9.72640809 -1.34375 2.140625 C-0.9003125 1.43421875 -0.456875 0.7278125 0 0 Z " fill="#BDBDBD" transform="translate(365,361)"/>
<path d="M0 0 C4.32328804 -0.0744013 8.64623255 -0.12871968 12.9699707 -0.16479492 C14.43943782 -0.17984066 15.90886034 -0.20028238 17.37817383 -0.22631836 C19.4957177 -0.26288955 21.61266565 -0.27976801 23.73046875 -0.29296875 C25.63928833 -0.31653442 25.63928833 -0.31653442 27.58666992 -0.34057617 C31.2574415 0.02568707 33.12411181 0.72293601 36 3 C36.495 4.485 36.495 4.485 37 6 C34 4.5 34 4.5 31 3 C28.67847516 2.77552076 26.35146625 2.60679672 24.0234375 2.46484375 C23.33819 2.42186661 22.6529425 2.37888947 21.94692993 2.33460999 C19.75651568 2.1981713 17.56578911 2.06776703 15.375 1.9375 C13.89060051 1.84610007 12.4062251 1.75430808 10.921875 1.66210938 C7.28151858 1.43685483 3.64085818 1.21701107 0 1 C0 0.67 0 0.34 0 0 Z " fill="#6A6A6A" transform="translate(405,48)"/>
<path d="M0 0 C0.66 0 1.32 0 2 0 C2.26554687 1.14597656 2.53109375 2.29195313 2.8046875 3.47265625 C3.16136742 5.00262536 3.51814337 6.53257209 3.875 8.0625 C4.04902344 8.81466797 4.22304687 9.56683594 4.40234375 10.34179688 C5.47664764 14.93743017 6.66534057 19.47297949 8 24 C7.34 24 6.68 24 6 24 C5.20752336 21.79195441 4.4159987 19.58357503 3.625 17.375 C3.18414062 16.14523437 2.74328125 14.91546875 2.2890625 13.6484375 C1.86367187 12.44445312 1.43828125 11.24046875 1 10 C0.608125 8.906875 0.21625 7.81375 -0.1875 6.6875 C-1.02881335 3.9046943 -1.02791549 2.67258027 0 0 Z " fill="#6D6D6D" transform="translate(123,332)"/>
<path d="M0 0 C0.67095703 0.58007812 0.67095703 0.58007812 1.35546875 1.171875 C1.96003906 1.69265625 2.56460938 2.2134375 3.1875 2.75 C3.83074219 3.30429687 4.47398437 3.85859375 5.13671875 4.4296875 C6.55377264 5.62393417 8.017458 6.7630935 9.5 7.875 C14.31514695 11.9678749 18.26086052 16.92383489 22 22 C18.56394819 20.51770549 16.31298409 18.5704826 13.671875 15.9375 C12.87265625 15.14085937 12.0734375 14.34421875 11.25 13.5234375 C10.425 12.69070313 9.6 11.85796875 8.75 11 C7.90953125 10.16726563 7.0690625 9.33453125 6.203125 8.4765625 C5.4090625 7.67992187 4.615 6.88328125 3.796875 6.0625 C2.70391113 4.96615234 2.70391113 4.96615234 1.58886719 3.84765625 C0 2 0 2 0 0 Z " fill="#C6C6C6" transform="translate(171,400)"/>
<path d="M0 0 C0.66 0.33 1.32 0.66 2 1 C-0.90741239 11.10986582 -5.12677694 15.4826754 -14 21 C-12.65832675 17.89156891 -11.32935298 16.25759828 -8.625 14.25 C-3.89403863 10.37652538 -1.89920554 5.69761662 0 0 Z " fill="#909090" transform="translate(325,326)"/>
<path d="M0 0 C0.99 0.33 1.98 0.66 3 1 C1.29798107 2.756532 -0.41115103 4.50507087 -2.125 6.25 C-2.599375 6.74113281 -3.07375 7.23226563 -3.5625 7.73828125 C-6.8004632 11.02000071 -10.08565821 13.56079592 -14 16 C-12.34136495 11.67495164 -9.128959 8.90581175 -5.875 5.75 C-5.31167969 5.19570313 -4.74835938 4.64140625 -4.16796875 4.0703125 C-2.78313972 2.70895515 -1.39216796 1.35385141 0 0 Z " fill="#D3D3D3" transform="translate(332,396)"/>
<path d="M0 0 C0.33 0.99 0.66 1.98 1 3 C0.40832031 3.58007812 -0.18335938 4.16015625 -0.79296875 4.7578125 C-5.09851719 9.01419481 -9.23200869 13.25962383 -13 18 C-13.33 17.01 -13.66 16.02 -14 15 C-13.36384766 14.38125 -13.36384766 14.38125 -12.71484375 13.75 C-8.24761277 9.35149565 -4.0721472 4.76527863 0 0 Z " fill="#C0C0C0" transform="translate(317,410)"/>
<path d="M0 0 C0.66 0 1.32 0 2 0 C3.296875 1.90625 3.296875 1.90625 4.75 4.5 C7.51667279 9.28375443 10.58345264 13.66268101 14 18 C7.54754685 15.34811266 3.10692024 8.03108047 0 2 C0 1.34 0 0.68 0 0 Z " fill="#A1A1A1" transform="translate(130,356)"/>
<path d="M0 0 C0.33 0.99 0.66 1.98 1 3 C-3.97281557 7.36574458 -8.96836982 11.70214922 -14 16 C-14.66 15.67 -15.32 15.34 -16 15 C-10.86877855 9.74595676 -5.5930976 4.76008307 0 0 Z " fill="#9A9A9A" transform="translate(349,380)"/>
<path d="M0 0 C1.31872319 3.95616957 0.39499917 6.01739418 -0.75 10 C-1.09546875 11.2375 -1.4409375 12.475 -1.796875 13.75 C-2.89112794 16.70590404 -3.56638822 18.09786665 -6 20 C-6 18.35 -6 16.7 -6 15 C-5.34 15 -4.68 15 -4 15 C-3.81824219 14.00419922 -3.81824219 14.00419922 -3.6328125 12.98828125 C-2.77452292 8.46575541 -1.96028689 4.20061476 0 0 Z " fill="#808080" transform="translate(377,333)"/>
<path d="M0 0 C0.33 0.99 0.66 1.98 1 3 C-0.62339805 4.70884005 -2.29319053 6.37446717 -4 8 C-4.66 8 -5.32 8 -6 8 C-6.66 9.32 -7.32 10.64 -8 12 C-8.99 11.67 -9.98 11.34 -11 11 C-7.37 7.37 -3.74 3.74 0 0 Z " fill="#A1A1A1" transform="translate(302,426)"/>
<path d="M0 0 C0.33 0.99 0.66 1.98 1 3 C-0.62339805 4.70884005 -2.29319053 6.37446717 -4 8 C-4.66 8 -5.32 8 -6 8 C-4.55746343 4.63408134 -2.66735273 2.48952921 0 0 Z " fill="#A5A5A5" transform="translate(317,410)"/>
<path d="M0 0 C0.66 0 1.32 0 2 0 C0.87548273 2.9719385 -0.22293791 5.33440687 -2 8 C-2.99 7.67 -3.98 7.34 -5 7 C-4.21654285 5.82780457 -3.42297164 4.66236332 -2.625 3.5 C-2.18414062 2.8503125 -1.74328125 2.200625 -1.2890625 1.53125 C-0.65097656 0.77328125 -0.65097656 0.77328125 0 0 Z " fill="#8F8F8F" transform="translate(365,361)"/>
</svg>
