<?xml version="1.0" encoding="UTF-8"?>
<svg version="1.1" xmlns="http://www.w3.org/2000/svg" width="500" height="500">
<path d="M0 0 C22.58316064 -0.06771406 45.16623912 -0.12298011 67.74947548 -0.15543652 C78.23520161 -0.17090697 88.72086019 -0.19199994 99.20654297 -0.22631836 C108.34560738 -0.2562152 117.48462288 -0.27557371 126.62373483 -0.28226548 C131.46306118 -0.28617725 136.30224758 -0.29537423 141.14152908 -0.31719017 C145.69690574 -0.33755977 150.25208487 -0.34383282 154.80750275 -0.33932304 C156.47882791 -0.34014803 158.1501597 -0.34611089 159.82144547 -0.35761642 C162.10545889 -0.37256821 164.38872897 -0.36894419 166.67276001 -0.36076355 C167.95036509 -0.36352893 169.22797016 -0.36629431 170.54429054 -0.36914349 C174.36386681 0.03886874 176.75293352 0.97296046 180 3 C182.12048864 6.18073296 182.24872999 6.93697946 182.24050903 10.57475281 C182.24464152 11.97897381 182.24464152 11.97897381 182.2488575 13.41156292 C182.23806317 14.95520378 182.23806317 14.95520378 182.22705078 16.5300293 C182.22729185 17.63064351 182.22753292 18.73125772 182.2277813 19.86522388 C182.22628613 23.4349705 182.2110439 27.00450939 182.1953125 30.57421875 C182.1923727 32.77526753 182.19033187 34.97631771 182.18920898 37.17736816 C182.17871436 45.3474334 182.15079205 53.51746873 182.125 61.6875 C182.08375 79.940625 182.0425 98.19375 182 117 C117.155 117.495 117.155 117.495 51 118 C51 176.41 51 234.82 51 295 C58.57496841 289.31877369 61.23248082 286.30255753 64 278 C64.1028371 276.04681943 64.14638524 274.09032585 64.15821838 272.13447571 C64.1680072 270.91029938 64.17779602 269.68612305 64.18788147 268.42485046 C64.19378562 267.06619302 64.19959607 265.70753516 64.20532227 264.34887695 C64.21490123 262.9198783 64.22491132 261.49088249 64.23532104 260.06188965 C64.26237424 256.17997781 64.28338156 252.2980538 64.30332303 248.41609979 C64.32518002 244.3601562 64.35257011 240.30425012 64.37937927 236.24833679 C64.42931004 228.56673391 64.47424745 220.88511021 64.51740164 213.20346659 C64.56677072 204.45867773 64.62169007 195.7139265 64.67708123 186.96917403 C64.79090718 168.97948272 64.89701216 150.98975684 65 133 C81.5 133 98 133 115 133 C115.02505615 136.48143555 115.0501123 139.96287109 115.07592773 143.54980469 C115.15958204 155.08089282 115.24819824 166.6119399 115.33933926 178.14297104 C115.39445192 185.1309426 115.44789595 192.11891925 115.49731445 199.10693359 C115.54505303 205.85671806 115.5975704 212.60645217 115.65294075 219.35617828 C115.67324622 221.9252122 115.69197784 224.49425907 115.70907402 227.06331635 C115.73338155 230.67474524 115.7633972 234.2860866 115.79467773 237.89746094 C115.8004332 238.94835403 115.80618866 239.99924713 115.81211853 241.08198547 C115.87204 247.20923326 116.20086793 253.25823987 116.76863194 259.35988235 C118.62697003 280.56519081 115.58221095 301.31155546 103 319 C100.78646958 321.63386982 98.50754371 324.17181764 96.1484375 326.67578125 C93.95363829 328.99014988 93.95363829 328.99014988 91.953125 331.58984375 C90.20287773 333.74964888 88.49305871 335.46542287 86.375 337.25 C78.26165754 344.16170832 70.48270939 351.36437108 62.95703125 358.91015625 C62.14433273 359.72189804 61.33163422 360.53363983 60.49430847 361.36997986 C58.79323649 363.07037718 57.09340311 364.77201446 55.39477539 366.47485352 C52.81183484 369.06316655 50.22357659 371.64607561 47.63476562 374.22851562 C45.97103335 375.89290854 44.30761121 377.55761154 42.64453125 379.22265625 C41.49897514 380.36517601 41.49897514 380.36517601 40.33027649 381.53077698 C36.21284051 385.66604143 32.25956408 389.88555596 28.46232605 394.31748962 C26.57641834 396.4873609 24.56279257 398.49878332 22.5 400.5 C19.61062158 403.35000018 16.84514906 406.24510633 14.1875 409.3125 C13.34445312 410.27929688 13.34445312 410.27929688 12.484375 411.265625 C11.27675822 412.67662986 10.10199557 414.11570248 8.9375 415.5625 C7 417 7 417 3.8125 416.8125 C1 416 1 416 0 415 C-0.09757776 413.14427422 -0.12371364 411.28477914 -0.12304783 409.42648983 C-0.12503888 408.20879373 -0.12702993 406.99109762 -0.12908131 405.73650163 C-0.12622772 404.36778618 -0.12328211 402.99907092 -0.12025452 401.63035583 C-0.12069009 400.18993726 -0.12156474 398.74951876 -0.12284368 397.30910069 C-0.12509134 393.33220075 -0.12106368 389.35532749 -0.11606562 385.37843096 C-0.11176517 381.0968816 -0.11320726 376.81533387 -0.1139679 372.53378296 C-0.11449339 365.10948261 -0.11134395 357.68519102 -0.10573006 350.26089287 C-0.09761848 339.526476 -0.09500019 328.79206338 -0.09374207 318.05764378 C-0.09155101 300.64365139 -0.08488946 283.22966368 -0.07543945 265.81567383 C-0.06626673 248.89510115 -0.05918521 231.97452974 -0.05493164 215.05395508 C-0.05466892 214.01175634 -0.05440619 212.96955761 -0.05413551 211.8957771 C-0.05283051 206.66760687 -0.0515668 201.43943664 -0.05032361 196.2112664 C-0.03994931 152.80750678 -0.02151011 109.40375581 0 66 C42.9 65.67 85.8 65.34 130 65 C129.67 60.71 129.34 56.42 129 52 C86.43 51.67 43.86 51.34 0 51 C0 34.17 0 17.34 0 0 Z " fill="#FDFDFD" transform="translate(261,42)"/>
<path d="M0 0 C0.71310139 -0.00085442 1.42620277 -0.00170885 2.16091329 -0.00258917 C4.55621955 -0.00423949 6.95145615 0.0012701 9.34675598 0.00672913 C11.06146239 0.00701112 12.77616891 0.00685302 14.49087524 0.00628662 C19.15171651 0.00599912 23.81253215 0.01188818 28.47336745 0.01886058 C33.34207642 0.02510202 38.21078594 0.02569854 43.07949829 0.02688599 C52.30172195 0.02999696 61.52393378 0.03820722 70.74615222 0.04823548 C81.24420666 0.05940385 91.74226166 0.06490889 102.24032056 0.06993091 C123.83806296 0.08039001 145.43578915 0.09873261 167.03352356 0.12025452 C167.03352356 16.95025452 167.03352356 33.78025452 167.03352356 51.12025452 C124.46352356 51.45025452 81.89352356 51.78025452 38.03352356 52.12025452 C37.70352356 56.41025452 37.37352356 60.70025452 37.03352356 65.12025452 C100.88852356 65.61525452 100.88852356 65.61525452 166.03352356 66.12025452 C166.05554895 110.69116468 166.0740208 155.26206974 166.08458889 199.83298379 C166.08583967 205.0891411 166.08713398 210.3452984 166.0884552 215.60145569 C166.08884867 217.17113498 166.08884867 217.17113498 166.08925008 218.77252496 C166.0936072 235.74001661 166.10149497 252.70750488 166.11067636 269.67499452 C166.12001174 287.07154004 166.12557892 304.46808379 166.12761205 321.86463171 C166.12898752 332.60833941 166.13333939 343.35203758 166.14144003 354.09574235 C166.14670607 361.45255599 166.14832818 368.80936468 166.14702494 376.16618007 C166.14638133 380.41734487 166.14740157 384.66849297 166.15272903 388.91965485 C166.15756279 392.80498738 166.15786237 396.69029183 166.15442245 400.57562561 C166.15399674 401.9874785 166.15529268 403.39933309 166.15840674 404.81118261 C166.16237046 406.71782671 166.15968004 408.62448129 166.15657139 410.53112698 C166.15714097 412.12538278 166.15714097 412.12538278 166.15772206 413.75184578 C166.03352356 416.12025452 166.03352356 416.12025452 165.03352356 417.12025452 C162.01360631 417.48122106 160.54480621 417.48817752 158.04133606 415.68666077 C157.42000793 415.0253717 156.79867981 414.36408264 156.15852356 413.68275452 C155.46887512 412.95056702 154.77922668 412.21837952 154.06867981 411.46400452 C151.53620777 408.54753 149.21499284 405.50285341 146.88899231 402.42103577 C143.59661503 398.33848794 139.80485528 394.75535943 136.03352356 391.12025452 C132.89398039 388.05919993 129.93992929 384.90049142 127.03352356 381.62025452 C123.17494954 377.30619958 119.18067682 373.15597805 115.09602356 369.05775452 C114.52819153 368.48541077 113.9603595 367.91306702 113.37532043 367.32337952 C110.48036248 364.35807265 110.48036248 364.35807265 107.03352356 362.12025452 C107.03352356 361.46025452 107.03352356 360.80025452 107.03352356 360.12025452 C106.04352356 359.79025452 105.05352356 359.46025452 104.03352356 359.12025452 C102.49055481 357.55384827 102.49055481 357.55384827 100.84602356 355.55775452 C95.18159895 348.90769628 89.22809554 343.1253049 82.27180481 337.83900452 C76.53492275 333.43371986 71.85281443 329.32660218 68.03352356 323.12025452 C66.74583969 321.40891708 65.4536764 319.70094637 64.15852356 317.99525452 C53.909017 303.90934047 49.82260076 289.23709548 49.90852356 271.99525452 C49.90272278 270.86603577 49.90272278 270.86603577 49.89680481 269.71400452 C49.90419841 265.26305602 50.12977062 260.88359832 50.52204895 256.45033264 C51.36544031 244.8521012 51.27086221 233.22002064 51.34992981 221.59681702 C51.3705354 219.03849479 51.39153273 216.48017569 51.41290283 213.92185974 C51.46216718 207.91225666 51.50752644 201.90263677 51.5509252 195.89298952 C51.60062641 189.04149691 51.65542056 182.19004783 51.71060479 175.33859754 C51.82383993 161.26585731 51.93080196 147.19307514 52.03352356 133.12025452 C59.13597355 133.09498664 66.23841204 133.07742251 73.34089661 133.06532288 C75.75919528 133.06028103 78.17749089 133.05344774 80.59577942 133.04481506 C84.06331639 133.03274295 87.53081322 133.02702488 90.99836731 133.02259827 C92.08689499 133.01743698 93.17542267 133.0122757 94.29693604 133.00695801 C95.79837914 133.00684471 95.79837914 133.00684471 97.33015442 133.00672913 C98.65919044 133.00339821 98.65919044 133.00339821 100.01507568 133 C102.03352356 133.12025452 102.03352356 133.12025452 103.03352356 134.12025452 C103.13131399 135.97071235 103.15816925 137.82493854 103.15809631 139.67797852 C103.16065933 140.88495392 103.16322235 142.09192932 103.16586304 143.33547974 C103.16379275 144.68553169 103.16166999 146.03558357 103.15950012 147.38563538 C103.16089415 148.79811153 103.16279297 150.21058727 103.16516113 151.62306213 C103.16966808 154.67329176 103.17151444 157.7235079 103.17162323 160.77374077 C103.17276201 165.6031117 103.1855911 170.43240589 103.20118713 175.26174927 C103.20375999 176.07650929 103.20633284 176.89126931 103.20898366 177.73071903 C103.2142508 179.39742221 103.21953628 181.06412534 103.22483969 182.7308284 C103.25994087 193.97726631 103.28650821 205.22361083 103.28401184 216.47010803 C103.28241971 224.05027362 103.29854665 231.63017911 103.33471847 239.2102614 C103.35313199 243.2203447 103.36256267 247.22999412 103.35024261 251.2401104 C103.33874378 255.02011951 103.35065279 258.79935505 103.37987709 262.57926178 C103.38960682 264.61458715 103.37481181 266.64998446 103.35906982 268.68527222 C103.44566534 276.39469901 104.16190437 282.9036452 109.03352356 289.12025452 C112.99352356 292.58525452 112.99352356 292.58525452 117.03352356 296.12025452 C117.03352356 237.38025452 117.03352356 178.64025452 117.03352356 118.12025452 C73.80352356 117.79025452 30.57352356 117.46025452 -13.96647644 117.12025452 C-14.04897644 98.90837952 -14.13147644 80.69650452 -14.21647644 61.93275452 C-14.25289246 56.18329407 -14.28930847 50.43383362 -14.326828 44.51014709 C-14.34489441 37.48683167 -14.34489441 37.48683167 -14.34825134 34.19842529 C-14.35439184 31.90278015 -14.36845643 29.60714787 -14.38877869 27.31158447 C-14.41803107 23.83327333 -14.42210144 20.3557502 -14.420578 16.87733459 C-14.43497044 15.85543691 -14.44936287 14.83353922 -14.46419144 13.78067493 C-14.43852787 9.4075998 -14.38834634 6.83292316 -12.12559509 3.01043701 C-8.31276197 -0.32747609 -4.88142705 -0.00351435 0 0 Z " fill="#FDFDFD" transform="translate(70.96647644042969,41.87974548339844)"/>
<path d="M0 0 C0.66 0 1.32 0 2 0 C2 2.31 2 4.62 2 7 C44.57 7.33 87.14 7.66 131 8 C131.02202539 52.57091017 131.04049724 97.14181522 131.05106533 141.71272927 C131.05231611 146.96888658 131.05361042 152.22504388 131.05493164 157.48120117 C131.05532511 159.05088046 131.05532511 159.05088046 131.05572652 160.65227044 C131.06008364 177.61976209 131.06797141 194.58725036 131.0771528 211.55474 C131.08648818 228.95128552 131.09205536 246.34782927 131.09408849 263.7443772 C131.09546396 274.4880849 131.09981583 285.23178307 131.10791647 295.97548784 C131.11318251 303.33230148 131.11480462 310.68911016 131.11350138 318.04592555 C131.11285777 322.29709036 131.11387801 326.54823846 131.11920547 330.79940033 C131.12403923 334.68473286 131.12433881 338.57003732 131.12089889 342.45537109 C131.12047318 343.86722398 131.12176912 345.27907857 131.12488318 346.69092809 C131.1288469 348.59757219 131.12615648 350.50422677 131.12304783 352.41087246 C131.12361741 354.00512827 131.12361741 354.00512827 131.1241985 355.63159126 C131 358 131 358 130 359 C126.98008275 359.36096654 125.51128265 359.367923 123.0078125 357.56640625 C122.38648438 356.90511719 121.76515625 356.24382812 121.125 355.5625 C120.09052734 354.46421875 120.09052734 354.46421875 119.03515625 353.34375 C116.50268421 350.42727548 114.18146928 347.38259889 111.85546875 344.30078125 C108.56309147 340.21823342 104.77133172 336.63510491 101 333 C97.86045683 329.93894541 94.90640573 326.7802369 92 323.5 C88.14142598 319.18594507 84.14715326 315.03572353 80.0625 310.9375 C79.49466797 310.36515625 78.92683594 309.7928125 78.34179688 309.203125 C75.44683892 306.23781813 75.44683892 306.23781813 72 304 C72 303.34 72 302.68 72 302 C71.01 301.67 70.02 301.34 69 301 C67.45703125 299.43359375 67.45703125 299.43359375 65.8125 297.4375 C59.52089558 290.05113003 52.79924765 283.77722048 45 278 C45.99 277.67 46.98 277.34 48 277 C58.66039498 286.86765959 69.09208024 296.93209485 79.34887695 307.21850586 C81.58885186 309.4639158 83.83422696 311.70382839 86.08007812 313.94335938 C87.53417542 315.39811646 88.98796303 316.85318318 90.44140625 318.30859375 C91.09879288 318.96395615 91.7561795 319.61931854 92.43348694 320.29454041 C96.26771879 324.14800131 99.91713592 328.11040805 103.45677185 332.23658752 C105.68936114 334.78771764 108.07422557 337.13130262 110.5 339.5 C113.75941826 342.7052992 116.90685941 345.95738756 119.875 349.4375 C122.35472583 352.33348676 124.83404688 354.82906072 128 357 C128.66 357 129.32 357 130 357 C130 242.16 130 127.32 130 9 C87.1 9 44.2 9 0 9 C0 6.03 0 3.06 0 0 Z " fill="#CBCBCB" transform="translate(106,100)"/>
<path d="M0 0 C0.66 0 1.32 0 2 0 C2.33 5.28 2.66 10.56 3 16 C-39.9 16.33 -82.8 16.66 -127 17 C-127 131.18 -127 245.36 -127 363 C-126.01 363.33 -125.02 363.66 -124 364 C-116.49939825 359.29939664 -110.61359681 351.25250271 -104.9453125 344.58203125 C-104.32398438 343.85371094 -103.70265625 343.12539063 -103.0625 342.375 C-102.51722656 341.72273438 -101.97195313 341.07046875 -101.41015625 340.3984375 C-100 339 -100 339 -98 339 C-97.835 338.319375 -97.67 337.63875 -97.5 336.9375 C-95.64888676 333.31240323 -93.30736384 331.46643688 -90.21484375 328.8828125 C-85.33891755 324.73784526 -80.92711146 320.14496881 -76.8125 315.25 C-73.13854325 310.9693348 -69.02351421 307.23895191 -64.85791016 303.44921875 C-60.4384678 299.42710188 -56.16903135 295.28238869 -52 291 C-51.34 291.33 -50.68 291.66 -50 292 C-50.54821915 292.54599854 -51.09643829 293.09199707 -51.66127014 293.65454102 C-56.85644166 298.82957947 -62.04913075 304.00709072 -67.23912907 309.18731689 C-69.90669882 311.84969364 -72.57517976 314.51114289 -75.24584961 317.17041016 C-77.82869589 319.74229913 -80.40900923 322.31670549 -82.98766899 324.89279175 C-83.96624512 325.86953656 -84.94569294 326.84540894 -85.92607307 327.82034302 C-90.99744782 332.8646929 -95.96219773 337.93712072 -100.60386658 343.38244629 C-102.46221444 345.5355195 -104.45942096 347.52033377 -106.5 349.5 C-109.38937842 352.35000018 -112.15485094 355.24510633 -114.8125 358.3125 C-115.65554688 359.27929688 -115.65554688 359.27929688 -116.515625 360.265625 C-117.72324178 361.67662986 -118.89800443 363.11570248 -120.0625 364.5625 C-122 366 -122 366 -125.1875 365.8125 C-128 365 -128 365 -129 364 C-129.09757776 362.14427422 -129.12371364 360.28477914 -129.12304783 358.42648983 C-129.12503888 357.20879373 -129.12702993 355.99109762 -129.12908131 354.73650163 C-129.12622772 353.36778618 -129.12328211 351.99907092 -129.12025452 350.63035583 C-129.12069009 349.18993726 -129.12156474 347.74951876 -129.12284368 346.30910069 C-129.12509134 342.33220075 -129.12106368 338.35532749 -129.11606562 334.37843096 C-129.11176517 330.0968816 -129.11320726 325.81533387 -129.1139679 321.53378296 C-129.11449339 314.10948261 -129.11134395 306.68519102 -129.10573006 299.26089287 C-129.09761848 288.526476 -129.09500019 277.79206338 -129.09374207 267.05764378 C-129.09155101 249.64365139 -129.08488946 232.22966368 -129.07543945 214.81567383 C-129.06626673 197.89510115 -129.05918521 180.97452974 -129.05493164 164.05395508 C-129.05466892 163.01175634 -129.05440619 161.96955761 -129.05413551 160.8957771 C-129.05283051 155.66760687 -129.0515668 150.43943664 -129.05032361 145.2112664 C-129.03994931 101.80750678 -129.02151011 58.40375581 -129 15 C-86.1 14.67 -43.2 14.34 1 14 C0.67 9.38 0.34 4.76 0 0 Z " fill="#999999" transform="translate(390,93)"/>
<path d="M0 0 C0.33 0 0.66 0 1 0 C1 36.3 1 72.6 1 110 C-63.845 110.495 -63.845 110.495 -130 111 C-130 169.41 -130 227.82 -130 288 C-129.34 288 -128.68 288 -128 288 C-128.99 289.98 -128.99 289.98 -130 292 C-130.66 292 -131.32 292 -132 292 C-132 231.61 -132 171.22 -132 109 C-88.77 108.67 -45.54 108.34 -1 108 C-0.505 54.54 -0.505 54.54 0 0 Z " fill="#B5B5B5" transform="translate(442,49)"/>
<path d="M0 0 C4.69372594 0.88393385 7.3169565 3.75676407 10.65625 6.9765625 C11.30960327 7.59689362 11.96295654 8.21722473 12.6361084 8.85635376 C19.95580893 15.84223047 27.12928043 22.97839829 34.2734375 30.14306641 C36.52228794 32.39734171 38.77652448 34.64613376 41.03125 36.89453125 C42.48990452 38.3538457 43.94824927 39.81346985 45.40625 41.2734375 C46.06677368 41.93193695 46.72729736 42.5904364 47.40783691 43.26889038 C51.2511058 47.13133517 54.91023727 51.10182122 58.45800781 55.23782349 C60.69008255 57.7886209 63.07464828 60.13171538 65.5 62.5 C69.36584831 66.3075259 73.04609385 70.21418845 76.5625 74.34765625 C78.11085025 76.17319482 78.11085025 76.17319482 80.4375 78.375 C82 80 82 80 82 82 C78.32329416 80.48947977 76.28125538 78.3511385 73.6875 75.375 C72.50027344 74.02728516 72.50027344 74.02728516 71.2890625 72.65234375 C69.92173964 71.06802255 68.56022886 69.47861194 67.2109375 67.87890625 C63.31581593 63.29152374 59.13132989 59.34893281 54.52734375 55.46875 C52.4545193 53.44398176 50.91776911 51.60382857 49.23828125 49.27734375 C45.68866212 44.41399668 41.53416144 40.27685092 37.25 36.0625 C36.48300781 35.29615234 35.71601563 34.52980469 34.92578125 33.74023438 C31.29968967 29.91893008 31.29968967 29.91893008 27 27 C27 26.34 27 25.68 27 25 C26.01 24.67 25.02 24.34 24 24 C22.45703125 22.43359375 22.45703125 22.43359375 20.8125 20.4375 C14.99931346 13.61279463 8.89628112 7.69335712 1.6875 2.34765625 C1.130625 1.90292969 0.57375 1.45820313 0 1 C0 0.67 0 0.34 0 0 Z " fill="#4F4F4F" transform="translate(151,377)"/>
<path d="M0 0 C0.99 0.495 0.99 0.495 2 1 C1.45178085 1.54599854 0.90356171 2.09199707 0.33872986 2.65454102 C-4.85644166 7.82957947 -10.04913075 13.00709072 -15.23912907 18.18731689 C-17.90669882 20.84969364 -20.57517976 23.51114289 -23.24584961 26.17041016 C-25.82869589 28.74229913 -28.40900923 31.31670549 -30.98766899 33.89279175 C-31.96624512 34.86953656 -32.94569294 35.84540894 -33.92607307 36.82034302 C-38.99744782 41.8646929 -43.96219773 46.93712072 -48.60386658 52.38244629 C-50.46221444 54.5355195 -52.45942096 56.52033377 -54.5 58.5 C-57.38583131 61.34166042 -60.12095632 64.23194665 -62.75 67.3125 C-65.26810369 70.2532225 -67.85398388 72.71198828 -71 75 C-69.58749628 71.81954562 -67.88722945 69.60434662 -65.48046875 67.1015625 C-64.78759766 66.37453125 -64.09472656 65.6475 -63.38085938 64.8984375 C-62.65705078 64.14820313 -61.93324219 63.39796875 -61.1875 62.625 C-59.76268909 61.13958628 -58.33947783 59.65263631 -56.91796875 58.1640625 C-55.90549072 57.10493652 -55.90549072 57.10493652 -54.87255859 56.02441406 C-53.20448849 54.22107153 -51.64716713 52.37815412 -50.11328125 50.4609375 C-49.41589844 49.64882813 -48.71851563 48.83671875 -48 48 C-47.34 48 -46.68 48 -46 48 C-45.835 47.319375 -45.67 46.63875 -45.5 45.9375 C-43.64888676 42.31240323 -41.30736384 40.46643688 -38.21484375 37.8828125 C-33.33891755 33.73784526 -28.92711146 29.14496881 -24.8125 24.25 C-21.13854325 19.9693348 -17.02351421 16.23895191 -12.85791016 12.44921875 C-8.4384678 8.42710188 -4.16903135 4.28238869 0 0 Z " fill="#4C4C4C" transform="translate(338,384)"/>
<path d="M0 0 C-1.07401108 2.91517292 -1.77810176 4.77810176 -4 7 C-4.31322424 8.98861067 -4.31322424 8.98861067 -4.2784729 11.30264282 C-4.28963638 12.20570663 -4.30079987 13.10877045 -4.31230164 14.03919983 C-4.31446182 15.0325383 -4.31662201 16.02587677 -4.31884766 17.04931641 C-4.32889328 18.09324051 -4.3389389 19.13716461 -4.34928894 20.21272278 C-4.38026859 23.67566356 -4.39719712 27.13852653 -4.4140625 30.6015625 C-4.43276225 32.99767737 -4.45233475 35.39378558 -4.4727478 37.78988647 C-4.52420096 44.10603922 -4.56375602 50.42221336 -4.60089111 56.73846436 C-4.64084829 63.17986395 -4.69197832 69.6211736 -4.7421875 76.0625 C-4.83910282 88.70826913 -4.92383666 101.35408974 -5 114 C-5.33 114 -5.66 114 -6 114 C-6.09348117 99.87458436 -6.16373161 85.74921675 -6.20724869 71.62355518 C-6.22813351 65.06460157 -6.2564682 58.50585559 -6.30175781 51.94702148 C-6.34518257 45.61873518 -6.36913036 39.29064875 -6.37950897 32.96222496 C-6.38690631 30.54645325 -6.40135136 28.13069262 -6.42292023 25.71500587 C-6.45190843 22.33425788 -6.45595778 18.95433838 -6.45410156 15.57348633 C-6.46848267 14.57223221 -6.48286377 13.57097809 -6.49768066 12.53938293 C-6.47151361 8.14216765 -6.40515532 5.67281962 -4.09661865 1.8391571 C-2 0 -2 0 0 0 Z " fill="#F1F1F1" transform="translate(63,43)"/>
<path d="M0 0 C0 4.35663374 -2.69956427 6.26853373 -5.5625 9.25 C-6.38850708 10.12724731 -6.38850708 10.12724731 -7.23120117 11.0222168 C-10.56062809 14.5436601 -13.9534121 17.99412206 -17.41796875 21.3828125 C-19.24258921 23.24798008 -20.92916822 25.20479303 -22.625 27.1875 C-25.18866417 30.16783193 -27.80579753 32.67694366 -31 35 C-29.58749628 31.81954562 -27.88722945 29.60434662 -25.48046875 27.1015625 C-24.44116211 26.01101563 -24.44116211 26.01101563 -23.38085938 24.8984375 C-22.65705078 24.14820313 -21.93324219 23.39796875 -21.1875 22.625 C-19.76268909 21.13958628 -18.33947783 19.65263631 -16.91796875 18.1640625 C-16.2429834 17.45797852 -15.56799805 16.75189453 -14.87255859 16.02441406 C-13.20448849 14.22107153 -11.64716713 12.37815412 -10.11328125 10.4609375 C-9.41589844 9.64882813 -8.71851563 8.83671875 -8 8 C-7.34 8 -6.68 8 -6 8 C-5.7525 7.236875 -5.505 6.47375 -5.25 5.6875 C-3.89004442 2.7635955 -2.68414174 1.69995644 0 0 Z " fill="#5F5F5F" transform="translate(298,424)"/>
<path d="M0 0 C3.86473719 1.28824573 4.93622873 3.12791348 7.4375 6.3125 C9.63311512 9.09509852 11.74775555 11.75379217 14.28515625 14.23046875 C16 16 16 16 16 18 C11.8203663 16.45198752 9.63657062 13.41034678 7 10 C6.38125 9.22140625 5.7625 8.4428125 5.125 7.640625 C0 1.15171371 0 1.15171371 0 0 Z " fill="#464646" transform="translate(135,359)"/>
<path d="M0 0 C-1.07401108 2.91517292 -1.77810176 4.77810176 -4 7 C-4.36952049 9.12860662 -4.36952049 9.12860662 -4.4140625 11.5703125 C-4.45273437 12.46621094 -4.49140625 13.36210938 -4.53125 14.28515625 C-4.5621875 15.22230469 -4.593125 16.15945312 -4.625 17.125 C-4.66367187 18.06988281 -4.70234375 19.01476562 -4.7421875 19.98828125 C-4.83661346 22.32532375 -4.92218394 24.66235501 -5 27 C-5.33 27 -5.66 27 -6 27 C-6.11654436 23.4377769 -6.1873639 19.87604658 -6.25 16.3125 C-6.28351562 15.30509766 -6.31703125 14.29769531 -6.3515625 13.25976562 C-6.45051389 5.76419814 -6.45051389 5.76419814 -4.109375 1.79296875 C-2 0 -2 0 0 0 Z " fill="#CACACA" transform="translate(63,43)"/>
<path d="M0 0 C0.66 0 1.32 0 2 0 C-0.13766171 7.244298 -3.22684019 13.46718285 -7 20 C-7.78821819 17.70456573 -8.13558044 16.41991018 -7.37915039 14.07714844 C-7.03875732 13.4277832 -6.69836426 12.77841797 -6.34765625 12.109375 C-5.98349609 11.40039062 -5.61933594 10.69140625 -5.24414062 9.9609375 C-4.85419922 9.23132813 -4.46425781 8.50171875 -4.0625 7.75 C-3.67642578 7.00492187 -3.29035156 6.25984375 -2.89257812 5.4921875 C-1.93909834 3.65585606 -0.97094323 1.82715793 0 0 Z " fill="#989898" transform="translate(372,340)"/>
<path d="M0 0 C3.63061667 1.53218685 5.9863773 3.7183144 8.75 6.5 C9.94882813 7.69109375 9.94882813 7.69109375 11.171875 8.90625 C13 11 13 11 13 13 C9.14073288 11.45098223 6.97240841 9.02912393 4.25 5.9375 C3.45078125 5.03902344 2.6515625 4.14054687 1.828125 3.21484375 C0 1 0 1 0 0 Z " fill="#333333" transform="translate(220,446)"/>
<path d="M0 0 C0 3 0 3 -2.3359375 5.48046875 C-3.34126274 6.39137852 -4.35466684 7.29343306 -5.375 8.1875 C-5.88289063 8.65091797 -6.39078125 9.11433594 -6.9140625 9.59179688 C-10.72884067 13 -10.72884067 13 -13 13 C-12.1875 11.0625 -12.1875 11.0625 -11 9 C-10.01 8.67 -9.02 8.34 -8 8 C-8 7.34 -8 6.68 -8 6 C-7.34 6 -6.68 6 -6 6 C-6 5.34 -6 4.68 -6 4 C-4.03852126 2.61061923 -2.03833424 1.2739589 0 0 Z " fill="#676767" transform="translate(353,371)"/>
<path d="M0 0 C0.33 0.99 0.66 1.98 1 3 C-1.31 5.31 -3.62 7.62 -6 10 C-6.99 9.67 -7.98 9.34 -9 9 C-6.03 6.03 -3.06 3.06 0 0 Z " fill="#5E5E5E" transform="translate(320,401)"/>
<path d="M0 0 C4.13621084 3.3810038 7.81316569 6.66590534 11 11 C8 11 8 11 5.95703125 9.1015625 C5.24933594 8.28429687 4.54164063 7.46703125 3.8125 6.625 C3.09707031 5.81289063 2.38164062 5.00078125 1.64453125 4.1640625 C0 2 0 2 0 0 Z " fill="#696969" transform="translate(194,417)"/>
</svg>
