<?xml version="1.0" encoding="UTF-8"?>
<svg version="1.1" xmlns="http://www.w3.org/2000/svg" width="500" height="500">
<path d="M0 0 C165 0 330 0 500 0 C500 165 500 330 500 500 C335 500 170 500 0 500 C0 335 0 170 0 0 Z " fill="#001427" transform="translate(0,0)"/>
<path d="M0 0 C1.5778125 0.00676758 1.5778125 0.00676758 3.1875 0.01367188 C5.75006221 0.02531989 8.31249877 0.04167447 10.875 0.0625 C12.20469117 6.6459249 13.26420255 13.02430539 13.25 19.75 C13.2497583 20.84779785 13.2497583 20.84779785 13.24951172 21.96777344 C13.1258741 27.79045442 12.02436865 31.24581854 8.875 36.0625 C8.6275 37.01125 8.38 37.96 8.125 38.9375 C6.875 41.0625 6.875 41.0625 3.125 42.3125 C1.71171775 42.58097297 0.29498399 42.8320875 -1.125 43.0625 C-2.07375 43.26875 -3.0225 43.475 -4 43.6875 C-8.37939943 44.21302793 -12.71995354 44.14085063 -17.125 44.0625 C-17.32996094 42.94230469 -17.53492188 41.82210937 -17.74609375 40.66796875 C-18.01811689 39.19529176 -18.29025849 37.72263664 -18.5625 36.25 C-18.69720703 35.51201172 -18.83191406 34.77402344 -18.97070312 34.01367188 C-19.53919737 30.94934924 -20.13809651 28.02321047 -21.125 25.0625 C-8.75 24.0725 -8.75 24.0725 3.875 23.0625 C1.28627901 19.86629762 1.28627901 19.86629762 -1.56103516 19.73779297 C-2.50253418 19.75986816 -3.4440332 19.78194336 -4.4140625 19.8046875 C-5.43757813 19.81886719 -6.46109375 19.83304688 -7.515625 19.84765625 C-8.58296875 19.87730469 -9.6503125 19.90695313 -10.75 19.9375 C-12.86710805 19.98065448 -14.98429988 20.01993445 -17.1015625 20.0546875 C-18.04080566 20.07901855 -18.98004883 20.10334961 -19.94775391 20.12841797 C-22.125 20.0625 -22.125 20.0625 -23.125 19.0625 C-23.22486975 16.21914952 -23.26377881 13.40552837 -23.25 10.5625 C-23.25386719 9.76457031 -23.25773438 8.96664062 -23.26171875 8.14453125 C-23.25160767 2.18910767 -23.25160767 2.18910767 -22.125 1.0625 C-14.81773698 -0.17265202 -7.38485402 -0.06107068 0 0 Z " fill="#F1D38C" transform="translate(196.125,146.9375)"/>
<path d="M0 0 C0.66279748 1.30401551 1.30413862 2.61893627 1.9375 3.9375 C2.29714844 4.66839844 2.65679687 5.39929688 3.02734375 6.15234375 C4 9 4 9 5 18 C-0.94 18.99 -6.88 19.98 -13 21 C-6.73 21.33 -0.46 21.66 6 22 C7.49341703 24.98683407 7.13175178 27.74399774 7.125 31.0625 C7.12886719 32.96708984 7.12886719 32.96708984 7.1328125 34.91015625 C7 38 7 38 6 39 C1.52668042 39.25380234 -2.9578346 39.18522721 -7.4375 39.1875 C-8.70400391 39.19974609 -9.97050781 39.21199219 -11.27539062 39.22460938 C-12.48259766 39.22654297 -13.68980469 39.22847656 -14.93359375 39.23046875 C-16.6050647 39.23663208 -16.6050647 39.23663208 -18.31030273 39.24291992 C-21 39 -21 39 -23 37 C-23.45483398 35.11157227 -23.45483398 35.11157227 -23.74609375 32.81640625 C-23.85977295 31.97561523 -23.97345215 31.13482422 -24.09057617 30.26855469 C-24.20506104 29.37555664 -24.3195459 28.48255859 -24.4375 27.5625 C-25.45172468 20.19373978 -26.70472581 13.09744358 -29 6 C-25.44778991 3.63185994 -21.9700339 2.8240372 -17.875 1.875 C-17.11324463 1.69614258 -16.35148926 1.51728516 -15.56665039 1.33300781 C-10.26440302 0.14555772 -5.44561034 -0.39604439 0 0 Z " fill="#ECCF89" transform="translate(310,160)"/>
<path d="M0 0 C4.85550912 3.35587919 8.75269027 7.36741807 10.88671875 12.93359375 C11.77158588 17.99221471 11.50411418 21.69880288 9.19921875 26.30859375 C5.51741613 30.48793726 1.41555963 34.38181136 -4.26171875 35.26953125 C-9.74116392 35.36566187 -12.81102651 34.63553388 -17.11328125 30.93359375 C-22.32283829 25.14519703 -23.74802705 20.73507889 -23.625 12.984375 C-22.77098586 7.89288614 -20.03138207 5.10463275 -16.11328125 1.93359375 C-11.07511743 -1.49664545 -5.58357313 -2.81758866 0 0 Z " fill="#EACD89" transform="translate(235.11328125,173.06640625)"/>
<path d="M0 0 C4.1422192 2.36114664 7.06816673 4.92795639 8.8125 9.4375 C9.64764761 14.9435617 9.51316566 19.68583584 7.4375 24.875 C2.79924954 29.40281592 -2.43385522 31.96273366 -8.8125 33.0625 C-14.61053186 31.9887904 -18.65191179 29.09121038 -22.625 24.8125 C-25.79014249 20.00148341 -25.9176784 15.02421381 -25.1875 9.4375 C-23.09929018 4.26576539 -19.32516972 1.27859138 -14.29296875 -0.90234375 C-9.15169531 -2.51435713 -4.92838045 -2.13593974 0 0 Z " fill="#E7CA87" transform="translate(271.1875,351.5625)"/>
<path d="M0 0 C-2.75543861 10.01977676 -9.39086704 19.03362515 -18.1484375 24.61328125 C-26.86325522 28.85130904 -37.37528265 30.63963617 -47 31 C-48.62615234 31.07734375 -48.62615234 31.07734375 -50.28515625 31.15625 C-60.97531408 31.44549892 -60.97531408 31.44549892 -66 28 C-64.99072711 25.24269633 -64.3011743 24.1714747 -61.71185303 22.69723511 C-60.75732239 22.32132233 -59.80279175 21.94540955 -58.81933594 21.55810547 C-57.73771179 21.12440643 -56.65608765 20.6907074 -55.54168701 20.24386597 C-54.36777405 19.78956207 -53.19386108 19.33525818 -51.984375 18.8671875 C-50.78065247 18.38927765 -49.57692993 17.9113678 -48.33673096 17.41897583 C-45.13475358 16.1481283 -41.92637785 14.89426593 -38.7164917 13.64355469 C-36.10869149 12.62436041 -33.50548856 11.59373574 -30.90249252 10.5623455 C-25.50576987 8.42399991 -20.10535082 6.29505977 -14.69824219 4.18310547 C-13.74052917 3.80878387 -12.78281616 3.43446228 -11.79608154 3.04879761 C-3.66802456 0 -3.66802456 0 0 0 Z " fill="#EDCF8A" transform="translate(306,412)"/>
<path d="M0 0 C2.8125 1.875 2.8125 1.875 5 5 C5.88240434 10.99674785 5.25541715 15.36145713 3 21 C-10.86 21 -24.72 21 -39 21 C-40.32229189 18.35541621 -40.09677194 16.32238699 -40.0625 13.375 C-40.05347656 12.37210938 -40.04445312 11.36921875 -40.03515625 10.3359375 C-40.02355469 9.56507812 -40.01195312 8.79421875 -40 8 C-32.92987873 4.91431148 -26.32234029 3.49471819 -18.71948242 2.72583008 C-15.00851225 2.32766879 -11.75651692 1.76055257 -8.3125 0.3125 C-4.78215827 -1.08631465 -3.45853833 -1.49558414 0 0 Z " fill="#EDD08A" transform="translate(212,116)"/>
<path d="M0 0 C4.57142857 7.28571429 4.57142857 7.28571429 4 12 C2.58603098 12.50757862 1.16868271 13.00574925 -0.25 13.5 C-1.03890625 13.7784375 -1.8278125 14.056875 -2.640625 14.34375 C-5.77125868 15.21452228 -8.76974785 15 -12 15 C-12.99 17.475 -12.99 17.475 -14 20 C-12.24871182 19.71617054 -10.49899997 19.42260471 -8.75 19.125 C-7.77546875 18.96257812 -6.8009375 18.80015625 -5.796875 18.6328125 C-3.20980163 18.04746908 -1.34061021 17.19014079 1 16 C4.25 15.875 4.25 15.875 7 16 C10.52529183 24.66634241 10.52529183 24.66634241 10 29 C8.50412092 30.49587908 7.08454097 30.29733629 5 30.5 C3.7934375 30.62375 3.7934375 30.62375 2.5625 30.75 C0.85416667 30.91666667 -0.85416667 31.08333333 -2.5625 31.25 C-3.7690625 31.37375 -3.7690625 31.37375 -5 31.5 C-5.7425 31.5721875 -6.485 31.644375 -7.25 31.71875 C-9.02383001 31.8285148 -9.02383001 31.8285148 -10 33 C-11.51928038 33.07179964 -13.04167482 33.08392007 -14.5625 33.0625 C-15.38878906 33.05347656 -16.21507812 33.04445312 -17.06640625 33.03515625 C-17.70449219 33.02355469 -18.34257812 33.01195312 -19 33 C-19.21914063 32.48953125 -19.43828125 31.9790625 -19.6640625 31.453125 C-22.17768748 25.69017993 -24.94531755 20.09112961 -27.828125 14.50390625 C-29 12 -29 12 -29 10 C-25.11030393 8.3187427 -21.21233129 6.6575963 -17.3125 5 C-15.65831055 4.28457031 -15.65831055 4.28457031 -13.97070312 3.5546875 C-12.90400391 3.10351562 -11.83730469 2.65234375 -10.73828125 2.1875 C-9.75899658 1.76855469 -8.77971191 1.34960938 -7.77075195 0.91796875 C-4.98994341 -0.00333182 -2.90487755 -0.18546704 0 0 Z " fill="#EDCF8A" transform="translate(297,123)"/>
<path d="M0 0 C0.8559375 -0.020625 1.711875 -0.04125 2.59375 -0.0625 C11.90214289 -0.1189145 19.12769907 2.96733223 27.25 7.25 C24.00014658 9.41656894 22.37394783 9.65634017 18.5625 10.125 C13.49893141 10.84038276 8.63714704 11.83989894 3.6875 13.125 C-10.67818524 16.83663258 -24.8840755 19.79951744 -39.75 20.25 C-37.40097192 12.63545392 -30.15113892 9.16520444 -23.53125 5.4375 C-15.34898398 1.22484819 -9.1071631 0.05388854 0 0 Z " fill="#EDD08A" transform="translate(222.75,60.75)"/>
<path d="M0 0 C2.0859375 -0.140625 2.0859375 -0.140625 5.8359375 0.234375 C8.95328474 3.58354062 11.29821209 7.3831312 13.6484375 11.296875 C14.27363281 12.31910156 14.89882812 13.34132812 15.54296875 14.39453125 C16.8359375 17.234375 16.8359375 17.234375 16.75390625 19.4453125 C15.61215567 21.6705115 14.45062032 22.48386497 12.3359375 23.796875 C9.21356374 25.72609723 9.21356374 25.72609723 7.8359375 29.234375 C6.9903125 29.151875 6.1446875 29.069375 5.2734375 28.984375 C1.93033038 29.22751006 0.97302229 29.55305465 -1.7265625 31.234375 C-5.06449359 33.176444 -6.43034573 33.68694673 -10.1640625 33.234375 C-14.02870282 25.50509437 -12.8713524 11.7218538 -12.1640625 3.234375 C-8.87139988 -0.05828762 -4.42497929 0.47923963 0 0 Z " fill="#EFD18A" transform="translate(236.1640625,126.765625)"/>
<path d="M0 0 C1.20849609 0.00644531 2.41699219 0.01289063 3.66210938 0.01953125 C5.55606445 0.04466797 5.55606445 0.04466797 7.48828125 0.0703125 C8.76251953 0.07933594 10.03675781 0.08835938 11.34960938 0.09765625 C14.50018752 0.12125609 17.65039108 0.15418056 20.80078125 0.1953125 C20.8277449 1.98689739 20.84716042 3.77859723 20.86328125 5.5703125 C20.87488281 6.56804687 20.88648438 7.56578125 20.8984375 8.59375 C20.80078125 11.1953125 20.80078125 11.1953125 19.80078125 13.1953125 C17.94311523 13.60595703 17.94311523 13.60595703 15.546875 13.828125 C14.69287109 13.91191406 13.83886719 13.99570313 12.95898438 14.08203125 C12.06115234 14.16066406 11.16332031 14.23929688 10.23828125 14.3203125 C8.88573242 14.44986328 8.88573242 14.44986328 7.50585938 14.58203125 C5.27148207 14.79482909 3.0366451 14.99885717 0.80078125 15.1953125 C2.07695312 15.43765625 3.353125 15.68 4.66796875 15.9296875 C6.33742175 16.26732968 8.00668304 16.60592076 9.67578125 16.9453125 C10.93841797 17.18121094 10.93841797 17.18121094 12.2265625 17.421875 C13.03222656 17.58945313 13.83789062 17.75703125 14.66796875 17.9296875 C15.41159668 18.07631836 16.15522461 18.22294922 16.92138672 18.37402344 C18.80078125 19.1953125 18.80078125 19.1953125 20.05908203 21.27441406 C20.30384277 21.90831055 20.54860352 22.54220703 20.80078125 23.1953125 C20.14078125 23.1953125 19.48078125 23.1953125 18.80078125 23.1953125 C18.80078125 23.8553125 18.80078125 24.5153125 18.80078125 25.1953125 C19.46078125 25.1953125 20.12078125 25.1953125 20.80078125 25.1953125 C20.80078125 26.8453125 20.80078125 28.4953125 20.80078125 30.1953125 C17.50078125 29.8653125 14.20078125 29.5353125 10.80078125 29.1953125 C10.80078125 28.5353125 10.80078125 27.8753125 10.80078125 27.1953125 C11.46078125 26.8653125 12.12078125 26.5353125 12.80078125 26.1953125 C12.80078125 25.8653125 12.80078125 25.5353125 12.80078125 25.1953125 C12.01703125 25.6903125 11.23328125 26.1853125 10.42578125 26.6953125 C7.80078125 28.1953125 7.80078125 28.1953125 5.80078125 28.1953125 C5.65640625 27.5971875 5.51203125 26.9990625 5.36328125 26.3828125 C4.91353735 24.63380846 4.37185784 22.90854227 3.80078125 21.1953125 C5.45078125 20.8653125 7.10078125 20.5353125 8.80078125 20.1953125 C6.49078125 20.1953125 4.18078125 20.1953125 1.80078125 20.1953125 C1.80078125 20.8553125 1.80078125 21.5153125 1.80078125 22.1953125 C1.14078125 22.5253125 0.48078125 22.8553125 -0.19921875 23.1953125 C0.46078125 24.5153125 1.12078125 25.8353125 1.80078125 27.1953125 C0.15503559 27.22219401 -1.49083288 27.24165373 -3.13671875 27.2578125 C-4.05324219 27.26941406 -4.96976562 27.28101563 -5.9140625 27.29296875 C-8.19921875 27.1953125 -8.19921875 27.1953125 -9.19921875 26.1953125 C-9.47933059 22.2232418 -9.43101051 18.23858834 -9.44921875 14.2578125 C-9.46984375 13.13439453 -9.49046875 12.01097656 -9.51171875 10.85351562 C-9.516875 9.78166016 -9.52203125 8.70980469 -9.52734375 7.60546875 C-9.53668945 6.61683838 -9.54603516 5.62820801 -9.55566406 4.60961914 C-9.43803711 3.81289795 -9.32041016 3.01617676 -9.19921875 2.1953125 C-5.6590865 -0.16477567 -4.1879992 -0.03932394 0 0 Z " fill="#EBCE89" transform="translate(297.19921875,206.8046875)"/>
<path d="M0 0 C0.72896484 -0.03287109 1.45792969 -0.06574219 2.20898438 -0.09960938 C4.33984375 -0.12109375 4.33984375 -0.12109375 8.0625 0.4375 C9.9921875 2.84375 9.9921875 2.84375 11.0625 5.4375 C11.454375 6.076875 11.84625 6.71625 12.25 7.375 C13.76033632 11.20893066 13.34135557 14.60093329 12.0625 18.4375 C12.7225 18.4375 13.3825 18.4375 14.0625 18.4375 C14.3925 17.4475 14.7225 16.4575 15.0625 15.4375 C16.40462062 16.53096881 17.73597975 17.6376575 19.0625 18.75 C19.805 19.36488281 20.5475 19.97976563 21.3125 20.61328125 C23.0625 22.4375 23.0625 22.4375 23.0625 25.4375 C19.56930305 26.9331038 16.06691991 28.40590794 12.5625 29.875 C11.08910156 30.50631836 11.08910156 30.50631836 9.5859375 31.15039062 C3.99116076 33.4815476 -0.87919565 35.04082531 -6.9375 35.4375 C-8.5287689 30.564239 -9.14942221 26.62959404 -8.9375 21.4375 C-5.38246838 19.94269694 -1.85165112 18.80028704 1.875 17.8125 C2.85082031 17.55210937 3.82664063 17.29171875 4.83203125 17.0234375 C5.56808594 16.83007812 6.30414063 16.63671875 7.0625 16.4375 C7.0625 15.1175 7.0625 13.7975 7.0625 12.4375 C6.4025 12.4375 5.7425 12.4375 5.0625 12.4375 C5.0625 11.7775 5.0625 11.1175 5.0625 10.4375 C7.5375 10.9325 7.5375 10.9325 10.0625 11.4375 C10.0625 10.1175 10.0625 8.7975 10.0625 7.4375 C9.4025 7.4375 8.7425 7.4375 8.0625 7.4375 C7.7325 8.0975 7.4025 8.7575 7.0625 9.4375 C6.0625 6.4375 6.0625 6.4375 6.0625 5.4375 C5.4025 5.1075 4.7425 4.7775 4.0625 4.4375 C4.0625 3.7775 4.0625 3.1175 4.0625 2.4375 C3.4025 2.4375 2.7425 2.4375 2.0625 2.4375 C2.3925 5.0775 2.7225 7.7175 3.0625 10.4375 C2.0725 10.9325 2.0725 10.9325 1.0625 11.4375 C1.0625 8.7975 1.0625 6.1575 1.0625 3.4375 C0.0725 4.0975 -0.9175 4.7575 -1.9375 5.4375 C-1.2775 6.7575 -0.6175 8.0775 0.0625 9.4375 C-1.9175 10.4275 -1.9175 10.4275 -3.9375 11.4375 C-3.9375 12.0975 -3.9375 12.7575 -3.9375 13.4375 C-2.9475 13.7675 -1.9575 14.0975 -0.9375 14.4375 C-5.3925 14.9325 -5.3925 14.9325 -9.9375 15.4375 C-9.99136629 13.31277424 -10.03023071 11.18766348 -10.0625 9.0625 C-10.08570313 7.87914062 -10.10890625 6.69578125 -10.1328125 5.4765625 C-9.72546724 -0.86172981 -5.14543537 0.04072904 0 0 Z " fill="#E7CA87" transform="translate(217.9375,371.5625)"/>
<path d="M0 0 C6.1819257 -0.4495946 11.68409139 0.38732256 17.6875 1.75 C18.41187256 1.90694336 19.13624512 2.06388672 19.88256836 2.22558594 C24.57216202 3.34622728 28.25388542 4.81432776 32 8 C32 9.32 32 10.64 32 12 C30.2421875 13.640625 30.2421875 13.640625 27.875 15.25 C23.75534327 18.22674256 21.13643998 21.18239546 18.484375 25.49609375 C17 27 17 27 14.328125 27.22265625 C13.55984375 27.14917969 12.7915625 27.07570313 12 27 C11.67 25.02 11.34 23.04 11 21 C14.08809695 19.23537317 15.23312136 19 19 19 C19 18.34 19 17.68 19 17 C17.35 17 15.7 17 14 17 C15.32 16.34 16.64 15.68 18 15 C18 14.34 18 13.68 18 13 C16.35 13.66 14.7 14.32 13 15 C13 15.66 13 16.32 13 17 C10.69 16.34 8.38 15.68 6 15 C6.7115625 14.38125 6.7115625 14.38125 7.4375 13.75 C9.17203947 11.80731579 9.65877936 10.55915481 10 8 C9.67 7.67 9.34 7.34 9 7 C8.690625 7.804375 8.38125 8.60875 8.0625 9.4375 C7 12 7 12 6 13 C3.32941149 13.14115161 0.67567762 13.04247107 -2 13 C-2.05447047 11.58376784 -2.09300508 10.16691809 -2.125 8.75 C-2.14820313 7.96109375 -2.17140625 7.1721875 -2.1953125 6.359375 C-1.9828378 3.79268059 -1.28654105 2.2083933 0 0 Z " fill="#ECCE89" transform="translate(213,326)"/>
<path d="M0 0 C3.66826844 5.50240266 3.1387234 12.02887125 3.0625 18.4375 C3.05798828 19.16904297 3.05347656 19.90058594 3.04882812 20.65429688 C3.03718148 22.43623419 3.01925191 24.21812863 3 26 C-16.06423092 26.32619407 -16.06423092 26.32619407 -22 23 C-21 20 -21 20 -18 18 C-15.68570337 14.9736121 -14.84209707 12.59701617 -14.5 8.875 C-14 5 -14 5 -12.8125 3.125 C-8.87542661 0.68129927 -4.62779948 -0.64274993 0 0 Z " fill="#EACD89" transform="translate(267,187)"/>
<path d="M0 0 C4.12964557 2.07957152 4.7270147 6.37941767 6.18359375 10.51171875 C7.54263069 15.37146565 8.07654606 20.06828848 8.1875 25.1015625 C4.38025027 27.00518736 0.30018194 26.9780357 -3.8125 26.1015625 C-6.74180129 23.83354968 -8.89346056 21.26607125 -10.8125 18.1015625 C-10.8125 17.4415625 -10.8125 16.7815625 -10.8125 16.1015625 C-11.39 15.8334375 -11.9675 15.5653125 -12.5625 15.2890625 C-14.8450868 14.08436391 -16.7862942 12.69358135 -18.8125 11.1015625 C-17.3919659 6.83996021 -14.32872586 5.83751964 -10.5625 3.8515625 C-9.89347656 3.47515625 -9.22445312 3.09875 -8.53515625 2.7109375 C-5.54592784 1.11355022 -3.41984576 0.12349443 0 0 Z " fill="#EBCE89" transform="translate(256.8125,154.8984375)"/>
<path d="M0 0 C0.495 2.475 0.495 2.475 1 5 C-2.46282162 7.30854775 -3.94906499 7.17238021 -8 7 C-10.32357511 6.81509993 -10.32357511 6.81509993 -13 9 C-15.6875 9.125 -15.6875 9.125 -18 9 C-18 8.34 -18 7.68 -18 7 C-18.66 7 -19.32 7 -20 7 C-20.33 7.99 -20.66 8.98 -21 10 C-23.5625 11.6875 -23.5625 11.6875 -26 13 C-23.72923158 13.02699725 -21.45837179 13.04639453 -19.1875 13.0625 C-17.29064453 13.07990234 -17.29064453 13.07990234 -15.35546875 13.09765625 C-12.00394763 13.16159116 -12.00394763 13.16159116 -9 12 C-7.27204648 11.93197033 -5.54164635 11.91504355 -3.8125 11.9375 C-2.91144531 11.94652344 -2.01039063 11.95554687 -1.08203125 11.96484375 C-0.39496094 11.97644531 0.29210937 11.98804688 1 12 C0.67 13.32 0.34 14.64 0 16 C-3.90619985 17.25556424 -6.36822084 16.81588958 -10 15 C-10 15.99 -10 16.98 -10 18 C-11.65 18 -13.3 18 -15 18 C-15 18.66 -15 19.32 -15 20 C-16.98 19.67 -18.96 19.34 -21 19 C-21.99 20.32 -22.98 21.64 -24 23 C-27.25666272 22.43850643 -28.95623323 21.62770014 -31 19 C-32.15315701 15.57948697 -32.10148496 12.33661604 -32.0625 8.75 C-32.04896484 7.13351562 -32.04896484 7.13351562 -32.03515625 5.484375 C-32.02355469 4.66453125 -32.01195312 3.8446875 -32 3 C-29.66015775 1.83007888 -28.1082438 1.81573375 -25.5 1.71875 C-24.613125 1.68136719 -23.72625 1.64398438 -22.8125 1.60546875 C-20.9375 1.53515625 -19.0625 1.46484375 -17.1875 1.39453125 C-16.300625 1.35714844 -15.41375 1.31976563 -14.5 1.28125 C-13.6853125 1.25095703 -12.870625 1.22066406 -12.03125 1.18945312 C-7.79714355 0.79454127 -4.51751738 -0.07286318 0 0 Z " fill="#E6CA87" transform="translate(312,328)"/>
<path d="M0 0 C3.73762107 0.75331897 5.35555721 2.45540901 7.515625 5.5078125 C9.16697148 8.79765452 9.23766632 10.91713716 8.51953125 14.5078125 C6.70313324 17.46860779 4.67864797 19.92825414 1.51953125 21.5078125 C-3.96004173 22.12547773 -8.10636817 22.55212894 -12.60546875 19.1328125 C-15.54961004 15.0110147 -16.00095446 12.62592201 -15.48046875 7.5078125 C-10.89790712 1.93442673 -7.09682467 -0.14546932 0 0 Z " fill="#07192A" transform="translate(266.48046875,355.4921875)"/>
<path d="M0 0 C0.10892951 1.72774308 0.18601092 3.45750948 0.25 5.1875 C0.29640625 6.15042969 0.3428125 7.11335938 0.390625 8.10546875 C-0.12713304 11.94205583 -1.20622925 13.3250195 -4 16 C-6.54981669 17.52554657 -9.1942967 18.67970957 -11.9375 19.8125 C-12.64068359 20.12380859 -13.34386719 20.43511719 -14.06835938 20.75585938 C-18.20450511 22.51963286 -20.25628969 23 -25 23 C-24.67 17.39 -24.34 11.78 -24 6 C-8.67924528 -0.56603774 -8.67924528 -0.56603774 0 0 Z " fill="#EDCF8A" transform="translate(314,353)"/>
<path d="M0 0 C2.875 2.4375 2.875 2.4375 5 5 C5.33 5.33 5.66 5.66 6 6 C6.51617526 12.09086807 6.05630193 15.13243768 2 20 C-1.1425518 22.09503453 -3.16149992 22.60827634 -6.92578125 22.50390625 C-10.29464183 21.68548249 -11.91174726 19.79776741 -13.92578125 17.06640625 C-15.86483652 13.33636902 -15.72928843 11.17683376 -15 7 C-11.42712732 0.74747281 -7.00804282 -0.72496995 0 0 Z " fill="#0A1C2B" transform="translate(233,179)"/>
<path d="M0 0 C-0.99 0.99 -1.98 1.98 -3 3 C-0.03 3.495 -0.03 3.495 3 4 C2 6 2 6 -0.62890625 7.05859375 C-4.07459898 8.02083239 -7.39196592 8.59629165 -10.9375 9.0625 C-12.10152344 9.21847656 -13.26554687 9.37445313 -14.46484375 9.53515625 C-15.63144531 9.68855469 -16.79804688 9.84195313 -18 10 C-20.33370196 10.3307427 -22.66714575 10.6633301 -25 11 C-24.67 10.01 -24.34 9.02 -24 8 C-23.01 8 -22.02 8 -21 8 C-21 7.34 -21 6.68 -21 6 C-21.5983667 6.14099121 -22.1967334 6.28198242 -22.81323242 6.42724609 C-25.60348527 7.08160098 -28.3954616 7.72830796 -31.1875 8.375 C-32.12787109 8.59671875 -33.06824219 8.8184375 -34.03710938 9.046875 C-40.11344907 10.44752279 -46.17037071 11.51307118 -52.33813477 12.41943359 C-56.61746842 13.09789585 -60.86441608 13.89990485 -65.1171875 14.7265625 C-65.91125504 14.88031342 -66.70532257 15.03406433 -67.52345276 15.19247437 C-70.80916962 15.8302168 -74.09427352 16.47086516 -77.37792969 17.11914062 C-79.81075652 17.59826148 -82.24505566 18.06921245 -84.6796875 18.5390625 C-85.77831619 18.75932602 -85.77831619 18.75932602 -86.8991394 18.98403931 C-91.34898219 19.83598939 -95.46880117 20.13883896 -100 20 C-97.80759817 17.80759817 -96.91804453 17.54965399 -93.984375 16.8515625 C-93.15679687 16.65288574 -92.32921875 16.45420898 -91.4765625 16.24951172 C-90.57679688 16.04342285 -89.67703125 15.83733398 -88.75 15.625 C-87.81414062 15.40730957 -86.87828125 15.18961914 -85.9140625 14.96533203 C-71.2182253 11.61223184 -56.42721233 9.15452995 -41.49462891 7.14624023 C-34.6901309 6.1912343 -28.16396299 4.67650441 -21.52734375 2.91796875 C-14.35943349 1.05256575 -7.41863807 -0.32971725 0 0 Z " fill="#DCC283" transform="translate(276,88)"/>
<path d="M0 0 C-0.33 0.66 -0.66 1.32 -1 2 C-3.06640625 2.4140625 -3.06640625 2.4140625 -5.5625 2.625 C-6.38878906 2.69976562 -7.21507812 2.77453125 -8.06640625 2.8515625 C-9.02353516 2.92503906 -9.02353516 2.92503906 -10 3 C-10 3.66 -10 4.32 -10 5 C-7.36 5 -4.72 5 -2 5 C-2.33 5.66 -2.66 6.32 -3 7 C-3.99 7.33 -4.98 7.66 -6 8 C-5.01 8.66 -4.02 9.32 -3 10 C-3.29757725 13.2733498 -3.69818603 15.53470347 -5.5 18.3125 C-9.11701635 20.75398604 -12.65032876 21.50465799 -17 21 C-19.4375 18.625 -19.4375 18.625 -21 16 C-21.66 15.67 -22.32 15.34 -23 15 C-23 14.01 -23 13.02 -23 12 C-24.9375006 9.81222534 -24.9375006 9.81222534 -27 8 C-24.54855763 5.54855763 -18.10138734 5.53472196 -15 5 C-19.95 5.33 -24.9 5.66 -30 6 C-30 5.34 -30 4.68 -30 4 C-19.79064132 1.33450241 -10.5616052 -0.17188869 0 0 Z " fill="#E9CC88" transform="translate(243,100)"/>
<path d="M0 0 C3.00927957 2.56029292 4.3268475 5.47660951 6 9 C9.5501107 12.5501107 13.51065552 14.2277792 18.109375 16.0703125 C20 17 20 17 21 19 C21.04022391 21.3329866 21.04320247 23.66706666 21 26 C19.35 24.35 17.7 22.7 16 21 C16.66 20.67 17.32 20.34 18 20 C17.07316406 19.43410156 16.14632812 18.86820313 15.19140625 18.28515625 C13.98172588 17.54434424 12.77209291 16.80345482 11.5625 16.0625 C10.95083984 15.68931641 10.33917969 15.31613281 9.70898438 14.93164062 C5.11328125 12.11328125 5.11328125 12.11328125 4 11 C1.04195427 10.66659529 1.04195427 10.66659529 -2 11 C-2.99 12.485 -2.99 12.485 -4 14 C-4.99 13.67 -5.98 13.34 -7 13 C-6.67 12.34 -6.34 11.68 -6 11 C-6.66 11 -7.32 11 -8 11 C-8.66 12.32 -9.32 13.64 -10 15 C-10.66 15 -11.32 15 -12 15 C-12 15.66 -12 16.32 -12 17 C-13.875 16.6875 -13.875 16.6875 -16 16 C-18.20272234 12.69591649 -18.93200726 9.80472414 -20 6 C-20.62469505 4.64649406 -21.2716331 3.30065517 -22 2 C-14.81107573 -0.75201007 -7.54252566 -1.31895475 0 0 Z " fill="#EBCE89" transform="translate(206,200)"/>
<path d="M0 0 C0.2475 1.258125 0.495 2.51625 0.75 3.8125 C1.48837994 6.83557727 1.79382006 7.8059483 4.125 10 C4.74375 10.33 5.3625 10.66 6 11 C6.89130413 8.3260876 7.47731534 5.76276177 8 3 C8.66 3.33 9.32 3.66 10 4 C10.268125 4.804375 10.53625 5.60875 10.8125 6.4375 C11.78464531 9.23329232 11.78464531 9.23329232 14.625 10.3125 C15.40875 10.539375 16.1925 10.76625 17 11 C17 12.32 17 13.64 17 15 C14.77542155 16.01144568 12.54625709 17.00920265 10.3125 18 C9.68666016 18.28617188 9.06082031 18.57234375 8.41601562 18.8671875 C1.87905673 21.74208042 1.87905673 21.74208042 -2 21 C-3.765625 19.3203125 -3.765625 19.3203125 -5.25 17.125 C-5.75015625 16.40570313 -6.2503125 15.68640625 -6.765625 14.9453125 C-9.18625946 11.13051515 -9.31366387 8.54812616 -9 4 C-6.9285531 -0.48813496 -4.68078576 -0.41606985 0 0 Z " fill="#E4C886" transform="translate(257,107)"/>
<path d="M0 0 C-0.99 0.33 -1.98 0.66 -3 1 C-3 1.66 -3 2.32 -3 3 C0.9898809 2.37658111 4.43815415 1.09043267 8.1328125 -0.4765625 C10 -1 10 -1 13 0 C1.83457938 5.20746641 -9.51755305 9.85903633 -21 14.3125 C-21.66685822 14.57252808 -22.33371643 14.83255615 -23.02078247 15.10046387 C-30.59297931 18.0479914 -38.15827357 20.84467843 -46 23 C-43.53258609 20.35892646 -41.42559084 19.20358597 -38 18 C-38 17.34 -38 16.68 -38 16 C-38.84304687 16.30035156 -39.68609375 16.60070312 -40.5546875 16.91015625 C-41.65039062 17.29042969 -42.74609375 17.67070312 -43.875 18.0625 C-44.96554688 18.44535156 -46.05609375 18.82820313 -47.1796875 19.22265625 C-50 20 -50 20 -52 19 C-45.80330604 16.18964739 -39.55307666 13.56763394 -33.22265625 11.07421875 C-32.33009628 10.72237015 -31.43753632 10.37052155 -30.51792908 10.00801086 C-28.65036719 9.2732564 -26.78232417 8.53972375 -24.91381836 7.80737305 C-22.04327401 6.67994887 -19.17698226 5.54212042 -16.31054688 4.40429688 C-14.48983705 3.68945761 -12.66888223 2.97524197 -10.84765625 2.26171875 C-9.98938736 1.91912521 -9.13111847 1.57653168 -8.24684143 1.22355652 C-7.45519089 0.91605972 -6.66354034 0.60856293 -5.84790039 0.29174805 C-5.15112686 0.01735397 -4.45435333 -0.2570401 -3.73646545 -0.53974915 C-2 -1 -2 -1 0 0 Z " fill="#7C765B" transform="translate(289,409)"/>
<path d="M0 0 C8.77522046 -0.3821467 16.62432624 0.21292235 25 3 C26.87643761 4.87643761 26.17984987 7.49805701 26.23046875 9.9921875 C26 12 26 12 24 15 C22.68 14.67 21.36 14.34 20 14 C20.66 14 21.32 14 22 14 C21.67 13.34 21.34 12.68 21 12 C18.67843403 11.59270772 16.3431213 11.25561323 14 11 C13.67 9.68 13.34 8.36 13 7 C12.34 7 11.68 7 11 7 C11.33 8.98 11.66 10.96 12 13 C10.35 13.33 8.7 13.66 7 14 C6.01780373 12.23084525 5.03934641 10.45961431 4.0625 8.6875 C3.51722656 7.70136719 2.97195312 6.71523437 2.41015625 5.69921875 C1 3 1 3 0 0 Z " fill="#EBCE89" transform="translate(244,220)"/>
<path d="M0 0 C0 0.66 0 1.32 0 2 C-0.87922119 2.15557373 -1.75844238 2.31114746 -2.66430664 2.47143555 C-23.67580778 6.16804557 -23.67580778 6.16804557 -44.5625 10.5 C-53.29183157 12.4566715 -62.04822503 14.22946506 -70.83615112 15.90039062 C-72.26262731 16.17206589 -73.68868654 16.44594103 -75.11428833 16.72216797 C-77.11665312 17.10923912 -79.12049311 17.48748074 -81.125 17.86328125 C-82.28257812 18.08282471 -83.44015625 18.30236816 -84.6328125 18.52856445 C-88.13177719 19.01844995 -91.47160134 19.08164472 -95 19 C-92.52220569 16.52220569 -90.90433487 16.331609 -87.50390625 15.5625 C-86.38693359 15.30726562 -85.26996094 15.05203125 -84.11914062 14.7890625 C-82.94544922 14.52867188 -81.77175781 14.26828125 -80.5625 14 C-79.42361328 13.73960938 -78.28472656 13.47921875 -77.11132812 13.2109375 C-58.32836436 8.96304849 -58.32836436 8.96304849 -50.0625 8.5625 C-46.03944494 8.27484364 -42.35022429 7.67775054 -38.45703125 6.6328125 C-31.88995676 4.93839463 -25.28431104 3.58957529 -18.625 2.3125 C-17.48933594 2.08755859 -16.35367188 1.86261719 -15.18359375 1.63085938 C-14.08402344 1.41880859 -12.98445313 1.20675781 -11.8515625 0.98828125 C-10.37937256 0.70271362 -10.37937256 0.70271362 -8.87744141 0.41137695 C-5.88004328 -0.01714976 -3.0236968 -0.07089854 0 0 Z " fill="#D6BD80" transform="translate(272,84)"/>
<path d="M0 0 C-6.20402023 4.13601349 -13.70516037 4.68580108 -20.9375 5.8125 C-29.27766036 7.15521798 -37.55174058 8.67123055 -45.8125 10.4375 C-54.73060911 12.3379711 -63.66331095 14.12852544 -72.625 15.8125 C-73.7694458 16.03156006 -74.9138916 16.25062012 -76.09301758 16.47631836 C-77.1683374 16.67620361 -78.24365723 16.87608887 -79.3515625 17.08203125 C-80.29854004 17.25968018 -81.24551758 17.4373291 -82.22119141 17.62036133 C-85.17936254 18.02450437 -88.01801697 18.06463439 -91 18 C-87.23577717 14.23577717 -81.19054576 13.91746877 -76.125 12.75 C-75.14558945 12.52189636 -75.14558945 12.52189636 -74.14639282 12.28918457 C-59.33806716 8.85940302 -44.38534633 6.3821077 -29.37420654 4.02923584 C-25.6937421 3.44831225 -22.02330021 2.83203949 -18.35791016 2.16210938 C-17.59481033 2.0230719 -16.83171051 1.88403442 -16.04548645 1.74078369 C-14.59513496 1.47415619 -13.1455872 1.20310164 -11.69706726 0.92669678 C-7.7441357 0.19985836 -4.01740798 -0.13272944 0 0 Z " fill="#D7BE81" transform="translate(268,80)"/>
<path d="M0 0 C0.3125 2.25 0.3125 2.25 0 5 C-3.41789314 8.87361222 -7.36745652 9.84690534 -12.17578125 11.140625 C-16.32373017 12.40279479 -20.20323359 14.20796782 -24.140625 16.01171875 C-27.26292781 17.09087532 -29.72026773 17.17951197 -33 17 C-33 15.35 -33 13.7 -33 12 C-27.44412263 9.64897582 -21.88462638 7.30676456 -16.32080078 4.97460938 C-14.42940064 4.18032478 -12.54049809 3.38009487 -10.65234375 2.578125 C-9.79769531 2.22234375 -8.94304687 1.8665625 -8.0625 1.5 C-7.35222656 1.2009375 -6.64195312 0.901875 -5.91015625 0.59375 C-4 0 -4 0 0 0 Z " fill="#EACD88" transform="translate(252,403)"/>
<path d="M0 0 C3 1 3 1 4 3 C8.47883696 2.55296014 8.47883696 2.55296014 12 0 C11.25 4.75 11.25 4.75 9 7 C9.66 7.66 10.32 8.32 11 9 C11.33 9.99 11.66 10.98 12 12 C12.61875 11.814375 13.2375 11.62875 13.875 11.4375 C16 11 16 11 18 12 C17.125 15.875 17.125 15.875 16 17 C13.34177343 17.12658222 10.72112576 17.18520214 8.0625 17.1875 C7.32064453 17.19974609 6.57878906 17.21199219 5.81445312 17.22460938 C3.87486371 17.22988478 1.9357629 17.12188902 0 17 C-2 15 -2 15 -2.265625 12.5390625 C-2.26046875 11.57742188 -2.2553125 10.61578125 -2.25 9.625 C-2.25515625 8.66851562 -2.2603125 7.71203125 -2.265625 6.7265625 C-1.99896864 3.98941342 -1.39742087 2.34012543 0 0 Z " fill="#D9BF81" transform="translate(210,347)"/>
<path d="M0 0 C0.125 3.1875 0.125 3.1875 -1 7 C-4.05357917 9.28859065 -7.47859052 10.57566178 -11 12 C-12.02996094 12.46792969 -13.05992187 12.93585938 -14.12109375 13.41796875 C-19.31422557 15.73251065 -23.22376673 17.4160846 -29 17 C-29.66 16.67 -30.32 16.34 -31 16 C-30.86865234 14.18847656 -30.86865234 14.18847656 -30 12 C-27.45556641 10.44433594 -27.45556641 10.44433594 -24.1015625 8.984375 C-22.90015625 8.45585937 -21.69875 7.92734375 -20.4609375 7.3828125 C-19.83155273 7.11500977 -19.20216797 6.84720703 -18.55371094 6.57128906 C-16.6327468 5.75329876 -14.72230828 4.91397523 -12.8125 4.0703125 C-3.44877617 0 -3.44877617 0 0 0 Z " fill="#E7CB87" transform="translate(313,377)"/>
<path d="M0 0 C0 0.33 0 0.66 0 1 C-1.08007324 1.20681396 -2.16014648 1.41362793 -3.27294922 1.62670898 C-7.27287391 2.39342654 -11.27204426 3.16401685 -15.27099609 3.93579102 C-17.00321386 4.26953445 -18.73563549 4.60222152 -20.46826172 4.93383789 C-22.95594529 5.41015738 -25.44287546 5.8902476 -27.9296875 6.37109375 C-28.70682098 6.51904892 -29.48395447 6.66700409 -30.28463745 6.81944275 C-34.25568721 7.55159326 -34.25568721 7.55159326 -38 9 C-40.33307486 9.27948293 -42.6618305 9.52192573 -45 9.75 C-57.12951956 11.03505003 -69.05422137 13.58907708 -81 16 C-80.505 14.515 -80.505 14.515 -80 13 C-77.48915382 12.2018086 -75.13743352 11.6274328 -72.5625 11.125 C-71.76972656 10.95991943 -70.97695312 10.79483887 -70.16015625 10.62475586 C-67.44328304 10.06590208 -64.72249312 9.53077722 -62 9 C-61.01628418 8.80647949 -60.03256836 8.61295898 -59.01904297 8.41357422 C-52.50637674 7.13660105 -45.98769285 5.89285638 -39.46679688 4.65869141 C-35.89847565 3.98071037 -32.33184378 3.2944192 -28.765625 2.60546875 C-27.59064453 2.37851318 -26.41566406 2.15155762 -25.20507812 1.91772461 C-22.95372014 1.48262963 -20.70241538 1.04725919 -18.45117188 0.61157227 C-15.63514555 0.06878008 -12.81775598 -0.46627999 -10 -1 C-8.81664062 -1.23074219 -7.63328125 -1.46148437 -6.4140625 -1.69921875 C-3.59726815 -2.05017856 -2.34650984 -1.53425644 0 0 Z " fill="#10202D" transform="translate(266,84)"/>
<path d="M0 0 C-2.39015547 2.39015547 -3.64296328 2.52859266 -6.91796875 3.18359375 C-8.4169873 3.48934326 -8.4169873 3.48934326 -9.94628906 3.80126953 C-11.55068848 4.11620361 -11.55068848 4.11620361 -13.1875 4.4375 C-14.2815918 4.65776855 -15.37568359 4.87803711 -16.50292969 5.10498047 C-18.68608216 5.54386829 -20.86983144 5.97979905 -23.05419922 6.41259766 C-25.44711178 6.88975228 -27.83581515 7.38034649 -30.22265625 7.88671875 C-37.8273623 9.47840141 -45.44653389 10.69188557 -53.1328125 11.79858398 C-62.81420478 13.21756872 -72.40302533 15.1018032 -82 17 C-82.33 16.01 -82.66 15.02 -83 14 C-82.45416763 13.89835037 -81.90833527 13.79670074 -81.34596252 13.69197083 C-74.41767339 12.40131784 -67.48993271 11.10774161 -60.5625 9.8125 C-59.46398712 9.60713623 -58.36547424 9.40177246 -57.2336731 9.19018555 C-43.8283928 6.6818888 -30.42846186 4.16108633 -17.07055664 1.40942383 C-3.88480301 -1.29493434 -3.88480301 -1.29493434 0 0 Z " fill="#13232F" transform="translate(271,87)"/>
<path d="M0 0 C-2.63107462 2.63107462 -4.51805241 2.66375122 -8.16796875 3.33203125 C-9.44220703 3.57066895 -10.71644531 3.80930664 -12.02929688 4.05517578 C-12.70726318 4.17862366 -13.38522949 4.30207153 -14.08374023 4.42926025 C-17.63562693 5.07630379 -21.18289618 5.74774101 -24.73046875 6.41796875 C-25.44113495 6.5516687 -26.15180115 6.68536865 -26.88400269 6.82312012 C-32.94996918 7.97188137 -38.97670296 9.27051687 -45 10.625 C-52.84517251 12.37194893 -60.70865394 13.92189186 -68.625 15.3125 C-70.07519531 15.56990967 -70.07519531 15.56990967 -71.5546875 15.83251953 C-72.45703125 15.9870459 -73.359375 16.14157227 -74.2890625 16.30078125 C-75.08006348 16.43653564 -75.87106445 16.57229004 -76.68603516 16.7121582 C-79.14623101 17.01819016 -81.52337561 17.04907192 -84 17 C-83 15 -83 15 -80.28125 14.0703125 C-70.82273382 11.70568346 -61.36589124 10.03854358 -51.72802734 8.57519531 C-42.46751716 7.14320082 -33.36121272 5.22430297 -24.2265625 3.1484375 C-16.11683698 1.32924744 -8.33700478 -0.31460395 0 0 Z " fill="#D9BF81" transform="translate(262,76)"/>
<path d="M0 0 C3.49537522 2.87397518 6.68196511 5.87976738 7.375 10.5 C7 13 7 13 5.25 14.8125 C3 16 3 16 -1 16 C-1 15.01 -1 14.02 -1 13 C-2.32 13 -3.64 13 -5 13 C-5.66 12.34 -6.32 11.68 -7 11 C-7.66 11 -8.32 11 -9 11 C-9 9.68 -9 8.36 -9 7 C-8.34 6.67 -7.68 6.34 -7 6 C-8.32 5.67 -9.64 5.34 -11 5 C-9.12119543 -0.63641371 -5.34241143 -0.64477379 0 0 Z " fill="#EDCF8A" transform="translate(284,101)"/>
<path d="M0 0 C-0.33 0.66 -0.66 1.32 -1 2 C-3.72680664 2.77441406 -3.72680664 2.77441406 -7.41015625 3.515625 C-8.07713531 3.65207932 -8.74411438 3.78853363 -9.43130493 3.92912292 C-11.64001577 4.37828744 -13.85105227 4.8145261 -16.0625 5.25 C-17.59294182 5.55693955 -19.12329578 5.86431752 -20.65356445 6.17211914 C-24.63672424 6.96971647 -28.62238141 7.75396251 -32.60925293 8.53277588 C-34.95114981 8.9904532 -37.29250135 9.45083905 -39.63378906 9.91162109 C-43.29070234 10.62971519 -46.94930586 11.33847128 -50.60958862 12.03918457 C-51.98470797 12.30278159 -53.35949165 12.56813637 -54.73391724 12.83532715 C-56.65857127 13.20808588 -58.58511868 13.57102739 -60.51171875 13.93359375 C-61.59928467 14.14040771 -62.68685059 14.34722168 -63.80737305 14.56030273 C-67.24110199 15.03320522 -70.53815081 15.07456291 -74 15 C-70.71649458 13.14981005 -67.58806218 12.35679562 -63.90625 11.59765625 C-62.111875 11.22157227 -62.111875 11.22157227 -60.28125 10.83789062 C-59.0334375 10.58201172 -57.785625 10.32613281 -56.5 10.0625 C-48.56663534 8.41952035 -40.68253057 6.69950041 -32.83154297 4.69848633 C-28.35197776 3.59346511 -23.84233951 2.68453652 -19.3125 1.8125 C-18.44044922 1.63525391 -17.56839844 1.45800781 -16.66992188 1.27539062 C-11.01168648 0.18256216 -5.76241649 -0.16931112 0 0 Z " fill="#E6CA87" transform="translate(256,72)"/>
<path d="M0 0 C-0.33 0.99 -0.66 1.98 -1 3 C-14.29772615 5.72515071 -27.60070494 8.33408972 -40.98291016 10.61132812 C-48.6877569 11.92728508 -56.34820021 13.40436403 -64 15 C-60.78532384 11.14604445 -58.3143613 10.30144205 -53.41796875 9.47265625 C-52.77501862 9.35853897 -52.13206848 9.24442169 -51.46963501 9.12684631 C-49.3777652 8.75800747 -47.28293329 8.41046217 -45.1875 8.0625 C-42.28784154 7.55763759 -39.3900954 7.04214568 -36.4921875 6.52734375 C-35.40908043 6.33730774 -35.40908043 6.33730774 -34.30409241 6.14343262 C-26.81587994 4.81875734 -19.40284457 3.18736984 -11.99487305 1.47290039 C-11.13676025 1.27817139 -10.27864746 1.08344238 -9.39453125 0.8828125 C-8.66081299 0.71152832 -7.92709473 0.54024414 -7.17114258 0.36376953 C-4.74855193 -0.0421295 -2.45194215 -0.06079418 0 0 Z " fill="#11222E" transform="translate(254,79)"/>
<path d="M0 0 C1.96102954 0.22788722 3.91890505 0.48305057 5.875 0.75 C6.96554687 0.88921875 8.05609375 1.0284375 9.1796875 1.171875 C12 2 12 2 13.3828125 4.078125 C13.58648437 4.71234375 13.79015625 5.3465625 14 6 C13.34 6 12.68 6 12 6 C12 6.66 12 7.32 12 8 C12.66 8 13.32 8 14 8 C14 9.65 14 11.3 14 13 C10.7 12.67 7.4 12.34 4 12 C4 11.34 4 10.68 4 10 C4.66 9.67 5.32 9.34 6 9 C6 8.67 6 8.34 6 8 C5.21625 8.495 4.4325 8.99 3.625 9.5 C1 11 1 11 -1 11 C-1.144375 10.401875 -1.28875 9.80375 -1.4375 9.1875 C-1.8872439 7.43849596 -2.42892341 5.71322977 -3 4 C-1.35 3.67 0.3 3.34 2 3 C1.01 2.67 0.02 2.34 -1 2 C-0.67 1.34 -0.34 0.68 0 0 Z " fill="#E0C584" transform="translate(304,224)"/>
<path d="M0 0 C0.99 0 1.98 0 3 0 C8.75529037 8.63293556 10.24502131 22.76564833 10 33 C8.68 33 7.36 33 6 33 C5.81824219 31.90042969 5.63648438 30.80085938 5.44921875 29.66796875 C4.16838061 22.08430738 2.8363704 14.65764417 0.55078125 7.296875 C-0.04957318 4.79326929 -0.09551576 2.56528034 0 0 Z " fill="#E0C584" transform="translate(272,166)"/>
<path d="M0 0 C1.99788438 0.34578768 3.99759451 0.68143549 6 1 C5 3 5 3 2.37109375 4.05859375 C-1.07459898 5.02083239 -4.39196592 5.59629165 -7.9375 6.0625 C-9.10152344 6.21847656 -10.26554687 6.37445313 -11.46484375 6.53515625 C-12.63144531 6.68855469 -13.79804688 6.84195313 -15 7 C-17.33370196 7.3307427 -19.66714575 7.6633301 -22 8 C-21.67 7.01 -21.34 6.02 -21 5 C-20.01 5 -19.02 5 -18 5 C-18 4.01 -18 3.02 -18 2 C-15.75256955 1.46818825 -13.50192898 0.94992874 -11.25 0.4375 C-9.99703125 0.14746094 -8.7440625 -0.14257812 -7.453125 -0.44140625 C-4.32078943 -0.94810759 -2.89080022 -1.03242865 0 0 Z " fill="#172630" transform="translate(273,91)"/>
<path d="M0 0 C-1 2 -1 2 -2.9074707 2.63842773 C-3.73851318 2.81833252 -4.56955566 2.9982373 -5.42578125 3.18359375 C-6.35898193 3.38766846 -7.29218262 3.59174316 -8.25366211 3.80200195 C-9.76778687 4.11657349 -9.76778687 4.11657349 -11.3125 4.4375 C-12.33674072 4.65559326 -13.36098145 4.87368652 -14.41625977 5.09838867 C-24.22085878 7.13815005 -34.07808081 8.66331209 -44 10 C-44 9.01 -44 8.02 -44 7 C-43.07775635 6.82871582 -42.1555127 6.65743164 -41.20532227 6.48095703 C-37.74414956 5.83735143 -34.28324654 5.19233062 -30.82250977 4.54638672 C-29.33205362 4.26848596 -27.84149579 3.99112992 -26.35083008 3.71435547 C-24.19324381 3.31365054 -22.03600421 2.91113732 -19.87890625 2.5078125 C-19.18302399 2.37828186 -18.48714172 2.24875122 -17.77017212 2.11529541 C-14.03914102 1.41298761 -10.34279072 0.63208251 -6.65234375 -0.2578125 C-3 -1 -3 -1 0 0 Z " fill="#1B2932" transform="translate(244,77)"/>
<path d="M0 0 C-11.16542062 5.20746641 -22.51755305 9.85903633 -34 14.3125 C-34.66685822 14.57252808 -35.33371643 14.83255615 -36.02078247 15.10046387 C-43.59297931 18.0479914 -51.15827357 20.84467843 -59 23 C-56.68987957 20.37746223 -54.57287094 19.21372073 -51.33251953 17.94702148 C-50.38788849 17.57330917 -49.44325745 17.19959686 -48.47000122 16.81455994 C-46.9418428 16.22379417 -46.9418428 16.22379417 -45.3828125 15.62109375 C-44.33350555 15.20835709 -43.28419861 14.79562042 -42.20309448 14.37037659 C-38.84656939 13.0520346 -35.4859067 11.74462604 -32.125 10.4375 C-29.86820638 9.55345701 -27.61169243 8.66869971 -25.35546875 7.78320312 C-20.37400808 5.82936042 -15.38989852 3.8824566 -10.40335083 1.94163513 C-8.71050098 1.27837496 -7.0367739 0.56524417 -5.37960815 -0.182724 C-3 -1 -3 -1 0 0 Z " fill="#C7B17A" transform="translate(302,409)"/>
<path d="M0 0 C3 1 3 1 5 3 C7.10820797 2.6814823 7.10820797 2.6814823 9 2 C9.66 3.32 10.32 4.64 11 6 C11.61875 5.814375 12.2375 5.62875 12.875 5.4375 C15 5 15 5 17 6 C16.125 9.875 16.125 9.875 15 11 C12.30345146 11.07319621 9.63308542 11.09242537 6.9375 11.0625 C5.79958008 11.05573242 5.79958008 11.05573242 4.63867188 11.04882812 C2.75908129 11.0370068 0.87953101 11.01907078 -1 11 C0.32 10.67 1.64 10.34 3 10 C2.01 6.7 1.02 3.4 0 0 Z " fill="#38403E" transform="translate(211,353)"/>
<path d="M0 0 C2.10388569 -0.05402274 4.20816714 -0.09280256 6.3125 -0.125 C8.07013672 -0.15980469 8.07013672 -0.15980469 9.86328125 -0.1953125 C13 0 13 0 16 2 C16.1875 5.625 16.1875 5.625 16 9 C15.01 9.33 14.02 9.66 13 10 C10.64661627 8.81305055 8.52067269 7.60140039 6.3125 6.1875 C5.70599609 5.81818359 5.09949219 5.44886719 4.47460938 5.06835938 C2.94204708 4.10813755 1.46541905 3.05986799 0 2 C0 1.34 0 0.68 0 0 Z " fill="#DCC283" transform="translate(256,330)"/>
<path d="M0 0 C0.99 0.66 1.98 1.32 3 2 C2 5 2 5 -0.07421875 6.16796875 C-4.85083936 8.03149338 -8.77445944 9.5500569 -14 9 C-13.60799155 6.6174032 -13.27060945 5.28328262 -11.58203125 3.515625 C-7.63633832 0.69353999 -5.02745166 -0.79982186 0 0 Z " fill="#E6CA87" transform="translate(274,395)"/>
<path d="M0 0 C1.875 0.125 1.875 0.125 4 1 C5.84616233 5.33558681 6.24684219 9.06736196 6.1875 13.75 C6.18105469 14.87921875 6.17460937 16.0084375 6.16796875 17.171875 C6 20 6 20 5 22 C4.34 22 3.68 22 3 22 C1.06663194 14.52431018 -0.13342924 7.73889572 0 0 Z " fill="#E5C986" transform="translate(212,146)"/>
<path d="M0 0 C0.66 0 1.32 0 2 0 C3.74630699 3.49261398 3.18463963 7.46530618 3.1875 11.3125 C3.19974609 12.16779297 3.21199219 13.02308594 3.22460938 13.90429688 C3.23501414 18.38181307 3.12119428 21.93367895 1 26 C0.34 25.67 -0.32 25.34 -1 25 C-1.02886984 21.02084841 -1.04675406 17.04172347 -1.0625 13.0625 C-1.07087891 11.92619141 -1.07925781 10.78988281 -1.08789062 9.61914062 C-1.09111328 8.53955078 -1.09433594 7.45996094 -1.09765625 6.34765625 C-1.10289307 5.34742432 -1.10812988 4.34719238 -1.11352539 3.31665039 C-1 1 -1 1 0 0 Z " fill="#D9BF81" transform="translate(280,207)"/>
<path d="M0 0 C0 0.66 0 1.32 0 2 C-1.52367187 2.18175781 -1.52367187 2.18175781 -3.078125 2.3671875 C-10.57433183 3.27554171 -18.01909665 4.26659486 -25.44921875 5.6328125 C-28.00382707 6.00055091 -30.4229803 6.0650059 -33 6 C-28.97554491 3.31702994 -24.90902627 2.52636856 -20.25 1.375 C-19.36828125 1.14554687 -18.4865625 0.91609375 -17.578125 0.6796875 C-11.56611439 -0.82331515 -6.0440412 -2.0146804 0 0 Z " fill="#D2BA7E" transform="translate(209,107)"/>
<path d="M0 0 C3.32334181 0.98053553 4.54337037 2.6052034 6.140625 5.51953125 C6.85631246 6.94427944 7.5590548 8.37558988 8.25 9.8125 C8.61351562 10.52470703 8.97703125 11.23691406 9.3515625 11.97070312 C11.22015937 15.76760768 12.51125333 18.66286759 12 23 C7.80646661 19.46760926 5.96376268 15.26167615 3.75 10.375 C3.38648438 9.59898437 3.02296875 8.82296875 2.6484375 8.0234375 C0 2.28847509 0 2.28847509 0 0 Z " fill="#DDC383" transform="translate(259,136)"/>
<path d="M0 0 C-5.80611919 3.87074613 -12.77914829 4.6057872 -19.5625 5.6875 C-20.38685547 5.82994141 -21.21121094 5.97238281 -22.06054688 6.11914062 C-26.65134262 6.85675049 -30.40460408 7.10974715 -35 6 C-35 5.67 -35 5.34 -35 5 C-31.47957301 4.3519388 -27.95858876 3.70695513 -24.4375 3.0625 C-23.44685547 2.88009766 -22.45621094 2.69769531 -21.43554688 2.50976562 C-6.79348225 -0.16569469 -6.79348225 -0.16569469 0 0 Z " fill="#C1AD77" transform="translate(268,80)"/>
<path d="M0 0 C0 0.66 0 1.32 0 2 C-5.08778584 3.90482744 -10.09323601 4.77276904 -15.4375 5.5625 C-16.66823242 5.75102539 -16.66823242 5.75102539 -17.92382812 5.94335938 C-22.61175759 6.65795996 -27.30460055 7.33645095 -32 8 C-32 7.34 -32 6.68 -32 6 C-30.72125 5.7525 -29.4425 5.505 -28.125 5.25 C-24.56034434 4.54321483 -21.01193018 3.78303261 -17.46875 2.9765625 C-16.67194824 2.79577148 -15.87514648 2.61498047 -15.05419922 2.42871094 C-13.45081993 2.06323715 -11.8482552 1.69416883 -10.24658203 1.32128906 C-9.49747559 1.15081055 -8.74836914 0.98033203 -7.9765625 0.8046875 C-6.97230225 0.57241455 -6.97230225 0.57241455 -5.94775391 0.33544922 C-4 0 -4 0 0 0 Z " fill="#CEB77D" transform="translate(206,111)"/>
<path d="M0 0 C0 0.33 0 0.66 0 1 C-4.09289985 1.85702451 -8.18632951 2.71145708 -12.28027344 3.56347656 C-13.6733263 3.85377709 -15.06623105 4.14478926 -16.45898438 4.43652344 C-18.45925129 4.85538275 -20.46003437 5.27169198 -22.4609375 5.6875 C-24.26763916 6.06455078 -24.26763916 6.06455078 -26.11083984 6.44921875 C-29 7 -29 7 -31 7 C-30.67 6.01 -30.34 5.02 -30 4 C-27.07836973 3.13455283 -24.2913141 2.45816643 -21.3125 1.875 C-20.50876953 1.70613281 -19.70503906 1.53726563 -18.87695312 1.36328125 C-16.58817961 0.88793499 -14.29615422 0.43814371 -12 0 C-10.88753906 -0.21269531 -9.77507812 -0.42539063 -8.62890625 -0.64453125 C-5.5511597 -1.06069014 -3.02230521 -0.64763683 0 0 Z " fill="#1F2C33" transform="translate(216,93)"/>
<path d="M0 0 C1 1 1 1 1.1875 3.4375 C1 6 1 6 -1 8 C-3.5 8.3125 -3.5 8.3125 -6 8 C-8 5 -8 5 -7.75 2.375 C-7.5025 1.59125 -7.255 0.8075 -7 0 C-4.31633121 -1.3418344 -2.84719317 -0.73004953 0 0 Z " fill="#E0C585" transform="translate(232,186)"/>
<path d="M0 0 C-2.13471266 3.20206899 -2.71612187 3.54897507 -6.1328125 4.82421875 C-7.34130859 5.28344727 -7.34130859 5.28344727 -8.57421875 5.75195312 C-9.41597656 6.06068359 -10.25773437 6.36941406 -11.125 6.6875 C-11.97449219 7.00783203 -12.82398438 7.32816406 -13.69921875 7.65820312 C-15.79637145 8.44758083 -17.89649535 9.22774317 -20 10 C-20.33 9.34 -20.66 8.68 -21 8 C-18.26400511 4.55927916 -14.4681432 3.30702381 -10.5 1.75 C-9.82324219 1.46898437 -9.14648438 1.18796875 -8.44921875 0.8984375 C-3.37259939 -1.1241998 -3.37259939 -1.1241998 0 0 Z " fill="#13232F" transform="translate(289,416)"/>
<path d="M0 0 C-3.47334014 3.47334014 -8.55517665 3.67900367 -13.25 4.6875 C-14.28769531 4.92533203 -15.32539063 5.16316406 -16.39453125 5.40820312 C-25.84588565 7.46625667 -25.84588565 7.46625667 -31 6 C-26.5778147 3.59749933 -22.08765421 2.83442106 -17.1875 1.875 C-16.31029297 1.69324219 -15.43308594 1.51148437 -14.52929688 1.32421875 C-9.58769889 0.3410736 -5.03681572 -0.20614525 0 0 Z " fill="#C6B079" transform="translate(276,88)"/>
<path d="M0 0 C6.42665001 -0.20402064 12.62508299 0.1909911 19 0.9375 C19.754021 1.02435059 20.50804199 1.11120117 21.28491211 1.20068359 C26.74031335 1.87015667 26.74031335 1.87015667 29 3 C29 3.66 29 4.32 29 5 C25.66461109 4.68234391 22.33251902 4.34608424 19 4 C18.30374512 3.93022949 17.60749023 3.86045898 16.89013672 3.78857422 C14.59237207 3.55568264 12.29622527 3.31007276 10 3.0625 C9.245979 2.98789551 8.49195801 2.91329102 7.71508789 2.83642578 C2.22775994 2.22775994 2.22775994 2.22775994 0 0 Z " fill="#B4A272" transform="translate(289,245)"/>
<path d="M0 0 C-0.33 0.99 -0.66 1.98 -1 3 C-8.106081 5.34298193 -15.53716383 6.44777017 -23 6 C-20.33225911 2.41961091 -16.77519316 2.04559397 -12.625 1.3125 C-11.965 1.18294922 -11.305 1.05339844 -10.625 0.91992188 C-7.04242071 0.24551203 -3.64411126 -0.14773424 0 0 Z " fill="#11212E" transform="translate(254,79)"/>
<path d="M0 0 C0 0.33 0 0.66 0 1 C-13.365 3.475 -13.365 3.475 -27 6 C-27.33 5.01 -27.66 4.02 -28 3 C-24.64954478 2.29352718 -21.29426232 1.61331328 -17.9375 0.9375 C-16.99455078 0.73833984 -16.05160156 0.53917969 -15.08007812 0.33398438 C-9.68231249 -0.73804573 -5.39123125 -1.1889123 0 0 Z " fill="#1D2B33" transform="translate(216,98)"/>
<path d="M0 0 C1.953125 0.6484375 1.953125 0.6484375 4 2 C4.609375 4.6015625 4.609375 4.6015625 4.75 7.625 C4.80671875 8.62789062 4.8634375 9.63078125 4.921875 10.6640625 C4.94765625 11.43492188 4.9734375 12.20578125 5 13 C1.69354879 11.43919073 -0.25034386 10.31513794 -2 7 C-1.57446809 1.57446809 -1.57446809 1.57446809 0 0 Z " fill="#1C2A32" transform="translate(259,106)"/>
<path d="M0 0 C0 0.33 0 0.66 0 1 C-3.35206538 1.67753075 -6.70693575 2.3400352 -10.0625 3 C-11.47692383 3.28617187 -11.47692383 3.28617187 -12.91992188 3.578125 C-18.04669705 4.57847138 -22.77687319 5.231817 -28 5 C-24.13521549 2.74639215 -19.99654847 1.84413909 -15.6875 0.8125 C-14.95337891 0.62236328 -14.21925781 0.43222656 -13.46289062 0.23632812 C-8.58804608 -0.93588383 -4.91503489 -1.01936655 0 0 Z " fill="#B7A573" transform="translate(210,82)"/>
<path d="M0 0 C-14.59681093 7.66742597 -14.59681093 7.66742597 -22 9 C-18.96540451 5.57054148 -16.18234083 3.97992818 -11.9375 2.3125 C-10.37322266 1.68794922 -10.37322266 1.68794922 -8.77734375 1.05078125 C-3.18972332 -1.06324111 -3.18972332 -1.06324111 0 0 Z " fill="#D2BA7F" transform="translate(313,388)"/>
<path d="M0 0 C0 0.99 0 1.98 0 3 C-2.72827365 3.50534727 -5.45744694 4.00443845 -8.1875 4.5 C-8.95642578 4.64308594 -9.72535156 4.78617187 -10.51757812 4.93359375 C-14.39421773 5.63238715 -18.041471 6.19039017 -22 6 C-21.67 5.34 -21.34 4.68 -21 4 C-18.41216145 3.19056192 -15.88226179 2.5006256 -13.25 1.875 C-12.53328125 1.69324219 -11.8165625 1.51148437 -11.078125 1.32421875 C-7.31010126 0.40299236 -3.90961317 -0.23088267 0 0 Z " fill="#C9B37B" transform="translate(200,87)"/>
<path d="M0 0 C-7.27888479 4.85258986 -16.45672432 5.51032841 -25 5 C-22.09009069 2.09009069 -18.66646801 2.02006532 -14.75 1.375 C-13.99847656 1.2409375 -13.24695313 1.106875 -12.47265625 0.96875 C-8.26568764 0.24923355 -4.28514169 -0.15011643 0 0 Z " fill="#DFC484" transform="translate(248,94)"/>
<path d="M0 0 C-3.27098341 2.73251686 -6.59882422 4.21683758 -10.5625 5.75 C-12.26599609 6.42289062 -12.26599609 6.42289062 -14.00390625 7.109375 C-17 8 -17 8 -20 7 C-14.04085632 3.02723755 -7.26544556 -0.37624629 0 0 Z " fill="#DAC082" transform="translate(280,402)"/>
<path d="M0 0 C0.66 0 1.32 0 2 0 C2.33 0.99 2.66 1.98 3 3 C3.61875 2.814375 4.2375 2.62875 4.875 2.4375 C7 2 7 2 9 3 C8.67 4.32 8.34 5.64 8 7 C4.04 7 0.08 7 -4 7 C-3.67 6.01 -3.34 5.02 -3 4 C-1.68 4.66 -0.36 5.32 1 6 C1 5.34 1 4.68 1 4 C0.34 3.67 -0.32 3.34 -1 3 C-0.67 2.01 -0.34 1.02 0 0 Z " fill="#D3BA7F" transform="translate(219,356)"/>
<path d="M0 0 C3.25516428 3.16474305 6.32008793 6.32752791 9 10 C9 10.66 9 11.32 9 12 C9.94875 12.268125 10.8975 12.53625 11.875 12.8125 C15 14 15 14 17 17 C14.7890625 17.29296875 14.7890625 17.29296875 12 17 C9.6484375 14.98828125 9.6484375 14.98828125 7.375 12.3125 C6.61960938 11.44238281 5.86421875 10.57226562 5.0859375 9.67578125 C0 3.15168539 0 3.15168539 0 0 Z " fill="#CBB47B" transform="translate(236,375)"/>
<path d="M0 0 C2.64 0 5.28 0 8 0 C8.33 1.65 8.66 3.3 9 5 C5.5647952 7.29013653 4.014669 7.17842973 0 7 C0.99 5.35 1.98 3.7 3 2 C2.01 1.34 1.02 0.68 0 0 Z " fill="#B1A071" transform="translate(304,328)"/>
<path d="M0 0 C1.98244892 0.78341119 3.96088859 1.57697486 5.9375 2.375 C7.03964844 2.81585938 8.14179688 3.25671875 9.27734375 3.7109375 C12 5 12 5 13 7 C13.04022391 9.3329866 13.04320247 11.66706666 13 14 C11.35 12.35 9.7 10.7 8 9 C8.66 8.67 9.32 8.34 10 8 C9.278125 7.59007812 8.55625 7.18015625 7.8125 6.7578125 C6.4203125 5.94957031 6.4203125 5.94957031 5 5.125 C4.071875 4.59132812 3.14375 4.05765625 2.1875 3.5078125 C1.465625 3.01023438 0.74375 2.51265625 0 2 C0 1.34 0 0.68 0 0 Z " fill="#D2BA7E" transform="translate(214,212)"/>
<path d="M0 0 C-2.69504552 2.69504552 -4.97913007 2.8796192 -8.6875 3.6875 C-9.88761719 3.95949219 -11.08773437 4.23148437 -12.32421875 4.51171875 C-16.15194125 5.02018348 -19.22347093 4.72233996 -23 4 C-16.05317202 0.13704426 -7.79971079 -0.29432871 0 0 Z " fill="#CCB57C" transform="translate(262,76)"/>
<path d="M0 0 C0 0.66 0 1.32 0 2 C-13.6332574 5.44419134 -13.6332574 5.44419134 -20 5 C-17.38158129 2.38158129 -15.28412235 2.18149063 -11.6875 1.375 C-10.55699219 1.11460938 -9.42648438 0.85421875 -8.26171875 0.5859375 C-5.40779229 0.0732561 -2.88660093 -0.11914675 0 0 Z " fill="#D1B97E" transform="translate(196,103)"/>
<path d="M0 0 C0.66 0.66 1.32 1.32 2 2 C-1.28981476 2.39264095 -4.58189261 2.76109591 -7.875 3.125 C-8.81214844 3.23714844 -9.74929687 3.34929687 -10.71484375 3.46484375 C-12.05869141 3.60986328 -12.05869141 3.60986328 -13.4296875 3.7578125 C-14.67081299 3.89920654 -14.67081299 3.89920654 -15.93701172 4.04345703 C-18 4 -18 4 -20 2 C-17.23062417 1.47007619 -14.45996921 0.9507542 -11.6875 0.4375 C-10.90181641 0.28603516 -10.11613281 0.13457031 -9.30664062 -0.02148438 C-8.54931641 -0.16005859 -7.79199219 -0.29863281 -7.01171875 -0.44140625 C-6.31522217 -0.57232666 -5.61872559 -0.70324707 -4.90112305 -0.83813477 C-3 -1 -3 -1 0 0 Z " fill="#253136" transform="translate(240,98)"/>
<path d="M0 0 C0 0.66 0 1.32 0 2 C-2.03959477 2.50838564 -4.08179138 3.00633886 -6.125 3.5 C-7.26195312 3.7784375 -8.39890625 4.056875 -9.5703125 4.34375 C-12.81466698 4.96453765 -15.70814457 5.12006768 -19 5 C-16.37013188 2.37013188 -14.23771675 2.178728 -10.625 1.375 C-9.48289063 1.11460938 -8.34078125 0.85421875 -7.1640625 0.5859375 C-4 0 -4 0 0 0 Z " fill="#E0C584" transform="translate(196,93)"/>
<path d="M0 0 C0 0.66 0 1.32 0 2 C-1.9363704 2.50435694 -3.87414146 3.00333874 -5.8125 3.5 C-6.89144531 3.7784375 -7.97039062 4.056875 -9.08203125 4.34375 C-12 5 -12 5 -15 5 C-14.67 4.01 -14.34 3.02 -14 2 C-11.85546875 1.015625 -11.85546875 1.015625 -9.1875 0.25 C-8.31480469 -0.01296875 -7.44210938 -0.2759375 -6.54296875 -0.546875 C-3.94565881 -1.00968292 -2.46623472 -0.85082224 0 0 Z " fill="#1A2832" transform="translate(226,75)"/>
<path d="M0 0 C2.5625 0.9375 2.5625 0.9375 4.375 3.875 C5.5625 6.9375 5.5625 6.9375 5.5625 8.9375 C4.9025 8.9375 4.2425 8.9375 3.5625 8.9375 C3.5625 8.2775 3.5625 7.6175 3.5625 6.9375 C2.9025 6.9375 2.2425 6.9375 1.5625 6.9375 C1.2325 7.5975 0.9025 8.2575 0.5625 8.9375 C-0.4375 5.9375 -0.4375 5.9375 -0.4375 4.9375 C-1.0975 4.6075 -1.7575 4.2775 -2.4375 3.9375 C-2.4375 3.2775 -2.4375 2.6175 -2.4375 1.9375 C-3.0975 1.6075 -3.7575 1.2775 -4.4375 0.9375 C-2.4375 -0.0625 -2.4375 -0.0625 0 0 Z " fill="#D7BE81" transform="translate(224.4375,372.0625)"/>
<path d="M0 0 C-2.94039297 1.96026198 -5.6708733 3.17558275 -8.9375 4.5 C-12.36039494 5.89121381 -15.72152247 7.2936117 -19 9 C-18.9609375 7.20703125 -18.9609375 7.20703125 -18 5 C-15.51211076 3.6788655 -13.24337824 2.65844137 -10.625 1.6875 C-9.93921875 1.41099609 -9.2534375 1.13449219 -8.546875 0.84960938 C-3.40654926 -1.13551642 -3.40654926 -1.13551642 0 0 Z " fill="#1B2932" transform="translate(310,387)"/>
<path d="M0 0 C2.375 -0.125 2.375 -0.125 5 0 C5.66 0.66 6.32 1.32 7 2 C6.625 4.125 6.625 4.125 6 6 C4.33388095 6.042721 2.66617115 6.04063832 1 6 C0 5 0 5 -0.0625 2.4375 C-0.041875 1.633125 -0.02125 0.82875 0 0 Z " fill="#E7CA87" transform="translate(260,364)"/>
<path d="M0 0 C0.99 0.33 1.98 0.66 3 1 C-1.47307108 5.04165813 -5.88276824 8.80173015 -11 12 C-8.930766 6.92097109 -4.6682715 2.8009629 0 0 Z " fill="#CDB67C" transform="translate(251,341)"/>
<path d="M0 0 C2.31 0 4.62 0 7 0 C7.66 1.32 8.32 2.64 9 4 C4.25 7 4.25 7 2 7 C1.855625 6.401875 1.71125 5.80375 1.5625 5.1875 C1.1127561 3.43849596 0.57107659 1.71322977 0 0 Z " fill="#D8BE81" transform="translate(301,228)"/>
<path d="M0 0 C2.83560586 1.41780293 2.99358679 3.04785458 4 6 C4.36871088 7.65919896 4.71281674 9.3247643 5 11 C4.34 11 3.68 11 3 11 C2.67 9.35 2.34 7.7 2 6 C-0.97 5.505 -0.97 5.505 -4 5 C-3 2 -3 2 0 0 Z " fill="#888060" transform="translate(277,101)"/>
<path d="M0 0 C-1 2 -1 2 -3.4375 3.125 C-8.01806438 4.2500509 -12.30960202 4.1668521 -17 4 C-16.67 3.34 -16.34 2.68 -16 2 C-13.671875 1.3671875 -13.671875 1.3671875 -10.75 0.875 C-9.79609375 0.70742187 -8.8421875 0.53984375 -7.859375 0.3671875 C-5.19900755 0.02555561 -2.67794365 -0.06841462 0 0 Z " fill="#CCB57C" transform="translate(279,92)"/>
<path d="M0 0 C0.66 0.33 1.32 0.66 2 1 C-1.46129225 3.19404317 -4.83981876 4.84320795 -8.6875 6.25 C-10.11642578 6.78367187 -10.11642578 6.78367187 -11.57421875 7.328125 C-14 8 -14 8 -16 7 C-13.8967433 6.01888025 -11.79236311 5.04016866 -9.6875 4.0625 C-8.51574219 3.51722656 -7.34398437 2.97195313 -6.13671875 2.41015625 C-3 1 -3 1 0 0 Z " fill="#BAA774" transform="translate(248,418)"/>
<path d="M0 0 C2.35170044 2.13790949 3.88791835 4.00593401 5 7 C5.125 10.25 5.125 10.25 5 13 C4.34 13 3.68 13 3 13 C2.49242138 11.58603098 1.99425075 10.16868271 1.5 8.75 C1.08234375 7.56664062 1.08234375 7.56664062 0.65625 6.359375 C0 4 0 4 0 0 Z " fill="#DAC182" transform="translate(233,216)"/>
<path d="M0 0 C0 0.33 0 0.66 0 1 C-2.26838256 1.38955051 -4.53984687 1.76119129 -6.8125 2.125 C-8.07707031 2.33382812 -9.34164062 2.54265625 -10.64453125 2.7578125 C-14 3 -14 3 -17 1 C-5.47835991 -1.48063781 -5.47835991 -1.48063781 0 0 Z " fill="#2F393A" transform="translate(216,93)"/>
<path d="M0 0 C-3.20010388 1.8133922 -6.13283843 2.52213974 -9.75 3.125 C-10.73484375 3.29257813 -11.7196875 3.46015625 -12.734375 3.6328125 C-13.48203125 3.75398438 -14.2296875 3.87515625 -15 4 C-12.78209843 1.3555789 -11.43032326 0.11902558 -8.0625 -0.8125 C-5.12267276 -0.99248942 -2.83459415 -0.75033374 0 0 Z " fill="#222F35" transform="translate(205,90)"/>
<path d="M0 0 C0 0.66 0 1.32 0 2 C-3.63 3.32 -7.26 4.64 -11 6 C-11.33 5.01 -11.66 4.02 -12 3 C-10.3789897 2.30314502 -8.75303934 1.61777139 -7.125 0.9375 C-6.22007812 0.55464844 -5.31515625 0.17179687 -4.3828125 -0.22265625 C-2 -1 -2 -1 0 0 Z " fill="#182731" transform="translate(278,405)"/>
<path d="M0 0 C-0.33 0.66 -0.66 1.32 -1 2 C-3.06640625 2.6328125 -3.06640625 2.6328125 -5.5625 3.125 C-6.38878906 3.29257813 -7.21507812 3.46015625 -8.06640625 3.6328125 C-8.70449219 3.75398438 -9.34257812 3.87515625 -10 4 C-10 3.34 -10 2.68 -10 2 C-11.32 1.67 -12.64 1.34 -14 1 C-12.23103898 0.63659714 -10.45973374 0.28459117 -8.6875 -0.0625 C-7.70136719 -0.25972656 -6.71523437 -0.45695312 -5.69921875 -0.66015625 C-3 -1 -3 -1 0 0 Z " fill="#1E2C33" transform="translate(253,90)"/>
<path d="M0 0 C0.33 0.66 0.66 1.32 1 2 C-3.29 2.66 -7.58 3.32 -12 4 C-11.67 3.01 -11.34 2.02 -11 1 C-9.2578125 0.234375 -9.2578125 0.234375 -7.125 -0.25 C-6.07699219 -0.50523438 -6.07699219 -0.50523438 -5.0078125 -0.765625 C-3 -1 -3 -1 0 0 Z " fill="#1F2D34" transform="translate(232,84)"/>
<path d="M0 0 C0 0.33 0 0.66 0 1 C-1.7491497 1.33776684 -3.49936145 1.67003671 -5.25 2 C-6.71179688 2.2784375 -6.71179688 2.2784375 -8.203125 2.5625 C-11 3 -11 3 -15 3 C-15 2.34 -15 1.68 -15 1 C-13.44033408 0.63355422 -11.87707349 0.28239138 -10.3125 -0.0625 C-9.44238281 -0.25972656 -8.57226562 -0.45695312 -7.67578125 -0.66015625 C-4.83998724 -1.02032279 -2.75210018 -0.70909969 0 0 Z " fill="#BAA774" transform="translate(189,116)"/>
<path d="M0 0 C0 0.66 0 1.32 0 2 C-2.40545638 3.20272819 -3.94996953 3.10071472 -6.625 3.0625 C-7.85089844 3.04896484 -7.85089844 3.04896484 -9.1015625 3.03515625 C-10.04128906 3.01775391 -10.04128906 3.01775391 -11 3 C-8.89427904 -1.21144191 -4.11694326 -0.07767817 0 0 Z " fill="#E7CB87" transform="translate(218,94)"/>
<path d="M0 0 C0 2.64 0 5.28 0 8 C-0.66 8 -1.32 8 -2 8 C-2 8.66 -2 9.32 -2 10 C-2.99 10 -3.98 10 -5 10 C-5 9.34 -5 8.68 -5 8 C-4.01 7.34 -3.02 6.68 -2 6 C-2.7763932 2.9254644 -2.7763932 2.9254644 -5 1 C-2 0 -2 0 0 0 Z " fill="#2F393A" transform="translate(219,375)"/>
<path d="M0 0 C1.6396875 0.0928125 1.6396875 0.0928125 3.3125 0.1875 C2.9825 1.1775 2.6525 2.1675 2.3125 3.1875 C-0.6575 3.1875 -3.6275 3.1875 -6.6875 3.1875 C-3.6875 0.1875 -3.6875 0.1875 0 0 Z " fill="#0F1F2D" transform="translate(239.6875,91.8125)"/>
<path d="M0 0 C-0.33 0.66 -0.66 1.32 -1 2 C-5.66289322 2.85486376 -9.37627754 3.30042194 -14 2 C-14 1.67 -14 1.34 -14 1 C-9.32798795 -0.20568053 -4.78503708 -0.09382426 0 0 Z " fill="#B4A372" transform="translate(256,72)"/>
<path d="M0 0 C0.66 0.33 1.32 0.66 2 1 C1.52949219 1.45890625 1.05898437 1.9178125 0.57421875 2.390625 C-4.03368398 6.91549295 -4.03368398 6.91549295 -8 12 C-7.58388059 7.1452735 -5.54108048 5.19560921 -2 2 C-1.34 1.34 -0.68 0.68 0 0 Z " fill="#53564A" transform="translate(244,349)"/>
<path d="M0 0 C0 0.99 0 1.98 0 3 C-4.455 3.495 -4.455 3.495 -9 4 C-8.67 3.01 -8.34 2.02 -8 1 C-2.25 0 -2.25 0 0 0 Z " fill="#2A3538" transform="translate(223,80)"/>
<path d="M0 0 C3.96 0 7.92 0 12 0 C8.99382731 3.00617269 6.17618402 2.59585316 2 3 C2 2.34 2 1.68 2 1 C1.34 0.67 0.68 0.34 0 0 Z " fill="#DBC182" transform="translate(216,93)"/>
<path d="M0 0 C0 0.66 0 1.32 0 2 C-3.47325181 3.1577506 -6.36067448 3.06866652 -10 3 C-7.29536552 -0.8183075 -4.37912428 -0.24787496 0 0 Z " fill="#E3C886" transform="translate(209,86)"/>
<path d="M0 0 C-0.33 0.99 -0.66 1.98 -1 3 C-3.06640625 3.73046875 -3.06640625 3.73046875 -5.5625 4.1875 C-6.38878906 4.34605469 -7.21507812 4.50460937 -8.06640625 4.66796875 C-9.02353516 4.83232422 -9.02353516 4.83232422 -10 5 C-6.87744158 1.76211982 -4.62880694 0 0 0 Z " fill="#C3AE78" transform="translate(249,413)"/>
<path d="M0 0 C0.33 0.66 0.66 1.32 1 2 C-2.67410785 3.17571451 -6.16929183 3.07366746 -10 3 C-6.88378718 -0.11621282 -4.21175599 -0.11383124 0 0 Z " fill="#B3A172" transform="translate(187,100)"/>
<path d="M0 0 C0 0.66 0 1.32 0 2 C-2.64 2.33 -5.28 2.66 -8 3 C-8 2.01 -8 1.02 -8 0 C-4.94736336 -0.98120464 -3.05263664 -0.98120464 0 0 Z " fill="#D0B97E" transform="translate(217,85)"/>
<path d="M0 0 C-2.8086289 2.8086289 -5.11134294 2.72711179 -9 3 C-9.99 2.34 -10.98 1.68 -12 1 C-8.0186217 -0.3271261 -4.14954773 -0.06915913 0 0 Z " fill="#BDAA76" transform="translate(262,76)"/>
<path d="M0 0 C-0.33 0.66 -0.66 1.32 -1 2 C-3.32156597 2.40729228 -5.6568787 2.74438677 -8 3 C-8.33 2.01 -8.66 1.02 -9 0 C-3.375 -1.125 -3.375 -1.125 0 0 Z " fill="#222F35" transform="translate(244,77)"/>
<path d="M0 0 C0.66 0.33 1.32 0.66 2 1 C0.02579865 3.52259061 -0.96745642 3.9929808 -4.1875 4.6875 C-5.5796875 4.8421875 -5.5796875 4.8421875 -7 5 C-4.63707344 2.47411298 -3.33537489 1.11179163 0 0 Z " fill="#091B2B" transform="translate(272,416)"/>
<path d="M0 0 C1.32 0.66 2.64 1.32 4 2 C4 4.31 4 6.62 4 9 C3.67 9 3.34 9 3 9 C2.67 7.35 2.34 5.7 2 4 C1.01 4 0.02 4 -1 4 C-0.67 2.68 -0.34 1.36 0 0 Z " fill="#C6B17A" transform="translate(259,106)"/>
<path d="M0 0 C0.80824219 0.10183594 1.61648437 0.20367187 2.44921875 0.30859375 C3.06410156 0.39238281 3.67898437 0.47617188 4.3125 0.5625 C4.3125 0.8925 4.3125 1.2225 4.3125 1.5625 C2.68925914 1.78412329 1.063779 1.98939803 -0.5625 2.1875 C-1.91988281 2.36152344 -1.91988281 2.36152344 -3.3046875 2.5390625 C-4.09101563 2.54679687 -4.87734375 2.55453125 -5.6875 2.5625 C-6.3475 1.9025 -7.0075 1.2425 -7.6875 0.5625 C-4.59271121 -0.46909626 -3.16118607 -0.41232862 0 0 Z " fill="#3B423F" transform="translate(227.6875,99.4375)"/>
<path d="M0 0 C0 0.66 0 1.32 0 2 C-4.455 2.495 -4.455 2.495 -9 3 C-9 2.34 -9 1.68 -9 1 C-5.92677456 0.08941469 -3.19902639 -0.08886184 0 0 Z " fill="#ECCF89" transform="translate(196,98)"/>
<path d="M0 0 C-0.66 0 -1.32 0 -2 0 C-2 0.66 -2 1.32 -2 2 C-3.98 2.33 -5.96 2.66 -8 3 C-8.33 2.01 -8.66 1.02 -9 0 C-5.62182575 -0.84454356 -3.32534757 -1.10844919 0 0 Z " fill="#CEB77D" transform="translate(225,98)"/>
<path d="M0 0 C2.64 0 5.28 0 8 0 C5.64031256 2.09749995 4.45383006 2.96905704 1.25 3.1875 C0.13625 3.0946875 0.13625 3.0946875 -1 3 C-0.67 2.01 -0.34 1.02 0 0 Z " fill="#D8BF81" transform="translate(252,96)"/>
<path d="M0 0 C0 0.33 0 0.66 0 1 C-5.94 1.495 -5.94 1.495 -12 2 C-8.17961144 -1.82038856 -4.9914244 -0.84760037 0 0 Z " fill="#B09F70" transform="translate(189,96)"/>
<path d="M0 0 C-2.76223278 2.76223278 -5.20706617 2.57856291 -9 3 C-9.33 2.01 -9.66 1.02 -10 0 C-3.375 -1.125 -3.375 -1.125 0 0 Z " fill="#1E2C33" transform="translate(271,87)"/>
<path d="M0 0 C-1.97420135 2.52259061 -2.96745642 2.9929808 -6.1875 3.6875 C-7.5796875 3.8421875 -7.5796875 3.8421875 -9 4 C-6.77642026 0.66463039 -4.04815944 -2.02407972 0 0 Z " fill="#D1B97E" transform="translate(269,406)"/>
<path d="M0 0 C0.66 0.66 1.32 1.32 2 2 C-0.64 2.99 -3.28 3.98 -6 5 C-6 4.34 -6 3.68 -6 3 C-6.99 2.67 -7.98 2.34 -9 2 C-7.54536519 1.61090015 -6.08608793 1.23911971 -4.625 0.875 C-3.40683594 0.56175781 -3.40683594 0.56175781 -2.1640625 0.2421875 C-1.44992187 0.16226562 -0.73578125 0.08234375 0 0 Z " fill="#333C3C" transform="translate(270,402)"/>
<path d="M0 0 C-4.455 1.485 -4.455 1.485 -9 3 C-9 2.01 -9 1.02 -9 0 C-5.32431536 -0.91892116 -3.83619425 -0.95904856 0 0 Z " fill="#202D34" transform="translate(203,105)"/>
<path d="M0 0 C-2.5654594 2.5654594 -4.47686668 2.54046087 -8 3 C-8.33 2.01 -8.66 1.02 -9 0 C-5.62182575 -0.84454356 -3.32534757 -1.10844919 0 0 Z " fill="#2D3739" transform="translate(197,101)"/>
<path d="M0 0 C-0.33 0.66 -0.66 1.32 -1 2 C-3.5625 2.625 -3.5625 2.625 -6 3 C-6 2.34 -6 1.68 -6 1 C-7.32 0.67 -8.64 0.34 -10 0 C-3.375 -1.125 -3.375 -1.125 0 0 Z " fill="#C1AC77" transform="translate(236,76)"/>
<path d="M0 0 C2 1 2 1 3 3 C0.69 3.66 -1.62 4.32 -4 5 C-3.6875 3.0625 -3.6875 3.0625 -3 1 C-2.01 0.67 -1.02 0.34 0 0 Z " fill="#172630" transform="translate(256,422)"/>
<path d="M0 0 C2.875 0.3125 2.875 0.3125 6 1 C6.66 1.99 7.32 2.98 8 4 C5.6875 4.25 5.6875 4.25 3 4 C1.1875 2 1.1875 2 0 0 Z " fill="#E4C886" transform="translate(245,388)"/>
<path d="M0 0 C0.99 0.33 1.98 0.66 3 1 C0.03 3.475 0.03 3.475 -3 6 C-3.66 5.67 -4.32 5.34 -5 5 C-3.35 3.35 -1.7 1.7 0 0 Z " fill="#E3C886" transform="translate(251,341)"/>
<path d="M0 0 C0.33 1.65 0.66 3.3 1 5 C-0.98 4.34 -2.96 3.68 -5 3 C-5 2.34 -5 1.68 -5 1 C-2 0 -2 0 0 0 Z " fill="#3A423F" transform="translate(228,379)"/>
<path d="M0 0 C2.31 0 4.62 0 7 0 C7 0.66 7 1.32 7 2 C4.69 2.66 2.38 3.32 0 4 C0 2.68 0 1.36 0 0 Z " fill="#D7BE81" transform="translate(195,223)"/>
<path d="M0 0 C0.598125 0.350625 1.19625 0.70125 1.8125 1.0625 C0 2.125 0 2.125 -2.1875 3.0625 C-3.1775 2.7325 -4.1675 2.4025 -5.1875 2.0625 C-5.1875 1.4025 -5.1875 0.7425 -5.1875 0.0625 C-2.1875 -0.9375 -2.1875 -0.9375 0 0 Z " fill="#57584B" transform="translate(223.1875,218.9375)"/>
<path d="M0 0 C0.66 1.32 1.32 2.64 2 4 C0.35 4.33 -1.3 4.66 -3 5 C-3 3.68 -3 2.36 -3 1 C-2.01 0.67 -1.02 0.34 0 0 Z " fill="#D4BC80" transform="translate(278,107)"/>
<path d="M0 0 C3 1 3 1 4 3 C1.69 3.33 -0.62 3.66 -3 4 C-2.67 3.01 -2.34 2.02 -2 1 C-1.34 0.67 -0.68 0.34 0 0 Z " fill="#D7BE81" transform="translate(205,95)"/>
<path d="M0 0 C-0.33 0.66 -0.66 1.32 -1 2 C-3.64860427 2.59355614 -6.29197322 2.74209269 -9 3 C-7.14340032 -0.71319936 -3.69365381 -0.09982848 0 0 Z " fill="#E4C886" transform="translate(225,83)"/>
<path d="M0 0 C-0.99 1.485 -0.99 1.485 -2 3 C-5.125 3.1875 -5.125 3.1875 -8 3 C-5.53387212 -0.1151089 -3.89156016 -0.31553191 0 0 Z " fill="#13232F" transform="translate(215,82)"/>
</svg>
