<?xml version="1.0" encoding="UTF-8"?>
<svg version="1.1" xmlns="http://www.w3.org/2000/svg" width="500" height="500">
<path d="M0 0 C165 0 330 0 500 0 C500 165 500 330 500 500 C335 500 170 500 0 500 C0 335 0 170 0 0 Z " fill="#001326" transform="translate(0,0)"/>
<path d="M0 0 C-0.79403802 8.69262672 -1.89369712 17.34291147 -3 26 C-2.154375 26.2475 -1.30875 26.495 -0.4375 26.75 C3.38427474 28.13973627 6.51868063 29.91120838 10 32 C10.31751221 31.50072998 10.63502441 31.00145996 10.9621582 30.48706055 C12.40831717 28.21799151 13.86033563 25.95272992 15.3125 23.6875 C15.81201172 22.90181641 16.31152344 22.11613281 16.82617188 21.30664062 C17.31279297 20.54931641 17.79941406 19.79199219 18.30078125 19.01171875 C18.74591064 18.31522217 19.19104004 17.61872559 19.6496582 16.90112305 C20.95997073 15.05635653 22.35299911 13.54551688 24 12 C22.50829734 16.9723422 20.39542583 21.41845739 18 26 C18.5775 25.38125 19.155 24.7625 19.75 24.125 C23.50714847 20.576582 26.34778377 19.70873166 31.5 19.6875 C32.4384375 19.67074219 33.376875 19.65398437 34.34375 19.63671875 C37.38255053 20.05231941 38.74062173 20.98041424 41 23 C40.01 25.31 39.02 27.62 38 30 C38.62003906 30.01417969 39.24007813 30.02835938 39.87890625 30.04296875 C45.93578508 30.3691762 51.38477959 31.5056587 57.125 33.375 C57.78830322 33.58406982 58.45160645 33.79313965 59.13500977 34.00854492 C61.0078125 34.6484375 61.0078125 34.6484375 64 36 C65 39 65 39 63.6015625 42.0390625 C62.94796977 43.23726003 62.28881908 44.43243763 61.625 45.625 C58.68023131 51.17160412 57 55.67488128 57 62 C57.33 62.33 57.66 62.66 58 63 C60.63695762 62.90689557 63.24506049 62.75597644 65.875 62.5625 C70.9986957 62.22925586 76.11487611 61.896913 81.25 61.8125 C82.46429688 61.79123047 82.46429688 61.79123047 83.703125 61.76953125 C86.40526061 62.0406639 88.5326229 62.89318013 91 64 C92.05634383 67.54629716 92.57019198 69.71239433 91.046875 73.15234375 C87.18250085 79.19308246 82.20353127 84.1086806 77 89 C77.59683594 88.71125 78.19367188 88.4225 78.80859375 88.125 C91.21030264 82.81787941 104.87930219 84.72215813 118 86 C116.68 87.65 115.36 89.3 114 91 C114.680625 90.67 115.36125 90.34 116.0625 90 C119.5303986 88.81943878 122.35946032 88.78996886 126 89 C126.33 89.33 126.66 89.66 127 90 C126.80813922 96.01409762 124.80587402 99.01562835 120.625 103.0625 C116.90977666 106.74386063 114.11844699 110.15062985 112 115 C121.11417307 112.85697175 129.12345883 110.32350738 137.48828125 106.07421875 C138.73158203 105.54248047 138.73158203 105.54248047 140 105 C140.66 105.33 141.32 105.66 142 106 C141.34 106.66 140.68 107.32 140 108 C140.08571661 110.09291157 140.08571661 110.09291157 141 112 C144.42882941 113.14294314 147.24082838 113.20964472 150.85546875 113.31640625 C151.84792351 113.3475779 151.84792351 113.3475779 152.86042786 113.37937927 C154.96934852 113.44464727 157.07839135 113.50365344 159.1875 113.5625 C160.61915315 113.60570689 162.05079404 113.64932188 163.48242188 113.69335938 C166.98815154 113.80030506 170.49401786 113.90163641 174 114 C174 117 174 117 172.21875 118.96875 C167.59752228 121.88505875 162.7457092 123.08035983 157.5 124.5 C155.34356106 125.10479549 153.18730951 125.71025952 151.03125 126.31640625 C149.99484375 126.60402832 148.9584375 126.89165039 147.890625 127.18798828 C142.56085874 128.68518444 137.28087144 130.33941347 132 132 C141.16580821 131.66425611 149.26795396 129.70994532 158 127 C164.14507489 125.14869896 169.55255871 123.57017058 176 124 C176 124.66 176 125.32 176 126 C172.02446922 129.4271817 168.0211978 129.38639713 163.01171875 129.49609375 C159.75198934 130.04149595 157.32232126 131.27103855 154.4206543 132.80786133 C149.31108173 135.32425496 143.90191523 137.1595353 138.5625 139.125 C137.38623047 139.56714844 136.20996094 140.00929687 134.99804688 140.46484375 C128.70332037 142.79413886 122.59563467 144.74436046 116 146 C116.01571045 146.71953857 116.0314209 147.43907715 116.04760742 148.18041992 C116.54817135 174.56668661 116.54817135 174.56668661 113 185 C113.66 185 114.32 185 115 185 C116.39457694 187.78915389 116.1821922 189.90273264 116 193 C115.649375 193.845625 115.29875 194.69125 114.9375 195.5625 C113.80021175 198.51944944 114.03264911 200.01733474 115 203 C115.66 203.66 116.32 204.32 117 205 C116.625 207.125 116.625 207.125 116 209 C116.51949219 209.21914063 117.03898437 209.43828125 117.57421875 209.6640625 C122.75013891 212.01762324 125.98987919 214.10855369 129 219 C130.16628416 225.99770495 127.85380455 231.16870625 124 237 C121.5373102 239.91002351 118.99518812 242.63294184 116 245 C115.34 245 114.68 245 114 245 C111 240.61538462 111 240.61538462 111 238 C103.70766118 235.52802074 96.36584258 233.24276814 89 231 C89.75925781 231.60328125 90.51851563 232.2065625 91.30078125 232.828125 C92.29464844 233.62734375 93.28851563 234.4265625 94.3125 235.25 C95.79169922 236.43335938 95.79169922 236.43335938 97.30078125 237.640625 C99.61564043 239.66403303 101.40502918 241.38602004 103 244 C102.6875 246.25 102.6875 246.25 102 248 C99 248 96 248 93 248 C93.56807373 248.42708252 94.13614746 248.85416504 94.72143555 249.29418945 C105.7370112 257.59066719 116.57713739 265.96886941 127 275 C128.010625 275.81597656 129.02125 276.63195312 130.0625 277.47265625 C136.9318818 283.38288235 146.09866944 292.90795167 147.296875 302.3359375 C147.3125 304.5625 147.3125 304.5625 147 308 C146.34 308 145.68 308 145 308 C144.67386719 307.38511719 144.34773438 306.77023437 144.01171875 306.13671875 C143.57472656 305.32847656 143.13773437 304.52023437 142.6875 303.6875 C142.25824219 302.88699219 141.82898438 302.08648437 141.38671875 301.26171875 C138.86902853 297.15540146 136.53312235 295.59271867 132 294 C132.66 296.31 133.32 298.62 134 301 C128.03739811 296.17917294 123.03320206 290.77505724 118 285 C118 287.53902759 120.62243554 290.45269884 121.90625 292.578125 C123.12628601 295.27963331 123.28304285 297.0684848 123 300 C122 301 122 301 119.93359375 301.09765625 C119.10988281 301.08605469 118.28617187 301.07445312 117.4375 301.0625 C116.61121094 301.05347656 115.78492188 301.04445313 114.93359375 301.03515625 C114.29550781 301.02355469 113.65742188 301.01195312 113 301 C112.67 302.32 112.34 303.64 112 305 C111.40832031 304.32453125 110.81664062 303.6490625 110.20703125 302.953125 C109.41683594 302.06109375 108.62664062 301.1690625 107.8125 300.25 C107.03519531 299.36828125 106.25789063 298.4865625 105.45703125 297.578125 C103.11544754 295.12113732 100.69841735 293.05137234 98 291 C98 291.66 98 292.32 98 293 C93.1962523 291.34871173 89.24818148 288.73611689 85 286 C88.63 289.63 92.26 293.26 96 297 C94 298 94 298 90.9375 297.0625 C85.76526198 295.5204663 80.6783482 294.7102585 75.671875 297.12109375 C74.15325156 298.03278435 72.63755959 298.94937775 71.125 299.87109375 C67.88044368 301.5947643 65.58852646 301.59808774 62 301 C55.7045822 298.20203653 50.99909604 293.6703573 46 289 C47.31721085 293.17862632 47.31721085 293.17862632 49.1875 297.125 C50 299 50 299 49 303 C46.03 299.04 43.06 295.08 40 291 C40.66 292.77375 41.32 294.5475 42 296.375 C46.01677369 307.17007929 43.68397068 315.28799373 39.3125 325.5625 C38.87744141 326.63435547 38.44238281 327.70621094 37.99414062 328.81054688 C35.38802386 335.12314081 32.48023541 341.12341408 29 347 C27.69563901 342.38128957 28.00972174 337.85644233 28.21484375 333.10742188 C28.49635191 319.58223429 17.58642126 310.23125132 9 301 C7.62143182 304.18131119 6.59324076 307.37354571 5.65234375 310.703125 C4.09592961 315.97519701 1.95919701 320.81256409 -0.4375 325.75 C-0.81970703 326.56082031 -1.20191406 327.37164062 -1.59570312 328.20703125 C-3.764232 332.73553807 -6.09816441 336.90173561 -9 341 C-11.2188582 337.6717127 -11.35440992 336.15580323 -11.6328125 332.23828125 C-11.71660156 331.12001953 -11.80039062 330.00175781 -11.88671875 328.84960938 C-11.96535156 327.68236328 -12.04398438 326.51511719 -12.125 325.3125 C-12.21136719 324.13365234 -12.29773438 322.95480469 -12.38671875 321.74023438 C-12.59899778 318.8272944 -12.8030944 315.91401295 -13 313 C-13.928125 313.64839844 -14.85625 314.29679687 -15.8125 314.96484375 C-19.41043099 317.26205214 -20.83213715 317.78147428 -25 317 C-28.02327868 315.04926542 -30.46220143 312.53779857 -33 310 C-33.35191406 310.50789063 -33.70382813 311.01578125 -34.06640625 311.5390625 C-41.79003306 322.30777456 -50.43921288 327.3887856 -63.1875 330.5625 C-68.31183681 331.84464208 -72.52052118 333.08960416 -77 336 C-77.66 336 -78.32 336 -79 336 C-78.69255859 335.12988281 -78.69255859 335.12988281 -78.37890625 334.2421875 C-76.85990187 329.8378016 -75.5952849 325.64322223 -75 321 C-77.31 321.33 -79.62 321.66 -82 322 C-81.29445932 318.33118845 -79.72264494 315.29549466 -78 312 C-83.22368478 316.09742434 -87.15402544 320.48502106 -91 325.875 C-95.09665691 331.48446627 -99.25109141 336.91666123 -104 342 C-104.495 340.515 -104.495 340.515 -105 339 C-103.46135846 336.88399587 -101.92939898 334.99768141 -100.1875 333.0625 C-96.01629246 328.42432802 -96.01629246 328.42432802 -93 323 C-95.64 323.99 -98.28 324.98 -101 326 C-100.5359375 324.8553125 -100.5359375 324.8553125 -100.0625 323.6875 C-99.32106407 321.81210323 -98.63771783 319.91315348 -98 318 C-99.32 318.66 -100.64 319.32 -102 320 C-101.01 317.03 -100.02 314.06 -99 311 C-104.36782154 312.61034646 -109.15559139 314.52138037 -114.125 317.125 C-118.5578868 319.41513589 -122.02587519 320.77390342 -127 321 C-126.48474397 315.71862571 -124.74522883 312.42778844 -122 308 C-121.34 308.33 -120.68 308.66 -120 309 C-118.35429841 307.94369738 -118.35429841 307.94369738 -117 306 C-117.020625 304.989375 -117.04125 303.97875 -117.0625 302.9375 C-116.99046213 298.39911427 -115.73260303 295.48844519 -113.95703125 291.37890625 C-112.84537302 288.6156415 -112.31136021 285.95792199 -112 283 C-117.72454293 285.89850275 -121.35393397 289.27668896 -125.625 294 C-131.67354685 300.34593645 -137.06291176 303.9087103 -146 305 C-147.79261405 304.97740402 -149.58534651 304.91793276 -151.375 304.8125 C-154.2241081 304.6838306 -155.51941086 304.67033968 -157.890625 306.296875 C-159.68932859 308.12798767 -161.332032 310.04964464 -163 312 C-164.4133758 313.33844363 -165.85098934 314.65179044 -167.3125 315.9375 C-167.96863281 316.52402344 -168.62476563 317.11054688 -169.30078125 317.71484375 C-171 319 -171 319 -173 319 C-173.33 318.34 -173.66 317.68 -174 317 C-176.44954477 316.4585413 -176.44954477 316.4585413 -179.3125 316.125 C-182.7085635 315.54647683 -184.7914327 315.12798448 -187.75 313.3125 C-189.68861395 309.7260642 -189.14881214 307.89319671 -188 304 C-184.85773548 298.16291315 -180.83429402 293.48898731 -176 289 C-176.78375 289.20625 -177.5675 289.4125 -178.375 289.625 C-179.24125 289.74875 -180.1075 289.8725 -181 290 C-183 288 -183 288 -183.1953125 284.84765625 C-183.17210937 283.59855469 -183.14890625 282.34945313 -183.125 281.0625 C-183.10695312 279.81597656 -183.08890625 278.56945312 -183.0703125 277.28515625 C-183.04710937 276.20105469 -183.02390625 275.11695313 -183 274 C-183 273.01 -183 272.02 -183 271 C-180.6640625 268.73828125 -180.6640625 268.73828125 -177.625 266.3125 C-176.62726563 265.50425781 -175.62953125 264.69601562 -174.6015625 263.86328125 C-172 262 -172 262 -170 262 C-170.25007881 257.20909353 -170.25007881 257.20909353 -172.5625 253.1875 C-175.96263324 251.53102483 -179.3029667 250.80102388 -183 250 C-182.38350496 246.88289026 -181.33731226 244.7477196 -179.5625 242.125 C-176.26170804 236.97347497 -174.22223674 232.22210606 -175 226 C-177.64318117 221.54154824 -180.7363276 218.04627142 -184.4375 214.4375 C-185.82775391 213.07431641 -185.82775391 213.07431641 -187.24609375 211.68359375 C-189.06358717 209.91250442 -190.88256786 208.14293988 -192.703125 206.375 C-196.40938418 202.54267758 -198.85169009 199.03926125 -199.25 193.5625 C-199.1675 192.716875 -199.085 191.87125 -199 191 C-197.68 191 -196.36 191 -195 191 C-195.38333496 190.51120361 -195.76666992 190.02240723 -196.16162109 189.51879883 C-197.90552698 187.28806796 -199.64030651 185.05040099 -201.375 182.8125 C-201.97828125 182.04357422 -202.5815625 181.27464844 -203.203125 180.48242188 C-203.78320312 179.73154297 -204.36328125 178.98066406 -204.9609375 178.20703125 C-205.49509277 177.5210083 -206.02924805 176.83498535 -206.57958984 176.12817383 C-208 174 -208 174 -209.01416016 171.3347168 C-209.83935891 168.71113219 -209.83935891 168.71113219 -212.8125 167.4375 C-217.78836217 164.46665354 -219.47404366 158.3070871 -221 153 C-221.39632813 147.60333199 -220.42823336 145.24018337 -217 141 C-214.25855945 138.49187354 -211.77143773 136.39045161 -208.453125 134.7109375 C-205.36182819 132.55490565 -204.81593814 130.86499046 -203.6875 127.3125 C-203.36136719 126.31863281 -203.03523438 125.32476562 -202.69921875 124.30078125 C-202.35310547 123.16189453 -202.35310547 123.16189453 -202 122 C-201.5875 122.39832031 -201.175 122.79664063 -200.75 123.20703125 C-200.1725 123.73683594 -199.595 124.26664062 -199 124.8125 C-198.443125 125.33457031 -197.88625 125.85664063 -197.3125 126.39453125 C-189.25498892 131.98851276 -180.39865729 131.53927974 -171 131.6875 C-169.54293901 131.72072553 -168.08590637 131.75521991 -166.62890625 131.79101562 C-163.08591668 131.87767578 -159.54385762 131.93823806 -156 132 C-159.63 129.36 -163.26 126.72 -167 124 C-164 123 -164 123 -161.22265625 124.21484375 C-160.17980469 124.78332031 -159.13695312 125.35179687 -158.0625 125.9375 C-153.33301453 128.52065524 -153.33301453 128.52065524 -148 129 C-148.36351562 128.55011719 -148.72703125 128.10023438 -149.1015625 127.63671875 C-152.14053911 123.74838713 -154.63888788 119.90464943 -156.875 115.5 C-160.91835039 107.87902543 -166.01541484 102.43454582 -174 99 C-176.318739 98.45456935 -178.65424642 97.97660781 -181 97.5625 C-186.41696265 96.49163882 -189.64398095 95.23909109 -194 92 C-196.75258812 91.66290938 -196.75258812 91.66290938 -199 92 C-199 91.01 -199 90.02 -199 89 C-197.02 89.33 -195.04 89.66 -193 90 C-193 88.68 -193 87.36 -193 86 C-196.63 84.35 -200.26 82.7 -204 81 C-200.03873122 80.00968281 -199.56501009 80.04703037 -196 81 C-194.03367094 81.06953688 -192.06509122 81.08452181 -190.09765625 81.0625 C-188.96005859 81.05476563 -187.82246094 81.04703125 -186.65039062 81.0390625 C-184.26236933 81.01306336 -181.87434849 80.98702183 -179.48632812 80.9609375 C-178.34744141 80.95320313 -177.20855469 80.94546875 -176.03515625 80.9375 C-174.9975415 80.92589844 -173.95992676 80.91429687 -172.89086914 80.90234375 C-170.14248927 80.99518658 -167.67272402 81.375391 -165 82 C-165.680625 81.443125 -166.36125 80.88625 -167.0625 80.3125 C-169 78 -169 78 -168.8125 75.375 C-168 73 -168 73 -167 71 C-166.33112827 68.17123097 -166.33112827 68.17123097 -167 65 C-169.10270558 62.67651034 -171.46095601 60.82655715 -174 59 C-173.34 58.67 -172.68 58.34 -172 58 C-170.01696947 58.69406069 -168.03616548 59.3981882 -166.0859375 60.1796875 C-163.85177632 61.09165977 -163.85177632 61.09165977 -160.875 61.9375 C-157.52832944 63.17431303 -154.89442864 64.93255097 -152 67 C-152.99 67.495 -152.99 67.495 -154 68 C-151.85063259 80.89620444 -141.45634796 90.56966336 -133 100 C-132.33484375 100.75023437 -131.6696875 101.50046875 -130.984375 102.2734375 C-128.59533706 104.35208862 -126.42546546 105.2255547 -123.4375 106.25 C-122.48746094 106.58515625 -121.53742188 106.9203125 -120.55859375 107.265625 C-117.96305441 108.13794191 -117.96305441 108.13794191 -115 108 C-114.505 106.515 -114.505 106.515 -114 105 C-114.680625 104.79375 -115.36125 104.5875 -116.0625 104.375 C-121.253499 101.94517068 -125.16699841 98.95574287 -127.4375 93.625 C-127.623125 92.75875 -127.80875 91.8925 -128 91 C-123.18427336 92.31791336 -120.05966534 94.23296106 -116.25 97.4375 C-115.30640625 98.21996094 -114.3628125 99.00242187 -113.390625 99.80859375 C-111 102 -111 102 -109 105 C-105.53721235 107.3985364 -102.37005892 107.20740118 -98.25 107.125 C-96.49429688 107.09792969 -96.49429688 107.09792969 -94.703125 107.0703125 C-93.36507812 107.03550781 -93.36507812 107.03550781 -92 107 C-92.72316406 106.18595703 -92.72316406 106.18595703 -93.4609375 105.35546875 C-94.09257812 104.64003906 -94.72421875 103.92460937 -95.375 103.1875 C-96.00148438 102.47980469 -96.62796875 101.77210938 -97.2734375 101.04296875 C-99 99 -99 99 -101 96 C-97.2089881 97.44950455 -93.6125362 99.15172566 -90 101 C-92.97519337 96.30834891 -96.31393365 92.15296809 -100 88 C-96.10082032 89.61537444 -93.28706228 92.27924873 -90.25 95.125 C-89.74339844 95.59292969 -89.23679688 96.06085938 -88.71484375 96.54296875 C-87.47280859 97.69126541 -86.23588506 98.84508672 -85 100 C-85.2673999 99.44014404 -85.5347998 98.88028809 -85.81030273 98.3034668 C-87.02117233 95.7656673 -88.22936412 93.22660196 -89.4375 90.6875 C-89.85837891 89.80642578 -90.27925781 88.92535156 -90.71289062 88.01757812 C-91.11572266 87.17001953 -91.51855469 86.32246094 -91.93359375 85.44921875 C-92.30540771 84.66893311 -92.67722168 83.88864746 -93.06030273 83.0847168 C-94 81 -94 81 -95 78 C-96.32944391 77.65147771 -97.66344949 77.32018996 -99 77 C-100.74609375 75.546875 -100.74609375 75.546875 -102.4375 73.75 C-103.34822266 72.79867187 -103.34822266 72.79867187 -104.27734375 71.828125 C-104.84582031 71.22484375 -105.41429687 70.6215625 -106 70 C-106.825 69.175 -107.65 68.35 -108.5 67.5 C-109.325 66.675 -110.15 65.85 -111 65 C-111.52207031 64.50113281 -112.04414063 64.00226563 -112.58203125 63.48828125 C-119.91532363 56.38674077 -125.95443624 48.19815085 -132 40 C-124.14021939 42.14357653 -119.32819531 49.57328575 -115 56 C-115 53.26165646 -115.57752111 50.65683038 -116.07421875 47.97265625 C-116 46 -116 46 -114.87109375 44.265625 C-110.52567908 41.3263466 -103.62385768 42.52533228 -98.66796875 43.421875 C-97.25789362 43.76719952 -95.85029259 44.12277905 -94.4453125 44.48828125 C-89.3760476 45.54910186 -84.161002 45.69688087 -79 46 C-79.58910156 45.01257813 -80.17820313 44.02515625 -80.78515625 43.0078125 C-81.54469193 41.71378874 -82.30378366 40.41950433 -83.0625 39.125 C-83.45244141 38.47402344 -83.84238281 37.82304687 -84.24414062 37.15234375 C-85.22444533 35.46934275 -86.11898432 33.73703801 -87 32 C-86.67 31.34 -86.34 30.68 -86 30 C-85.44570312 30.85464844 -84.89140625 31.70929688 -84.3203125 32.58984375 C-83.58878657 33.70588973 -82.85700229 34.8217664 -82.125 35.9375 C-81.04605469 37.59072266 -81.04605469 37.59072266 -79.9453125 39.27734375 C-78.28216717 42.05381966 -78.28216717 42.05381966 -76 43 C-75.67 41.35 -75.34 39.7 -75 38 C-74.01 39.32 -73.02 40.64 -72 42 C-71.74605469 41.44570312 -71.49210938 40.89140625 -71.23046875 40.3203125 C-70.88628906 39.59585938 -70.54210937 38.87140625 -70.1875 38.125 C-69.85105469 37.40570313 -69.51460937 36.68640625 -69.16796875 35.9453125 C-68 34 -68 34 -65 32 C-54.65517377 31.15552439 -44.97499418 36.34629931 -36 41 C-34.67503613 41.36518439 -33.34273531 41.70682635 -32 42 C-31.67 41.34 -31.34 40.68 -31 40 C-30.20788071 41.89564426 -29.41632424 43.79152371 -28.625 45.6875 C-28.18414062 46.74324219 -27.74328125 47.79898438 -27.2890625 48.88671875 C-26.17242538 51.58356657 -25.07708199 54.28716264 -24 57 C-23.82984375 55.73285156 -23.6596875 54.46570313 -23.484375 53.16015625 C-20.82497705 34.31246813 -20.82497705 34.31246813 -14.75 25.875 C-11.72832075 23.81476415 -11.14054726 23.77946796 -7.6875 24.1875 C-6.470625 24.455625 -5.25375 24.72375 -4 25 C-4.99 23.02 -5.98 21.04 -7 19 C-10.06382739 19.32432407 -10.98970965 19.98901487 -13.140625 22.28515625 C-13.83671875 23.20167969 -14.5328125 24.11820313 -15.25 25.0625 C-15.95640625 25.98160156 -16.6628125 26.90070313 -17.390625 27.84765625 C-17.92171875 28.55792969 -18.4528125 29.26820312 -19 30 C-21.3203125 29.77734375 -21.3203125 29.77734375 -24 29 C-25.6171875 27.00390625 -25.6171875 27.00390625 -26.875 24.5625 C-27.30554688 23.75941406 -27.73609375 22.95632812 -28.1796875 22.12890625 C-28.45039063 21.42636719 -28.72109375 20.72382812 -29 20 C-28.67 19.34 -28.34 18.68 -28 18 C-26.92363281 17.88914062 -25.84726563 17.77828125 -24.73828125 17.6640625 C-20.28441578 16.87288473 -19.14185613 15.70682923 -16.1875 12.375 C-4.59482759 0 -4.59482759 0 0 0 Z " fill="#BE0603" transform="translate(281,91)"/>
<path d="M0 0 C5.75 1.875 5.75 1.875 8 3 C8.28875 4.216875 8.5775 5.43375 8.875 6.6875 C11.09342292 13.84591623 16.61777773 18.98737567 21.56103516 24.4140625 C23.39125786 26.43122006 25.16403929 28.49541997 26.9375 30.5625 C29.51691155 33.49534054 32.20310227 36.27131929 35 39 C35.65355469 39.67546875 36.30710938 40.3509375 36.98046875 41.046875 C37.68816406 41.77390625 38.39585937 42.5009375 39.125 43.25 C39.78757813 43.93578125 40.45015625 44.6215625 41.1328125 45.328125 C42.99636642 47.21948202 42.99636642 47.21948202 46 48 C47.45409839 50.56812539 48.75186371 53.08480671 50 55.75 C50.68565586 57.1831754 51.3731187 58.61548788 52.0625 60.046875 C52.38734375 60.72814453 52.7121875 61.40941406 53.046875 62.11132812 C54.06888615 64.20893943 54.06888615 64.20893943 55.8125 66.890625 C56.4003125 67.93476563 56.4003125 67.93476563 57 69 C56.67 69.66 56.34 70.32 56 71 C55.14277344 70.16855469 54.28554687 69.33710938 53.40234375 68.48046875 C52.2478715 67.38231222 51.09289665 66.2846839 49.9375 65.1875 C49.37611328 64.64029297 48.81472656 64.09308594 48.23632812 63.52929688 C44.34998051 59.86502627 40.9796157 57.90856351 36 56 C34.39543376 55.09932366 32.80977002 54.16370089 31.25 53.1875 C27.61073026 50.93938842 23.92403106 48.9028654 20.125 46.9375 C16.06383059 44.73059001 13.55812276 42.92854566 11 39 C6.96252826 33.43796211 2.87645951 28.7224713 -2.49609375 24.41015625 C-2.99238281 23.94480469 -3.48867187 23.47945312 -4 23 C-4 22.34 -4 21.68 -4 21 C-4.99 20.67 -5.98 20.34 -7 20 C-12.52239002 14.7646649 -16.76774184 8.27763521 -21 2 C-17.71837845 2 -16.8207937 2.49140288 -14.09375 4.15234375 C-13.34996094 4.59900391 -12.60617188 5.04566406 -11.83984375 5.50585938 C-11.06769531 5.97830078 -10.29554688 6.45074219 -9.5 6.9375 C-7.97027794 7.86580379 -6.43908502 8.79168921 -4.90625 9.71484375 C-4.22884766 10.12855225 -3.55144531 10.54226074 -2.85351562 10.96850586 C-0.87485635 12.14449382 -0.87485635 12.14449382 2 13 C1.67 11.783125 1.34 10.56625 1 9.3125 C0.19677787 6.12789396 -0.20641973 3.3027157 0 0 Z " fill="#051326" transform="translate(140,121)"/>
<path d="M0 0 C1.18916016 0.01353516 1.18916016 0.01353516 2.40234375 0.02734375 C4.35169281 0.05082988 6.30088575 0.08669863 8.25 0.125 C7.54509802 4.90490675 6.2224061 8.70681035 4.25 13.125 C3.56163487 15.11763591 2.88718601 17.11541337 2.25 19.125 C-5.07946833 17.98352542 -12.33750835 16.53749165 -17.75 11.125 C-18.1875 8.75 -18.1875 8.75 -17.75 6.125 C-15.5 3.9375 -15.5 3.9375 -12.75 2.125 C-12.21375 1.76019531 -11.6775 1.39539063 -11.125 1.01953125 C-7.46071936 -0.36060077 -3.87763753 -0.08359749 0 0 Z " fill="#081325" transform="translate(129.75,240.875)"/>
<path d="M0 0 C5.75 1.875 5.75 1.875 8 3 C8.875 6.3125 8.875 6.3125 9 10 C7.1875 12.4375 7.1875 12.4375 5 14 C4.34 14 3.68 14 3 14 C2.67 14.66 2.34 15.32 2 16 C1.236875 16.144375 0.47375 16.28875 -0.3125 16.4375 C-3.28468897 17.05958606 -4.66197025 18.13057323 -7 20 C-12.20444273 14.33680699 -16.70208035 8.37502975 -21 2 C-17.71837845 2 -16.8207937 2.49140288 -14.09375 4.15234375 C-13.34996094 4.59900391 -12.60617188 5.04566406 -11.83984375 5.50585938 C-11.06769531 5.97830078 -10.29554688 6.45074219 -9.5 6.9375 C-7.97027794 7.86580379 -6.43908502 8.79168921 -4.90625 9.71484375 C-4.22884766 10.12855225 -3.55144531 10.54226074 -2.85351562 10.96850586 C-0.87485635 12.14449382 -0.87485635 12.14449382 2 13 C1.67 11.783125 1.34 10.56625 1 9.3125 C0.19677787 6.12789396 -0.20641973 3.3027157 0 0 Z " fill="#B50604" transform="translate(140,121)"/>
<path d="M0 0 C5.55546616 -0.8546871 8.55149488 1.24092825 12.88671875 4.359375 C16.88952379 7.46691311 19.51085321 9.83827638 21.5 14.5625 C23.15638261 18.35837682 24.53792307 19.80453658 28 22 C28.61875 22.11859375 29.2375 22.2371875 29.875 22.359375 C32.7705128 23.23228695 34.35120526 24.83207796 36.5625 26.875 C37.32691406 27.57367188 38.09132812 28.27234375 38.87890625 28.9921875 C40.61519085 30.63574235 42.32306418 32.29627607 44 34 C39.53881902 33.4023701 35.98393832 31.64446351 32.125 29.4375 C31.19083252 28.90394897 31.19083252 28.90394897 30.23779297 28.35961914 C25.87018256 25.75794295 22.70141703 22.95814427 19.55859375 18.9296875 C17.38019727 16.23262519 14.83291522 14.11154674 12.19921875 11.87109375 C9.59915232 9.65895908 7.0465162 7.39854691 4.5 5.125 C3.6440625 4.36445313 2.788125 3.60390625 1.90625 2.8203125 C1.2771875 2.21960938 0.648125 1.61890625 0 1 C0 0.67 0 0.34 0 0 Z " fill="#0E1224" transform="translate(197,192)"/>
<path d="M0 0 C2.14080772 1.12009639 4.24470821 2.31273573 6.3125 3.5625 C7.38113281 4.20316406 8.44976562 4.84382812 9.55078125 5.50390625 C10.35902344 5.99761719 11.16726562 6.49132812 12 7 C10.32603695 11.591665 8.20616974 14.37196582 5 18 C-0.25889791 15.76141508 -3.81548799 11.65545327 -7 7 C-7.64752448 4.30198133 -7.47288078 2.77817455 -7 0 C-4.22152308 -1.38923846 -2.97691059 -0.84394786 0 0 Z " fill="#061325" transform="translate(150,198)"/>
<path d="M0 0 C3.98607871 1.71391591 7.20187187 4.37500422 10.5625 7.0625 C11.49449219 7.80222046 11.49449219 7.80222046 12.4453125 8.55688477 C14.30082846 10.0330582 16.15138891 11.5151923 18 13 C18.94746094 13.76054687 19.89492187 14.52109375 20.87109375 15.3046875 C28.37206351 21.39016965 35.68735095 27.69083856 43 34 C39.07574831 34 36.64571652 32.26303482 33.375 30.3125 C32.11502211 29.57216941 30.85460507 28.83258568 29.59375 28.09375 C28.98015625 27.7328125 28.3665625 27.371875 27.734375 27 C25.48315217 25.70199765 23.18026916 24.51123996 20.875 23.3125 C17.33158463 21.33886975 15.31484332 19.39510353 13 16 C11.88343453 14.53519876 10.75748176 13.07753095 9.625 11.625 C9.02816406 10.85542969 8.43132812 10.08585938 7.81640625 9.29296875 C5.29876108 6.11478011 2.66515098 3.05517307 0 0 Z " fill="#B20605" transform="translate(138,144)"/>
<path d="M0 0 C-0.39380859 0.46374023 -0.78761719 0.92748047 -1.19335938 1.40527344 C-2.97247068 3.51178333 -4.73627417 5.63059557 -6.5 7.75 C-7.12003906 8.47960937 -7.74007812 9.20921875 -8.37890625 9.9609375 C-8.96542969 10.66992188 -9.55195313 11.37890625 -10.15625 12.109375 C-10.70087891 12.75874023 -11.24550781 13.40810547 -11.80664062 14.07714844 C-13.3515466 16.189267 -13.3515466 16.189267 -13 20 C-14.97599607 21.36865529 -16.98031907 22.69667091 -19 24 C-21.49813607 26.85093406 -21.49813607 26.85093406 -23.6875 30 C-24.80705078 31.546875 -24.80705078 31.546875 -25.94921875 33.125 C-26.62597656 34.07375 -27.30273438 35.0225 -28 36 C-28.99577449 37.33649203 -29.99387802 38.67128018 -31 40 C-31.66 39.67 -32.32 39.34 -33 39 C-32.61779297 38.40687012 -32.23558594 37.81374023 -31.84179688 37.20263672 C-30.05753861 34.42909206 -28.27858068 31.65218876 -26.5 28.875 C-25.53477417 27.37477295 -25.53477417 27.37477295 -24.55004883 25.84423828 C-21.36861068 20.86414262 -18.33310922 15.88941531 -15.60986328 10.64526367 C-12.58307171 4.83603507 -10.18271461 1.46926866 -3.8828125 -0.71484375 C-2 -1 -2 -1 0 0 Z " fill="#131223" transform="translate(190,414)"/>
<path d="M0 0 C0.639375 0.53625 1.27875 1.0725 1.9375 1.625 C4.75712122 3.98702995 4.75712122 3.98702995 7.3359375 5.109375 C10.10765688 6.52583727 11.9602837 7.62904772 14 10 C14.78505083 14.75274017 14.52958626 19.22718559 14 24 C10.4389927 22.51491624 8.39978977 20.51458829 5.875 17.625 C5.19179687 16.85414062 4.50859375 16.08328125 3.8046875 15.2890625 C0.84720378 11.53779527 -0.26613733 9.04866911 -0.125 4.25 C-0.10695312 3.45078125 -0.08890625 2.6515625 -0.0703125 1.828125 C-0.04710937 1.22484375 -0.02390625 0.6215625 0 0 Z " fill="#B30605" transform="translate(169,40)"/>
<path d="M0 0 C1.65 1.65 3.3 3.3 5 5 C1.5542878 8.48323357 -1.95448672 11.87053647 -5.5625 15.1875 C-6.49191406 16.04730469 -7.42132813 16.90710938 -8.37890625 17.79296875 C-10.57307539 19.64051802 -12.38023455 20.89661644 -15 22 C-13.47291037 18.56404834 -11.40072955 15.88087546 -9 13 C-9.61488281 13.433125 -10.22976562 13.86625 -10.86328125 14.3125 C-11.67152344 14.869375 -12.47976562 15.42625 -13.3125 16 C-14.11300781 16.556875 -14.91351563 17.11375 -15.73828125 17.6875 C-18 19 -18 19 -21 19 C-7.04255319 6.04255319 -7.04255319 6.04255319 0 0 Z " fill="#0A1324" transform="translate(213,351)"/>
<path d="M0 0 C4.91871986 0.61846379 8.84721354 2.75326348 13.1875 5 C14.27321289 5.55300781 14.27321289 5.55300781 15.38085938 6.1171875 C17.25638849 7.07327118 19.12843676 8.03617609 21 9 C21.66 9.33 22.32 9.66 23 10 C23 11.98 23 13.96 23 16 C15.20764611 15.82683658 8.74368906 11.55851735 3.18359375 6.2734375 C0 2.59099003 0 2.59099003 0 0 Z " fill="#B30605" transform="translate(70,195)"/>
<path d="M0 0 C3.28638162 2.98920882 5.86649958 6.21571554 6.203125 10.71484375 C6.21859375 11.77832031 6.2340625 12.84179688 6.25 13.9375 C6.28867188 15.52884766 6.28867188 15.52884766 6.328125 17.15234375 C6 20 6 20 4.484375 21.87890625 C3.99453125 22.24886719 3.5046875 22.61882812 3 23 C2.96261719 22.40832031 2.92523438 21.81664063 2.88671875 21.20703125 C2.48937879 16.43116081 2.16981481 12.78332735 -1 9 C-3.5799462 6.86874009 -6.2478438 4.90232175 -9 3 C-8.67 2.01 -8.34 1.02 -8 0 C-4.95588012 -1.52205994 -3.23094106 -0.95027678 0 0 Z " fill="#B10705" transform="translate(208,71)"/>
<path d="M0 0 C0.33 0.66 0.66 1.32 1 2 C-0.07421875 4.46875 -0.07421875 4.46875 -1.6875 7.5 C-4.09832769 12.15462344 -6.17733721 16.79397393 -8.0625 21.6796875 C-9.49696105 25.22997861 -11.23581361 28.60505308 -13 32 C-13.66853604 33.33239701 -14.33568592 34.66549296 -15 36 C-16.22485812 33.55028376 -16.16722808 31.85765539 -16.1875 29.125 C-16.20167969 28.26132813 -16.21585937 27.39765625 -16.23046875 26.5078125 C-15.92150541 23.14587241 -15.02527545 20.99694407 -12.59521484 18.6340332 C-10.87164029 16.86851675 -9.62872723 15.06612613 -8.30078125 12.98828125 C-7.81416016 12.23095703 -7.32753906 11.47363281 -6.82617188 10.69335938 C-6.32666016 9.90767578 -5.82714844 9.12199219 -5.3125 8.3125 C-4.80138672 7.51521484 -4.29027344 6.71792969 -3.76367188 5.89648438 C-2.50571376 3.93312919 -1.25130184 1.9676015 0 0 Z " fill="#820A0E" transform="translate(304,103)"/>
<path d="M0 0 C0 3 0 3 -2.046875 5.19140625 C-2.93890625 5.97386719 -3.8309375 6.75632812 -4.75 7.5625 C-5.63171875 8.34753906 -6.5134375 9.13257812 -7.421875 9.94140625 C-9.60944688 11.68814925 -11.39617647 13.01253303 -14 14 C-16.75 13.625 -16.75 13.625 -19 13 C-14.57992251 5.68987184 -9.05455733 -0.40242477 0 0 Z " fill="#B20605" transform="translate(406,88)"/>
<path d="M0 0 C2 0 2 0 4.375 2.3125 C5.24125 3.199375 6.1075 4.08625 7 5 C8.31175986 6.02813611 9.6369893 7.04084432 11 8 C9.81640625 9.9765625 9.81640625 9.9765625 8 12 C5.58984375 12.4609375 5.58984375 12.4609375 2.9375 12.375 C2.05964844 12.36210937 1.18179688 12.34921875 0.27734375 12.3359375 C-2 12 -2 12 -4 10 C-3.68031589 6.05722928 -2.28521123 3.19929572 0 0 Z " fill="#B30605" transform="translate(86,333)"/>
<path d="M0 0 C0.70125 0.71285156 1.4025 1.42570312 2.125 2.16015625 C5.4734373 5.50977257 9.00141026 8.65956674 12.5390625 11.80664062 C16.04257899 14.97328053 19.04625221 18.31324494 22 22 C21.29875 21.67 20.5975 21.34 19.875 21 C17.04868788 19.7680315 17.04868788 19.7680315 14.15234375 20.421875 C11 20 11 20 9.59472656 18.56835938 C8.17490781 16.51508302 6.91809837 14.42186521 5.6875 12.25 C5.02524414 11.15558594 5.02524414 11.15558594 4.34960938 10.0390625 C2.37103687 6.70609198 0.80497934 3.81847814 0 0 Z " fill="#B00705" transform="translate(103,65)"/>
<path d="M0 0 C-1.37004869 4.17643876 -3.21110897 6.54051106 -6.375 9.5625 C-7.14585938 10.30628906 -7.91671875 11.05007813 -8.7109375 11.81640625 C-9.46632813 12.53699219 -10.22171875 13.25757813 -11 14 C-12.33675066 15.32990723 -13.67122503 16.66212383 -15 18 C-14.71150838 11.36469264 -12.03924175 6.24498556 -8 1 C-5.07175348 0.02391783 -3.04386724 -0.08226668 0 0 Z " fill="#B30605" transform="translate(102,314)"/>
<path d="M0 0 C5.75 1.875 5.75 1.875 8 3 C8.875 6.3125 8.875 6.3125 9 10 C7.1875 12.4375 7.1875 12.4375 5 14 C4.34 14 3.68 14 3 14 C2.67 14.66 2.34 15.32 2 16 C1.34 15.34 0.68 14.68 0 14 C0.30030296 12.65884116 0.64017105 11.32642829 1 10 C0.91760895 8.245868 0.76901219 6.49388075 0.5625 4.75 C0.46066406 3.85796875 0.35882813 2.9659375 0.25390625 2.046875 C0.17011719 1.37140625 0.08632812 0.6959375 0 0 Z " fill="#A20808" transform="translate(140,121)"/>
<path d="M0 0 C3.15835107 1.39750048 5.32272825 3.05198234 7.75 5.5 C8.67039063 6.41265625 8.67039063 6.41265625 9.609375 7.34375 C11 9 11 9 11 11 C11.66 11 12.32 11 13 11 C13.33 10.01 13.66 9.02 14 8 C15.32 10.31 16.64 12.62 18 15 C13.71 14.34 9.42 13.68 5 13 C4.28385417 10.78645833 3.56770833 8.57291667 2.8515625 6.359375 C2.04826333 4.13372042 1.10288338 2.09068328 0 0 Z " fill="#B10605" transform="translate(144,112)"/>
<path d="M0 0 C2.26562632 4.18998675 3.07778334 8.36443308 4 13 C4.309375 14.423125 4.309375 14.423125 4.625 15.875 C5.18950337 20.57919474 5.07577747 25.2681179 5 30 C2.61697265 25.54918741 1.53977743 20.93314804 0.3125 16.0625 C0.07466797 15.16853516 -0.16316406 14.27457031 -0.40820312 13.35351562 C-0.73788086 12.05124023 -0.73788086 12.05124023 -1.07421875 10.72265625 C-1.27619873 9.93640869 -1.47817871 9.15016113 -1.6862793 8.34008789 C-2.04834226 5.63940816 -1.71624176 3.61776357 -1 1 C-0.67 0.67 -0.34 0.34 0 0 Z " fill="#231120" transform="translate(285,354)"/>
<path d="M0 0 C0.33 0.66 0.66 1.32 1 2 C1.66 2.33 2.32 2.66 3 3 C2.62190186 3.4940332 2.24380371 3.98806641 1.85424805 4.49707031 C0.13180136 6.74789594 -1.59035204 8.99894581 -3.3125 11.25 C-3.90740234 12.02730469 -4.50230469 12.80460937 -5.11523438 13.60546875 C-5.69208984 14.35957031 -6.26894531 15.11367188 -6.86328125 15.890625 C-7.39219971 16.58188477 -7.92111816 17.27314453 -8.46606445 17.98535156 C-9.98710473 19.98306355 -11.49601313 21.98942778 -13 24 C-13.66 23.67 -14.32 23.34 -15 23 C-10.05 15.41 -5.1 7.82 0 0 Z " fill="#AF0705" transform="translate(172,430)"/>
<path d="M0 0 C2 0 2 0 4 1 C5.25 4.0625 5.25 4.0625 6 7 C4.1746875 6.8453125 4.1746875 6.8453125 2.3125 6.6875 C-1.45005227 6.65408479 -1.88803642 6.90669702 -5 9.5 C-5.66 10.325 -6.32 11.15 -7 12 C-7.66 11.67 -8.32 11.34 -9 11 C-7.87672229 9.54033966 -6.75131706 8.08231636 -5.625 6.625 C-4.99851562 5.81289062 -4.37203125 5.00078125 -3.7265625 4.1640625 C-2 2 -2 2 0 0 Z " fill="#061325" transform="translate(271,109)"/>
<path d="M0 0 C1.32 0.33 2.64 0.66 4 1 C5.34465195 8.21222411 5.34465195 8.21222411 3.6875 12 C3.130625 12.66 2.57375 13.32 2 14 C1.34 14 0.68 14 0 14 C-0.99 11.69 -1.98 9.38 -3 7 C-1.35 6.34 0.3 5.68 2 5 C1.34 3.35 0.68 1.7 0 0 Z " fill="#A90707" transform="translate(200,40)"/>
<path d="M0 0 C0.66 0.33 1.32 0.66 2 1 C2.81640625 3.80078125 2.81640625 3.80078125 3.5625 7.3125 C3.81128906 8.46363281 4.06007812 9.61476563 4.31640625 10.80078125 C4.54199219 11.85652344 4.76757812 12.91226563 5 14 C5.32571478 15.33521488 5.6550855 16.66961551 6 18 C4.68 16.68 3.36 15.36 2 14 C1.01 15.485 1.01 15.485 0 17 C-0.66 14.69 -1.32 12.38 -2 10 C-1.34 10 -0.68 10 0 10 C0 6.7 0 3.4 0 0 Z " fill="#840A0E" transform="translate(191,72)"/>
<path d="M0 0 C0.99 0.33 1.98 0.66 3 1 C0.88081578 3.65053915 -1.24630516 6.29459512 -3.375 8.9375 C-3.97828125 9.69224609 -4.5815625 10.44699219 -5.203125 11.22460938 C-6.07324219 12.30258789 -6.07324219 12.30258789 -6.9609375 13.40234375 C-7.76217041 14.39995728 -7.76217041 14.39995728 -8.57958984 15.41772461 C-10 17 -10 17 -12 18 C-11.40336514 14.90106073 -10.4698686 12.99707826 -8.49609375 10.546875 C-8.00302734 9.928125 -7.50996094 9.309375 -7.00195312 8.671875 C-6.48568359 8.03765625 -5.96941406 7.4034375 -5.4375 6.75 C-4.91736328 6.1003125 -4.39722656 5.450625 -3.86132812 4.78125 C-2.580156 3.18272331 -1.29085995 1.59071374 0 0 Z " fill="#A80707" transform="translate(188,415)"/>
<path d="M0 0 C1.68272986 0.62501395 3.34630643 1.30177383 5 2 C5.886875 2.37125 6.77375 2.7425 7.6875 3.125 C11.14661687 5.92968936 11.22103179 8.68026717 12 13 C11.319375 12.29875 10.63875 11.5975 9.9375 10.875 C7.23957261 8.15381461 4.33406548 5.73904225 1.35546875 3.33203125 C0.90816406 2.89246094 0.46085938 2.45289062 0 2 C0 1.34 0 0.68 0 0 Z " fill="#A60707" transform="translate(151,79)"/>
<path d="M0 0 C0.66 0.33 1.32 0.66 2 1 C1.01 1.8971875 1.01 1.8971875 0 2.8125 C-2.3373846 4.87501834 -2.3373846 4.87501834 -2 8 C-3.051875 8.3403125 -3.051875 8.3403125 -4.125 8.6875 C-7.69343613 10.31656867 -10.06514511 12.40640731 -13 15 C-13.66 14.67 -14.32 14.34 -15 14 C-14.08476562 13.15695312 -13.16953125 12.31390625 -12.2265625 11.4453125 C-11.02602139 10.33856366 -9.82550167 9.23179162 -8.625 8.125 C-8.02171875 7.56941406 -7.4184375 7.01382812 -6.796875 6.44140625 C-6.21679688 5.90644531 -5.63671875 5.37148438 -5.0390625 4.8203125 C-4.50490723 4.32805176 -3.97075195 3.83579102 -3.42041016 3.32861328 C-2.25855182 2.24184238 -1.12494128 1.12494128 0 0 Z " fill="#241120" transform="translate(207,356)"/>
<path d="M0 0 C0.99 0.33 1.98 0.66 3 1 C3.19294408 5.82360189 2.75747614 9.49646738 1 14 C-1 12 -1 12 -1.23046875 9.6875 C-1.21628906 8.800625 -1.20210938 7.91375 -1.1875 7 C-1.18105469 6.113125 -1.17460937 5.22625 -1.16796875 4.3125 C-1 2 -1 2 0 0 Z " fill="#0C1324" transform="translate(289,125)"/>
<path d="M0 0 C12.74005147 10.29004158 12.74005147 10.29004158 14 17 C10.60580737 13.71529745 7.38092265 10.29302848 4.1875 6.8125 C3.39730469 5.95269531 2.60710937 5.09289062 1.79296875 4.20703125 C0 2 0 2 0 0 Z " fill="#9D0809" transform="translate(113,123)"/>
<path d="M0 0 C3.9252025 3.70090521 6.94580156 7.54959656 10 12 C8.68 12 7.36 12 6 12 C5.67 12.66 5.34 13.32 5 14 C4.35089846 12.41800369 3.70585306 10.83434276 3.0625 9.25 C2.70285156 8.36828125 2.34320313 7.4865625 1.97265625 6.578125 C1.14643424 4.38813896 0.50630057 2.28101729 0 0 Z " fill="#A40708" transform="translate(175,114)"/>
<path d="M0 0 C7.48291572 6.15034169 7.48291572 6.15034169 10 10 C9.01 10.495 9.01 10.495 8 11 C2.25 6.375 2.25 6.375 0 3 C0 2.01 0 1.02 0 0 Z " fill="#93090B" transform="translate(217,204)"/>
<path d="M0 0 C4.69159716 3.38772897 9.0299782 6.78185183 13 11 C7.24329229 9.96379261 4.73972999 8.18316594 1.06640625 3.65625 C0 2 0 2 0 0 Z " fill="#98080A" transform="translate(105,132)"/>
<path d="M0 0 C0.99 0.66 1.98 1.32 3 2 C-3.435 2.495 -3.435 2.495 -10 3 C-9 1 -9 1 -6.125 -0.1875 C-3 -1 -3 -1 0 0 Z " fill="#2E101E" transform="translate(422,221)"/>
<path d="M0 0 C0.99 0.33 1.98 0.66 3 1 C2.278125 1.70125 1.55625 2.4025 0.8125 3.125 C-1.99823813 5.92770745 -4.49516226 8.92262792 -7 12 C-7.66 11.67 -8.32 11.34 -9 11 C-7.87672229 9.54033966 -6.75131706 8.08231636 -5.625 6.625 C-4.99851562 5.81289062 -4.37203125 5.00078125 -3.7265625 4.1640625 C-2 2 -2 2 0 0 Z " fill="#1C1121" transform="translate(271,109)"/>
<path d="M0 0 C4.0042343 3.49087093 5.62671065 5.64951939 6 11 C5.34 11 4.68 11 4 11 C3.32880451 9.5437455 2.66318193 8.08492133 2 6.625 C1.62875 5.81289062 1.2575 5.00078125 0.875 4.1640625 C0 2 0 2 0 0 Z " fill="#A50707" transform="translate(164,94)"/>
<path d="M0 0 C2.68234235 2.42457972 4.36856725 5.07510397 6.1875 8.1875 C6.71730469 9.08855469 7.24710938 9.98960937 7.79296875 10.91796875 C8.19128906 11.60503906 8.58960938 12.29210937 9 13 C8.01 13 7.02 13 6 13 C4.99491199 11.21118264 3.99607264 9.41885304 3 7.625 C2.1646875 6.12839844 2.1646875 6.12839844 1.3125 4.6015625 C0 2 0 2 0 0 Z " fill="#92090B" transform="translate(194,121)"/>
<path d="M0 0 C1 3 1 3 -0.1875 5.8125 C-1.99782723 8.99617892 -3.92034393 11.98808432 -6 15 C-6.33 14.34 -6.66 13.68 -7 13 C-5.92325298 10.71741367 -4.80453884 8.5643566 -3.5625 6.375 C-3.22412109 5.76398438 -2.88574219 5.15296875 -2.53710938 4.5234375 C-1.69853808 3.011647 -0.85017423 1.50529601 0 0 Z " fill="#94090B" transform="translate(299,99)"/>
<path d="M0 0 C3.3 1.65 6.6 3.3 10 5 C6.8035914 6.06546953 4.34252724 6.07427838 1 6 C0.67 4.02 0.34 2.04 0 0 Z " fill="#AF0705" transform="translate(89,153)"/>
<path d="M0 0 C3.29148243 1.13499394 3.9959869 1.99283376 5.75 5.125 C6.1625 6.07375 6.575 7.0225 7 8 C6.401875 7.690625 5.80375 7.38125 5.1875 7.0625 C2.91043228 5.89790296 2.91043228 5.89790296 0 5 C0 3.35 0 1.7 0 0 Z " fill="#7B0A0F" transform="translate(140,121)"/>
<path d="M0 0 C0.33 0 0.66 0 1 0 C1.35233161 5.37305699 1.35233161 5.37305699 1 8 C-1 10 -1 10 -3 11 C-2.69078116 9.54096742 -2.37751201 8.08279278 -2.0625 6.625 C-1.88847656 5.81289062 -1.71445312 5.00078125 -1.53515625 4.1640625 C-1 2 -1 2 0 0 Z " fill="#B20605" transform="translate(318,95)"/>
<path d="M0 0 C2.52588702 2.36292656 3.88820837 3.66462511 5 7 C2.83125748 6.49396008 1.00032373 6.00016187 -1 5 C-0.67 3.35 -0.34 1.7 0 0 Z " fill="#91090B" transform="translate(157,120)"/>
<path d="M0 0 C0.66 0 1.32 0 2 0 C1.42647107 3.87132028 -0.48704352 6.08172796 -3 9 C-3.66 8.67 -4.32 8.34 -5 8 C-4.21718695 6.66144944 -3.42348123 5.32926356 -2.625 4 C-2.18414062 3.2575 -1.74328125 2.515 -1.2890625 1.75 C-0.86367187 1.1725 -0.43828125 0.595 0 0 Z " fill="#9B0809" transform="translate(162,445)"/>
<path d="M0 0 C3.76488042 1.72154788 6.15063897 3.99234114 9 7 C6 7 6 7 4.39453125 5.46875 C3.87246094 4.8190625 3.35039062 4.169375 2.8125 3.5 C2.28269531 2.8503125 1.75289062 2.200625 1.20703125 1.53125 C0.80871094 1.0259375 0.41039062 0.520625 0 0 Z " fill="#7E0A0F" transform="translate(138,144)"/>
<path d="M0 0 C2.475 0.495 2.475 0.495 5 1 C5 2.65 5 4.3 5 6 C3.31237149 4.3545622 1.6459651 2.68711423 0 1 C0 0.67 0 0.34 0 0 Z " fill="#B90604" transform="translate(143,123)"/>
<path d="M0 0 C0.66 0.33 1.32 0.66 2 1 C1.25 3.4375 1.25 3.4375 0 6 C-2.125 6.8125 -2.125 6.8125 -4 7 C-2.92598892 4.08482708 -2.22189824 2.22189824 0 0 Z " fill="#A50707" transform="translate(298,113)"/>
</svg>
